<svg width="85" height="80" viewBox="0 0 85 80" fill="none" xmlns="http://www.w3.org/2000/svg">
<mask id="path-1-inside-1_2508_7586" fill="white">
<path fill-rule="evenodd" clip-rule="evenodd" d="M36.911 64.8201H35.1393C34.1588 64.8201 33.3644 65.6145 33.3644 66.5917V77.2284C33.3644 78.2056 34.1588 79 35.1393 79H70.5926C71.5731 79 72.3675 78.2056 72.3675 77.2284V66.5917C72.3675 65.6145 71.5731 64.8201 70.5926 64.8201H68.8209V50.8163C68.8209 50.2844 68.9007 49.7593 69.0569 49.2507L71.9754 39.7671C72.2346 38.9228 72.3676 38.0453 72.3676 37.1611V24.0449H77.6859C78.6631 24.0449 79.4576 23.2504 79.4576 22.2732V11.6366C79.4576 10.656 78.6632 9.86161 77.6859 9.86161H72.3676C72.3676 6.92657 69.9843 4.54328 67.0493 4.54328C65.6864 4.54328 64.4433 5.05517 63.5026 5.8995C62.5619 5.05521 61.3188 4.54328 59.9559 4.54328C58.5964 4.54328 57.3533 5.05517 56.4125 5.8995C55.4685 5.05521 54.2287 4.54328 52.8659 4.54328C51.503 4.54328 50.2632 5.05517 49.3192 5.8995C48.3785 5.05521 47.1353 4.54328 45.7758 4.54328C42.8375 4.54328 40.4575 6.92657 40.4575 9.86161H34.2185C31.6058 4.61306 26.1845 1 19.9253 1C13.2342 1 7.49749 5.12506 5.13019 10.9687C4.90749 11.5171 4.97397 12.1387 5.30303 12.6273C5.6321 13.1159 6.18392 13.4084 6.77225 13.4084H18.1501V20.4984H6.77225C6.18391 20.4984 5.63218 20.7909 5.30303 21.2829C4.97396 21.7715 4.90749 22.3897 5.13019 22.9382C7.49681 28.7817 13.234 32.9102 19.9253 32.9102C24.5291 32.9102 28.6806 30.9524 31.5925 27.8312V36.6698C31.5925 37.9529 31.8717 39.2193 32.4068 40.386C33.4306 42.5998 35.3984 46.8644 36.4222 49.0783C36.7446 49.7796 36.9108 50.5375 36.9108 51.3087L36.911 64.8201ZM68.8209 68.3634V75.4567H36.911V68.3634H68.8209ZM65.2743 64.8201V50.8163C65.2743 49.9321 65.4072 49.0546 65.6665 48.2103L68.5849 38.7267C68.7412 38.2181 68.8209 37.693 68.8209 37.1611V9.86152C68.8209 8.88431 68.0265 8.08988 67.0493 8.08988C66.0688 8.08988 65.2743 8.8843 65.2743 9.86152V24.0449C65.2743 25.0221 64.4799 25.8165 63.5027 25.8165C62.5255 25.8165 61.731 25.0221 61.731 24.0449V9.86152C61.731 8.88431 60.9366 8.08988 59.9561 8.08988C58.9789 8.08988 58.1844 8.8843 58.1844 9.86152V24.0449C58.1844 25.0221 57.39 25.8165 56.4128 25.8165C55.4323 25.8165 54.6378 25.0221 54.6378 24.0449V9.86152C54.6378 8.88431 53.8434 8.08988 52.8662 8.08988C51.889 8.08988 51.0946 8.8843 51.0946 9.86152V24.0449C51.0946 25.0221 50.3001 25.8165 49.3196 25.8165C48.3424 25.8165 47.548 25.0221 47.548 24.0449V9.86152C47.548 8.88431 46.7535 8.08988 45.7763 8.08988C44.7958 8.08988 44.0014 8.8843 44.0014 9.86152V24.0449C44.0014 25.0221 43.2069 25.8165 42.2297 25.8165C41.2525 25.8165 40.4581 25.0221 40.4581 24.0449H35.1398V36.6693C35.1398 37.4404 35.306 38.1983 35.6284 38.8997C36.6521 41.1134 38.6199 45.3781 39.6404 47.5919C40.1788 48.7586 40.4581 50.0251 40.4581 51.3081V64.8201H65.2743ZM40.4577 13.4085H33.0718C32.3505 13.4085 31.7024 12.9697 31.4298 12.3016C29.5883 7.75436 25.1276 4.54345 19.9252 4.54345C15.7104 4.54345 11.9843 6.64755 9.74039 9.86178H19.9252C20.9024 9.86178 21.6968 10.6562 21.6968 11.6367V22.2734C21.6968 23.2506 20.9024 24.045 19.9252 24.045H9.74039C11.984 27.2593 15.7102 29.3633 19.9252 29.3633C25.1272 29.3633 29.5875 26.1524 31.4298 21.6052C31.7024 20.9371 32.3505 20.4983 33.0718 20.4983H40.4577V13.4085ZM72.3676 20.4984H75.911V13.4085H72.3676V20.4984Z"/>
</mask>
<path fill-rule="evenodd" clip-rule="evenodd" d="M36.911 64.8201H35.1393C34.1588 64.8201 33.3644 65.6145 33.3644 66.5917V77.2284C33.3644 78.2056 34.1588 79 35.1393 79H70.5926C71.5731 79 72.3675 78.2056 72.3675 77.2284V66.5917C72.3675 65.6145 71.5731 64.8201 70.5926 64.8201H68.8209V50.8163C68.8209 50.2844 68.9007 49.7593 69.0569 49.2507L71.9754 39.7671C72.2346 38.9228 72.3676 38.0453 72.3676 37.1611V24.0449H77.6859C78.6631 24.0449 79.4576 23.2504 79.4576 22.2732V11.6366C79.4576 10.656 78.6632 9.86161 77.6859 9.86161H72.3676C72.3676 6.92657 69.9843 4.54328 67.0493 4.54328C65.6864 4.54328 64.4433 5.05517 63.5026 5.8995C62.5619 5.05521 61.3188 4.54328 59.9559 4.54328C58.5964 4.54328 57.3533 5.05517 56.4125 5.8995C55.4685 5.05521 54.2287 4.54328 52.8659 4.54328C51.503 4.54328 50.2632 5.05517 49.3192 5.8995C48.3785 5.05521 47.1353 4.54328 45.7758 4.54328C42.8375 4.54328 40.4575 6.92657 40.4575 9.86161H34.2185C31.6058 4.61306 26.1845 1 19.9253 1C13.2342 1 7.49749 5.12506 5.13019 10.9687C4.90749 11.5171 4.97397 12.1387 5.30303 12.6273C5.6321 13.1159 6.18392 13.4084 6.77225 13.4084H18.1501V20.4984H6.77225C6.18391 20.4984 5.63218 20.7909 5.30303 21.2829C4.97396 21.7715 4.90749 22.3897 5.13019 22.9382C7.49681 28.7817 13.234 32.9102 19.9253 32.9102C24.5291 32.9102 28.6806 30.9524 31.5925 27.8312V36.6698C31.5925 37.9529 31.8717 39.2193 32.4068 40.386C33.4306 42.5998 35.3984 46.8644 36.4222 49.0783C36.7446 49.7796 36.9108 50.5375 36.9108 51.3087L36.911 64.8201ZM68.8209 68.3634V75.4567H36.911V68.3634H68.8209ZM65.2743 64.8201V50.8163C65.2743 49.9321 65.4072 49.0546 65.6665 48.2103L68.5849 38.7267C68.7412 38.2181 68.8209 37.693 68.8209 37.1611V9.86152C68.8209 8.88431 68.0265 8.08988 67.0493 8.08988C66.0688 8.08988 65.2743 8.8843 65.2743 9.86152V24.0449C65.2743 25.0221 64.4799 25.8165 63.5027 25.8165C62.5255 25.8165 61.731 25.0221 61.731 24.0449V9.86152C61.731 8.88431 60.9366 8.08988 59.9561 8.08988C58.9789 8.08988 58.1844 8.8843 58.1844 9.86152V24.0449C58.1844 25.0221 57.39 25.8165 56.4128 25.8165C55.4323 25.8165 54.6378 25.0221 54.6378 24.0449V9.86152C54.6378 8.88431 53.8434 8.08988 52.8662 8.08988C51.889 8.08988 51.0946 8.8843 51.0946 9.86152V24.0449C51.0946 25.0221 50.3001 25.8165 49.3196 25.8165C48.3424 25.8165 47.548 25.0221 47.548 24.0449V9.86152C47.548 8.88431 46.7535 8.08988 45.7763 8.08988C44.7958 8.08988 44.0014 8.8843 44.0014 9.86152V24.0449C44.0014 25.0221 43.2069 25.8165 42.2297 25.8165C41.2525 25.8165 40.4581 25.0221 40.4581 24.0449H35.1398V36.6693C35.1398 37.4404 35.306 38.1983 35.6284 38.8997C36.6521 41.1134 38.6199 45.3781 39.6404 47.5919C40.1788 48.7586 40.4581 50.0251 40.4581 51.3081V64.8201H65.2743ZM40.4577 13.4085H33.0718C32.3505 13.4085 31.7024 12.9697 31.4298 12.3016C29.5883 7.75436 25.1276 4.54345 19.9252 4.54345C15.7104 4.54345 11.9843 6.64755 9.74039 9.86178H19.9252C20.9024 9.86178 21.6968 10.6562 21.6968 11.6367V22.2734C21.6968 23.2506 20.9024 24.045 19.9252 24.045H9.74039C11.984 27.2593 15.7102 29.3633 19.9252 29.3633C25.1272 29.3633 29.5875 26.1524 31.4298 21.6052C31.7024 20.9371 32.3505 20.4983 33.0718 20.4983H40.4577V13.4085ZM72.3676 20.4984H75.911V13.4085H72.3676V20.4984Z" fill="white" stroke="#003946" stroke-width="0.8" mask="url(#path-1-inside-1_2508_7586)"/>
</svg>
