<svg width="106" height="80" viewBox="0 0 106 80" fill="none" xmlns="http://www.w3.org/2000/svg">
<mask id="path-1-inside-1_2508_7732" fill="white">
<path fill-rule="evenodd" clip-rule="evenodd" d="M42.3713 66.8419H41.9885C39.8294 66.8419 38.0857 68.5774 38.0857 70.7158V75.1261C38.0857 77.2645 39.8293 78.9968 41.9885 79H63.9171C66.0664 78.9967 67.8101 77.2645 67.8101 75.1261V70.7158C67.8101 68.5774 66.0664 66.8419 63.9171 66.8419H63.5376L69.8383 58.7559C71.4642 56.6662 71.8012 53.8517 70.7118 51.4369C67.9213 45.2587 61.4116 30.8775 57.5609 22.3662C56.743 20.5624 54.9437 19.4022 52.9482 19.4022C50.9624 19.4022 49.1534 20.5624 48.3355 22.3662C44.485 30.8775 37.9884 45.2594 35.1946 51.4369C34.1052 53.8516 34.4324 56.6662 36.0681 58.7559L42.3713 66.8419ZM63.9171 70.3096H41.9885C41.7595 70.3096 41.5731 70.4916 41.5731 70.7159V75.1261C41.5731 75.3504 41.7595 75.5324 41.9885 75.5324H63.9171C64.1461 75.5324 64.3228 75.3504 64.3228 75.1261V70.7159C64.3228 70.4916 64.1461 70.3096 63.9171 70.3096ZM54.6914 24.5691V39.9319C57.0371 40.6664 58.7382 42.8471 58.7382 45.4179C58.7382 48.5931 56.1439 51.1704 52.9477 51.1704C49.7516 51.1704 47.1573 48.5931 47.1573 45.4179C47.1573 42.8472 48.8584 40.6664 51.204 39.9319V24.5691L38.4132 52.8735C37.8439 54.1053 38.0206 55.545 38.8581 56.6143L46.8305 66.842H59.0753L67.0477 56.6143C67.8884 55.545 68.052 54.1053 67.4959 52.8735L54.6914 24.5691ZM46.8957 5.28677H28.1604C27.4407 3.23274 25.4681 1.75728 23.1551 1.75728C20.2337 1.75728 17.8554 4.11674 17.8554 7.02223C17.8554 9.92772 20.2337 12.2872 23.1551 12.2872C25.468 12.2872 27.4407 10.8085 28.1604 8.75444H37.9547C27.1462 14.0584 19.5796 24.9134 19.0327 37.5589C16.9521 38.2674 15.4473 40.2336 15.4473 42.5444C15.4473 45.4499 17.8223 47.8093 20.7469 47.8093C23.6781 47.8093 26.0466 45.4499 26.0466 42.5444C26.0466 40.2564 24.5745 38.3097 22.5233 37.5817C23.1874 23.561 33.4725 12.0204 46.9509 9.34299C47.1014 10.2465 47.5398 11.0883 48.1941 11.7447C49.0316 12.5767 50.1668 13.0447 51.3543 13.0447H54.5504C55.7281 13.0447 56.8731 12.5767 57.7008 11.7447C58.3681 11.0882 58.8032 10.2465 58.957 9.34299C72.4354 12.021 82.7172 23.5618 83.3712 37.5817C81.3201 38.3097 79.8479 40.2564 79.8479 42.5444C79.8479 45.4499 82.2262 47.8093 85.1476 47.8093C88.082 47.8093 90.4473 45.4499 90.4473 42.5444C90.4473 40.2337 88.9555 38.2675 86.8716 37.5589C86.3253 24.9101 78.7585 14.0551 67.953 8.75444H77.7439C78.4636 10.8085 80.4265 12.2872 82.7492 12.2872C85.6706 12.2872 88.0489 9.92772 88.0489 7.02223C88.0489 4.11674 85.6706 1.75728 82.7492 1.75728C80.4266 1.75728 78.4637 3.23274 77.7439 5.28677H59.0087C58.9759 4.16549 58.5081 3.09629 57.7001 2.29675C56.8724 1.46475 55.7274 1 54.5497 1H51.3536C50.166 1 49.0309 1.46474 48.1934 2.29675C47.3952 3.09624 46.9274 4.16549 46.8947 5.28677H46.8957ZM52.9478 47.7052C51.6818 47.7052 50.648 46.6814 50.648 45.4172C50.648 44.1562 51.6818 43.1325 52.9478 43.1325C54.2236 43.1325 55.2476 44.1562 55.2476 45.4172C55.2476 46.6814 54.2236 47.7052 52.9478 47.7052ZM85.1481 44.3414C84.1569 44.3414 83.339 43.5354 83.339 42.5442C83.339 41.5497 84.1568 40.7436 85.1481 40.7436C86.1524 40.7436 86.9605 41.5496 86.9605 42.5442C86.9605 43.5354 86.1525 44.3414 85.1481 44.3414ZM20.7475 44.3414C19.753 44.3414 18.9351 43.5354 18.9351 42.5442C18.9351 41.5497 19.753 40.7436 20.7475 40.7436C21.7486 40.7436 22.5566 41.5496 22.5566 42.5442C22.5566 43.5354 21.7486 44.3414 20.7475 44.3414ZM55.5222 8.60476V5.43603C55.5222 5.17928 55.4241 4.93228 55.2376 4.75028C55.0511 4.56828 54.8025 4.46428 54.5506 4.46428H51.3545C51.0927 4.46428 50.8441 4.56828 50.6675 4.75028C50.4843 4.93228 50.373 5.17928 50.373 5.43603V8.60476C50.373 8.86476 50.4843 9.11176 50.6675 9.29376C50.8441 9.47575 51.0927 9.5765 51.3545 9.5765H54.5506C54.8025 9.5765 55.0512 9.47575 55.2376 9.29376C55.4241 9.11176 55.5222 8.86476 55.5222 8.60476ZM82.7504 8.81926C81.7461 8.81926 80.9413 8.01327 80.9413 7.02199C80.9413 6.0275 81.746 5.22147 82.7504 5.22147C83.7416 5.22147 84.5595 6.02746 84.5595 7.02199C84.5595 8.01322 83.7417 8.81926 82.7504 8.81926ZM23.1553 8.81926C22.1542 8.81926 21.3461 8.01327 21.3461 7.02199C21.3461 6.0275 22.1542 5.22147 23.1553 5.22147C24.1596 5.22147 24.9677 6.02746 24.9677 7.02199C24.9677 8.01322 24.1596 8.81926 23.1553 8.81926Z"/>
</mask>
<path fill-rule="evenodd" clip-rule="evenodd" d="M42.3713 66.8419H41.9885C39.8294 66.8419 38.0857 68.5774 38.0857 70.7158V75.1261C38.0857 77.2645 39.8293 78.9968 41.9885 79H63.9171C66.0664 78.9967 67.8101 77.2645 67.8101 75.1261V70.7158C67.8101 68.5774 66.0664 66.8419 63.9171 66.8419H63.5376L69.8383 58.7559C71.4642 56.6662 71.8012 53.8517 70.7118 51.4369C67.9213 45.2587 61.4116 30.8775 57.5609 22.3662C56.743 20.5624 54.9437 19.4022 52.9482 19.4022C50.9624 19.4022 49.1534 20.5624 48.3355 22.3662C44.485 30.8775 37.9884 45.2594 35.1946 51.4369C34.1052 53.8516 34.4324 56.6662 36.0681 58.7559L42.3713 66.8419ZM63.9171 70.3096H41.9885C41.7595 70.3096 41.5731 70.4916 41.5731 70.7159V75.1261C41.5731 75.3504 41.7595 75.5324 41.9885 75.5324H63.9171C64.1461 75.5324 64.3228 75.3504 64.3228 75.1261V70.7159C64.3228 70.4916 64.1461 70.3096 63.9171 70.3096ZM54.6914 24.5691V39.9319C57.0371 40.6664 58.7382 42.8471 58.7382 45.4179C58.7382 48.5931 56.1439 51.1704 52.9477 51.1704C49.7516 51.1704 47.1573 48.5931 47.1573 45.4179C47.1573 42.8472 48.8584 40.6664 51.204 39.9319V24.5691L38.4132 52.8735C37.8439 54.1053 38.0206 55.545 38.8581 56.6143L46.8305 66.842H59.0753L67.0477 56.6143C67.8884 55.545 68.052 54.1053 67.4959 52.8735L54.6914 24.5691ZM46.8957 5.28677H28.1604C27.4407 3.23274 25.4681 1.75728 23.1551 1.75728C20.2337 1.75728 17.8554 4.11674 17.8554 7.02223C17.8554 9.92772 20.2337 12.2872 23.1551 12.2872C25.468 12.2872 27.4407 10.8085 28.1604 8.75444H37.9547C27.1462 14.0584 19.5796 24.9134 19.0327 37.5589C16.9521 38.2674 15.4473 40.2336 15.4473 42.5444C15.4473 45.4499 17.8223 47.8093 20.7469 47.8093C23.6781 47.8093 26.0466 45.4499 26.0466 42.5444C26.0466 40.2564 24.5745 38.3097 22.5233 37.5817C23.1874 23.561 33.4725 12.0204 46.9509 9.34299C47.1014 10.2465 47.5398 11.0883 48.1941 11.7447C49.0316 12.5767 50.1668 13.0447 51.3543 13.0447H54.5504C55.7281 13.0447 56.8731 12.5767 57.7008 11.7447C58.3681 11.0882 58.8032 10.2465 58.957 9.34299C72.4354 12.021 82.7172 23.5618 83.3712 37.5817C81.3201 38.3097 79.8479 40.2564 79.8479 42.5444C79.8479 45.4499 82.2262 47.8093 85.1476 47.8093C88.082 47.8093 90.4473 45.4499 90.4473 42.5444C90.4473 40.2337 88.9555 38.2675 86.8716 37.5589C86.3253 24.9101 78.7585 14.0551 67.953 8.75444H77.7439C78.4636 10.8085 80.4265 12.2872 82.7492 12.2872C85.6706 12.2872 88.0489 9.92772 88.0489 7.02223C88.0489 4.11674 85.6706 1.75728 82.7492 1.75728C80.4266 1.75728 78.4637 3.23274 77.7439 5.28677H59.0087C58.9759 4.16549 58.5081 3.09629 57.7001 2.29675C56.8724 1.46475 55.7274 1 54.5497 1H51.3536C50.166 1 49.0309 1.46474 48.1934 2.29675C47.3952 3.09624 46.9274 4.16549 46.8947 5.28677H46.8957ZM52.9478 47.7052C51.6818 47.7052 50.648 46.6814 50.648 45.4172C50.648 44.1562 51.6818 43.1325 52.9478 43.1325C54.2236 43.1325 55.2476 44.1562 55.2476 45.4172C55.2476 46.6814 54.2236 47.7052 52.9478 47.7052ZM85.1481 44.3414C84.1569 44.3414 83.339 43.5354 83.339 42.5442C83.339 41.5497 84.1568 40.7436 85.1481 40.7436C86.1524 40.7436 86.9605 41.5496 86.9605 42.5442C86.9605 43.5354 86.1525 44.3414 85.1481 44.3414ZM20.7475 44.3414C19.753 44.3414 18.9351 43.5354 18.9351 42.5442C18.9351 41.5497 19.753 40.7436 20.7475 40.7436C21.7486 40.7436 22.5566 41.5496 22.5566 42.5442C22.5566 43.5354 21.7486 44.3414 20.7475 44.3414ZM55.5222 8.60476V5.43603C55.5222 5.17928 55.4241 4.93228 55.2376 4.75028C55.0511 4.56828 54.8025 4.46428 54.5506 4.46428H51.3545C51.0927 4.46428 50.8441 4.56828 50.6675 4.75028C50.4843 4.93228 50.373 5.17928 50.373 5.43603V8.60476C50.373 8.86476 50.4843 9.11176 50.6675 9.29376C50.8441 9.47575 51.0927 9.5765 51.3545 9.5765H54.5506C54.8025 9.5765 55.0512 9.47575 55.2376 9.29376C55.4241 9.11176 55.5222 8.86476 55.5222 8.60476ZM82.7504 8.81926C81.7461 8.81926 80.9413 8.01327 80.9413 7.02199C80.9413 6.0275 81.746 5.22147 82.7504 5.22147C83.7416 5.22147 84.5595 6.02746 84.5595 7.02199C84.5595 8.01322 83.7417 8.81926 82.7504 8.81926ZM23.1553 8.81926C22.1542 8.81926 21.3461 8.01327 21.3461 7.02199C21.3461 6.0275 22.1542 5.22147 23.1553 5.22147C24.1596 5.22147 24.9677 6.02746 24.9677 7.02199C24.9677 8.01322 24.1596 8.81926 23.1553 8.81926Z" fill="white" stroke="#003946" mask="url(#path-1-inside-1_2508_7732)"/>
</svg>
