<svg width="53" height="50" viewBox="0 0 53 50" fill="none" xmlns="http://www.w3.org/2000/svg">
<mask id="path-1-inside-1_2476_6290" fill="white">
<path fill-rule="evenodd" clip-rule="evenodd" d="M34.0293 14.5347C28.9366 18.3018 24.3338 19.6392 20.2162 18.5488C16.0817 17.4543 12.5192 13.9236 9.52433 7.95661C9.39981 7.70965 9.3787 7.43549 9.44624 7.18435C9.51378 6.9353 9.66995 6.70927 9.90423 6.55439C12.1793 5.05797 14.3342 3.95712 16.3667 3.25183C16.3899 3.24136 16.4131 3.23299 16.4384 3.22671C19.3805 2.21587 22.0694 2.03376 24.5028 2.68258C28.65 3.78762 31.9848 7.27432 34.5004 13.1425C34.5089 13.1613 34.5152 13.1801 34.5237 13.199C34.9352 13.3957 35.3404 13.6092 35.7351 13.8331C34.5637 11.194 34.3569 8.82279 35.1167 6.71753C35.2138 6.45174 35.3257 6.19012 35.4523 5.93273C35.4607 5.91598 35.4692 5.89715 35.4776 5.8804C36.6722 3.51336 39.1816 1.57536 43.0061 0.0683415C43.234 -0.0216523 43.4767 -0.0195574 43.6941 0.0557846C43.9136 0.13322 44.1035 0.286001 44.2196 0.499469C46.4272 4.48637 47.0329 7.85563 46.0326 10.6058C45.1145 13.134 42.871 15.0782 39.3064 16.4387C40.5158 17.55 41.5816 18.8099 42.4744 20.1912C44.4245 23.207 45.5578 26.7898 45.5578 30.6345C45.5578 35.9818 43.3713 40.8249 39.8383 44.3283C36.3052 47.8339 31.4216 50 26.0289 50C20.6365 50 15.7525 47.8318 12.2195 44.3283C8.68441 40.8248 6.5 35.982 6.5 30.6345C6.5 29.8141 6.55276 29.0062 6.65196 28.211C6.75326 27.401 6.90733 26.6057 7.10572 25.8314C7.2028 25.4526 7.59114 25.2224 7.97316 25.3186C8.35516 25.4149 8.58731 25.8 8.49024 26.1788C8.30451 26.8967 8.1631 27.6333 8.07024 28.3826C7.97738 29.1193 7.92884 29.8706 7.92884 30.6345C7.92884 35.5904 9.95494 40.0775 13.2305 43.3259C16.506 46.5743 21.0312 48.5832 26.0289 48.5832C31.0266 48.5832 35.5516 46.574 38.8274 43.3259C42.1032 40.0778 44.129 35.5904 44.129 30.6345C44.129 27.0683 43.0822 23.7472 41.2756 20.9553C40.2415 19.3563 38.9583 17.9311 37.4809 16.734C37.386 16.6816 37.2994 16.6126 37.2256 16.5309C36.2379 15.7629 35.1678 15.0911 34.0302 14.5343L34.0293 14.5347ZM21.6847 22.3141L21.1043 21.3179C20.9059 20.981 20.4712 20.8638 20.1293 21.0605C19.7895 21.2572 19.6713 21.6884 19.8697 22.0274L20.45 23.0236C20.6484 23.3606 21.0832 23.4778 21.4251 23.2811C21.7649 23.0843 21.881 22.6511 21.6847 22.3141ZM17.5207 25.9243L16.516 25.3488C16.1763 25.1542 15.7415 25.2714 15.5452 25.6083C15.3489 25.9453 15.4671 26.3764 15.8069 26.5711L16.8115 27.1466C17.1513 27.3412 17.5861 27.224 17.7824 26.8871C17.9787 26.5501 17.8605 26.119 17.5207 25.9243ZM15.7373 31.1146H14.5786C14.1861 31.1146 13.8674 31.4307 13.8674 31.8199C13.8674 32.2092 14.1861 32.5252 14.5786 32.5252H15.7373C16.1298 32.5252 16.4485 32.2092 16.4485 31.8199C16.4485 31.4307 16.1298 31.1146 15.7373 31.1146ZM37.0556 32.5273H38.2143C38.6068 32.5273 38.9255 32.2113 38.9255 31.822C38.9255 31.4328 38.6068 31.1167 38.2143 31.1167H37.0556C36.6631 31.1167 36.3444 31.4328 36.3444 31.822C36.3444 32.2113 36.6631 32.5273 37.0556 32.5273ZM35.9835 27.1487L36.9881 26.5732C37.3279 26.3785 37.4461 25.9474 37.2498 25.6104C37.0535 25.2735 36.6187 25.1563 36.2789 25.3509L35.2743 25.9264C34.9345 26.1211 34.8163 26.5522 35.0126 26.8892C35.2068 27.2261 35.6416 27.3433 35.9835 27.1487ZM32.3428 23.0195L32.9232 22.0233C33.1195 21.6863 33.0013 21.2552 32.6615 21.0605C32.3217 20.8659 31.8869 20.9831 31.6906 21.3201L31.1103 22.3163C30.914 22.6532 31.0322 23.0844 31.372 23.279C31.7118 23.4736 32.1486 23.3564 32.3428 23.0195ZM27.1108 21.251V20.1C27.1108 19.7086 26.7921 19.3905 26.3954 19.3905C26.0007 19.3905 25.6799 19.7086 25.6799 20.1V21.251C25.6799 21.6424 26.0007 21.9605 26.3954 21.9605C26.7921 21.9605 27.1108 21.6424 27.1108 21.251ZM28.9765 45.1808C29.3015 45.095 29.5949 44.9568 29.8418 44.7789C30.3315 44.4252 30.6354 43.9167 30.6354 43.3432V43.1779C30.9457 43.1005 31.2137 42.9121 31.4184 42.6463C31.6485 42.347 31.7899 41.9473 31.7899 41.5161V41.4722C31.7899 41.0411 31.6485 40.6392 31.4184 40.342C31.22 40.0846 30.9583 39.8983 30.6565 39.8167C30.686 39.7079 30.7261 39.6053 30.7789 39.5112C30.895 39.2977 31.0702 39.1114 31.3002 38.9629C32.537 38.1613 33.5606 37.0583 34.2676 35.7587C34.9493 34.5072 35.3377 33.0735 35.3377 31.5541C35.3377 29.1054 34.3372 26.8891 32.7185 25.2861C31.0997 23.6809 28.8647 22.6888 26.3976 22.6888C23.9283 22.6888 21.6932 23.6809 20.0767 25.2861C18.4579 26.8892 17.4575 29.1056 17.4575 31.5541C17.4575 33.0735 17.8437 34.505 18.5276 35.7587C19.2346 37.0563 20.2582 38.1592 21.495 38.9629C21.7229 39.1115 21.9002 39.2977 22.0163 39.5112C22.069 39.6074 22.1091 39.71 22.1387 39.8167C21.8369 39.8983 21.5751 40.0846 21.3767 40.342C21.1467 40.6413 21.0053 41.0411 21.0053 41.4722V41.5161C21.0053 41.9473 21.1467 42.3491 21.3767 42.6463C21.5878 42.9205 21.8706 43.113 22.1935 43.1863V43.3432C22.1935 43.9187 22.4974 44.4252 22.9871 44.7789C23.2319 44.9568 23.5274 45.095 23.8524 45.1808C23.9495 45.6433 24.1838 46.0577 24.5088 46.3821C24.9456 46.8153 25.5472 47.0832 26.2119 47.0832H26.6172C27.282 47.0832 27.8835 46.8153 28.3203 46.3821C28.6475 46.0577 28.8795 45.6433 28.9765 45.1808ZM25.4287 45.277C25.4562 45.3126 25.4857 45.3482 25.5195 45.3796C25.6968 45.5554 25.9437 45.6663 26.2117 45.6663H26.6169C26.8871 45.6663 27.1319 45.5575 27.3091 45.3796C27.3408 45.3482 27.3725 45.3126 27.3999 45.277H25.4287ZM23.6221 43.2176V43.3432C23.6221 43.4437 23.7002 43.5483 23.8226 43.6404C24.0125 43.7764 24.2869 43.8622 24.6014 43.8622H28.223C28.5396 43.8622 28.814 43.7764 29.0018 43.6404C29.1263 43.5504 29.2044 43.4437 29.2044 43.3432V43.2176H23.6221ZM23.5862 39.7707H29.2064C29.2591 39.44 29.3646 39.1282 29.5208 38.8394C29.7509 38.4166 30.0886 38.0546 30.5148 37.7762C31.5553 37.1002 32.4164 36.1751 33.0074 35.0869C33.5793 34.0383 33.9044 32.8329 33.9044 31.552C33.9044 29.4947 33.0644 27.6321 31.7052 26.2843C30.3461 24.9365 28.4677 24.1035 26.3952 24.1035C24.3205 24.1035 22.4443 24.9365 21.0851 26.2843C19.7259 27.6321 18.886 29.4947 18.886 31.552C18.886 32.8328 19.211 34.0362 19.7829 35.0869C20.376 36.1751 21.235 37.1002 22.2755 37.7762C22.7039 38.0545 23.0395 38.4166 23.2717 38.8394C23.4279 39.1282 23.5335 39.44 23.5862 39.7707ZM30.3102 41.1875H30.2996L30.2912 41.1938C30.3038 41.1896 30.3292 41.1875 30.3102 41.1875ZM30.2996 41.1875H22.4929L22.5014 41.1938C22.5056 41.1959 22.5098 41.198 22.5077 41.2001C22.4613 41.2608 22.4317 41.3571 22.4317 41.4722V41.5161C22.4317 41.6312 22.4613 41.7275 22.5077 41.7882C22.5098 41.7903 22.5056 41.7924 22.5014 41.7945L22.4929 41.8007H30.2996L30.2912 41.7945C30.2848 41.7924 30.2827 41.7903 30.2848 41.7882C30.3313 41.7275 30.3608 41.6312 30.3608 41.5161V41.4722C30.3608 41.3571 30.3313 41.2608 30.2848 41.2001C30.2827 41.198 30.287 41.1959 30.2912 41.1938L30.2996 41.1875ZM22.4929 41.1875H22.4824C22.4655 41.1875 22.4887 41.1896 22.5014 41.1938L22.4929 41.1875ZM30.3104 41.8007C30.3273 41.8007 30.3038 41.7986 30.2912 41.7945L30.2996 41.8007L30.3104 41.8007ZM22.4826 41.8007L22.4929 41.8007L22.5014 41.7945C22.4887 41.7986 22.4658 41.8007 22.4826 41.8007ZM29.0505 27.2197C29.1053 27.1192 29.137 27.0041 29.137 26.8827C29.137 26.4914 28.8183 26.1733 28.4215 26.1733H26.1991V26.1774C25.948 26.1774 25.7032 26.3114 25.5745 26.5458L22.4657 32.1714C22.4023 32.2802 22.3686 32.4079 22.3707 32.5418C22.3812 32.9311 22.7084 33.2388 23.101 33.2283L24.4411 33.1885L23.388 36.5496H23.3901C23.312 36.8029 23.3817 37.0896 23.5927 37.28C23.884 37.5416 24.3335 37.5186 24.5974 37.2298L30.2218 31.0641C30.3463 30.9365 30.4202 30.7628 30.4202 30.5723C30.4181 30.183 30.0994 29.867 29.7047 29.8691L27.7377 29.8838L29.0505 27.2197ZM25.9543 30.2899L27.2776 27.5922H26.617L24.3017 31.7821L25.3654 31.7507C25.452 31.7444 25.5385 31.7549 25.625 31.78C26.0007 31.8951 26.2117 32.2907 26.0957 32.6632L25.7052 33.9126L28.0944 31.2944L26.6571 31.3049C26.5325 31.3154 26.4017 31.2944 26.2814 31.2358C25.9289 31.0642 25.7812 30.6415 25.9543 30.2899ZM40.0084 12.3142C40.0042 12.3268 40 12.3393 39.9958 12.3519L39.0228 15.0328C42.0514 13.8357 43.9424 12.2033 44.6937 10.1355C45.0103 9.267 45.1285 8.31269 45.0546 7.27039L41.2958 8.76263L40.0084 12.3142ZM38.5543 12.1531L36.239 7.94847C35.8211 9.85507 36.3023 12.0568 37.6826 14.5578L38.5543 12.1531ZM36.9102 6.22205L39.198 10.3785L40.0527 8.02193C40.0591 7.99681 40.0696 7.97379 40.0802 7.94868L42.2646 1.92552C39.6454 3.12892 37.8599 4.56035 36.9102 6.22205ZM41.9416 6.98387L44.8394 5.83281C44.603 4.76754 44.1915 3.62484 43.6005 2.40472L41.9416 6.98387ZM27.7589 12.7831L20.9123 17.2597C24.2871 18.0257 28.0988 16.9395 32.3406 13.9991L27.7589 12.7831ZM19.1926 16.6946L25.9187 12.2955L20.3915 10.8263L15.1427 13.7647C16.4237 15.0999 17.7722 16.0772 19.1926 16.6946ZM26.2904 10.9287L22.6835 3.78359C21.1407 3.61407 19.4819 3.79196 17.7006 4.31308L20.7651 9.46363L26.2904 10.9287ZM24.4564 4.14363L28.1266 11.4162L32.7086 12.6342C30.5157 7.98389 27.7655 5.15249 24.4564 4.14363ZM14.1865 12.6828L18.4308 10.3053L11.3816 8.43217C12.2722 10.0709 13.2072 11.4877 14.1865 12.6828ZM18.798 8.93863L16.3203 4.77595C14.8703 5.32426 13.3466 6.08816 11.7489 7.06552L18.798 8.93863Z"/>
</mask>
<path fill-rule="evenodd" clip-rule="evenodd" d="M34.0293 14.5347C28.9366 18.3018 24.3338 19.6392 20.2162 18.5488C16.0817 17.4543 12.5192 13.9236 9.52433 7.95661C9.39981 7.70965 9.3787 7.43549 9.44624 7.18435C9.51378 6.9353 9.66995 6.70927 9.90423 6.55439C12.1793 5.05797 14.3342 3.95712 16.3667 3.25183C16.3899 3.24136 16.4131 3.23299 16.4384 3.22671C19.3805 2.21587 22.0694 2.03376 24.5028 2.68258C28.65 3.78762 31.9848 7.27432 34.5004 13.1425C34.5089 13.1613 34.5152 13.1801 34.5237 13.199C34.9352 13.3957 35.3404 13.6092 35.7351 13.8331C34.5637 11.194 34.3569 8.82279 35.1167 6.71753C35.2138 6.45174 35.3257 6.19012 35.4523 5.93273C35.4607 5.91598 35.4692 5.89715 35.4776 5.8804C36.6722 3.51336 39.1816 1.57536 43.0061 0.0683415C43.234 -0.0216523 43.4767 -0.0195574 43.6941 0.0557846C43.9136 0.13322 44.1035 0.286001 44.2196 0.499469C46.4272 4.48637 47.0329 7.85563 46.0326 10.6058C45.1145 13.134 42.871 15.0782 39.3064 16.4387C40.5158 17.55 41.5816 18.8099 42.4744 20.1912C44.4245 23.207 45.5578 26.7898 45.5578 30.6345C45.5578 35.9818 43.3713 40.8249 39.8383 44.3283C36.3052 47.8339 31.4216 50 26.0289 50C20.6365 50 15.7525 47.8318 12.2195 44.3283C8.68441 40.8248 6.5 35.982 6.5 30.6345C6.5 29.8141 6.55276 29.0062 6.65196 28.211C6.75326 27.401 6.90733 26.6057 7.10572 25.8314C7.2028 25.4526 7.59114 25.2224 7.97316 25.3186C8.35516 25.4149 8.58731 25.8 8.49024 26.1788C8.30451 26.8967 8.1631 27.6333 8.07024 28.3826C7.97738 29.1193 7.92884 29.8706 7.92884 30.6345C7.92884 35.5904 9.95494 40.0775 13.2305 43.3259C16.506 46.5743 21.0312 48.5832 26.0289 48.5832C31.0266 48.5832 35.5516 46.574 38.8274 43.3259C42.1032 40.0778 44.129 35.5904 44.129 30.6345C44.129 27.0683 43.0822 23.7472 41.2756 20.9553C40.2415 19.3563 38.9583 17.9311 37.4809 16.734C37.386 16.6816 37.2994 16.6126 37.2256 16.5309C36.2379 15.7629 35.1678 15.0911 34.0302 14.5343L34.0293 14.5347ZM21.6847 22.3141L21.1043 21.3179C20.9059 20.981 20.4712 20.8638 20.1293 21.0605C19.7895 21.2572 19.6713 21.6884 19.8697 22.0274L20.45 23.0236C20.6484 23.3606 21.0832 23.4778 21.4251 23.2811C21.7649 23.0843 21.881 22.6511 21.6847 22.3141ZM17.5207 25.9243L16.516 25.3488C16.1763 25.1542 15.7415 25.2714 15.5452 25.6083C15.3489 25.9453 15.4671 26.3764 15.8069 26.5711L16.8115 27.1466C17.1513 27.3412 17.5861 27.224 17.7824 26.8871C17.9787 26.5501 17.8605 26.119 17.5207 25.9243ZM15.7373 31.1146H14.5786C14.1861 31.1146 13.8674 31.4307 13.8674 31.8199C13.8674 32.2092 14.1861 32.5252 14.5786 32.5252H15.7373C16.1298 32.5252 16.4485 32.2092 16.4485 31.8199C16.4485 31.4307 16.1298 31.1146 15.7373 31.1146ZM37.0556 32.5273H38.2143C38.6068 32.5273 38.9255 32.2113 38.9255 31.822C38.9255 31.4328 38.6068 31.1167 38.2143 31.1167H37.0556C36.6631 31.1167 36.3444 31.4328 36.3444 31.822C36.3444 32.2113 36.6631 32.5273 37.0556 32.5273ZM35.9835 27.1487L36.9881 26.5732C37.3279 26.3785 37.4461 25.9474 37.2498 25.6104C37.0535 25.2735 36.6187 25.1563 36.2789 25.3509L35.2743 25.9264C34.9345 26.1211 34.8163 26.5522 35.0126 26.8892C35.2068 27.2261 35.6416 27.3433 35.9835 27.1487ZM32.3428 23.0195L32.9232 22.0233C33.1195 21.6863 33.0013 21.2552 32.6615 21.0605C32.3217 20.8659 31.8869 20.9831 31.6906 21.3201L31.1103 22.3163C30.914 22.6532 31.0322 23.0844 31.372 23.279C31.7118 23.4736 32.1486 23.3564 32.3428 23.0195ZM27.1108 21.251V20.1C27.1108 19.7086 26.7921 19.3905 26.3954 19.3905C26.0007 19.3905 25.6799 19.7086 25.6799 20.1V21.251C25.6799 21.6424 26.0007 21.9605 26.3954 21.9605C26.7921 21.9605 27.1108 21.6424 27.1108 21.251ZM28.9765 45.1808C29.3015 45.095 29.5949 44.9568 29.8418 44.7789C30.3315 44.4252 30.6354 43.9167 30.6354 43.3432V43.1779C30.9457 43.1005 31.2137 42.9121 31.4184 42.6463C31.6485 42.347 31.7899 41.9473 31.7899 41.5161V41.4722C31.7899 41.0411 31.6485 40.6392 31.4184 40.342C31.22 40.0846 30.9583 39.8983 30.6565 39.8167C30.686 39.7079 30.7261 39.6053 30.7789 39.5112C30.895 39.2977 31.0702 39.1114 31.3002 38.9629C32.537 38.1613 33.5606 37.0583 34.2676 35.7587C34.9493 34.5072 35.3377 33.0735 35.3377 31.5541C35.3377 29.1054 34.3372 26.8891 32.7185 25.2861C31.0997 23.6809 28.8647 22.6888 26.3976 22.6888C23.9283 22.6888 21.6932 23.6809 20.0767 25.2861C18.4579 26.8892 17.4575 29.1056 17.4575 31.5541C17.4575 33.0735 17.8437 34.505 18.5276 35.7587C19.2346 37.0563 20.2582 38.1592 21.495 38.9629C21.7229 39.1115 21.9002 39.2977 22.0163 39.5112C22.069 39.6074 22.1091 39.71 22.1387 39.8167C21.8369 39.8983 21.5751 40.0846 21.3767 40.342C21.1467 40.6413 21.0053 41.0411 21.0053 41.4722V41.5161C21.0053 41.9473 21.1467 42.3491 21.3767 42.6463C21.5878 42.9205 21.8706 43.113 22.1935 43.1863V43.3432C22.1935 43.9187 22.4974 44.4252 22.9871 44.7789C23.2319 44.9568 23.5274 45.095 23.8524 45.1808C23.9495 45.6433 24.1838 46.0577 24.5088 46.3821C24.9456 46.8153 25.5472 47.0832 26.2119 47.0832H26.6172C27.282 47.0832 27.8835 46.8153 28.3203 46.3821C28.6475 46.0577 28.8795 45.6433 28.9765 45.1808ZM25.4287 45.277C25.4562 45.3126 25.4857 45.3482 25.5195 45.3796C25.6968 45.5554 25.9437 45.6663 26.2117 45.6663H26.6169C26.8871 45.6663 27.1319 45.5575 27.3091 45.3796C27.3408 45.3482 27.3725 45.3126 27.3999 45.277H25.4287ZM23.6221 43.2176V43.3432C23.6221 43.4437 23.7002 43.5483 23.8226 43.6404C24.0125 43.7764 24.2869 43.8622 24.6014 43.8622H28.223C28.5396 43.8622 28.814 43.7764 29.0018 43.6404C29.1263 43.5504 29.2044 43.4437 29.2044 43.3432V43.2176H23.6221ZM23.5862 39.7707H29.2064C29.2591 39.44 29.3646 39.1282 29.5208 38.8394C29.7509 38.4166 30.0886 38.0546 30.5148 37.7762C31.5553 37.1002 32.4164 36.1751 33.0074 35.0869C33.5793 34.0383 33.9044 32.8329 33.9044 31.552C33.9044 29.4947 33.0644 27.6321 31.7052 26.2843C30.3461 24.9365 28.4677 24.1035 26.3952 24.1035C24.3205 24.1035 22.4443 24.9365 21.0851 26.2843C19.7259 27.6321 18.886 29.4947 18.886 31.552C18.886 32.8328 19.211 34.0362 19.7829 35.0869C20.376 36.1751 21.235 37.1002 22.2755 37.7762C22.7039 38.0545 23.0395 38.4166 23.2717 38.8394C23.4279 39.1282 23.5335 39.44 23.5862 39.7707ZM30.3102 41.1875H30.2996L30.2912 41.1938C30.3038 41.1896 30.3292 41.1875 30.3102 41.1875ZM30.2996 41.1875H22.4929L22.5014 41.1938C22.5056 41.1959 22.5098 41.198 22.5077 41.2001C22.4613 41.2608 22.4317 41.3571 22.4317 41.4722V41.5161C22.4317 41.6312 22.4613 41.7275 22.5077 41.7882C22.5098 41.7903 22.5056 41.7924 22.5014 41.7945L22.4929 41.8007H30.2996L30.2912 41.7945C30.2848 41.7924 30.2827 41.7903 30.2848 41.7882C30.3313 41.7275 30.3608 41.6312 30.3608 41.5161V41.4722C30.3608 41.3571 30.3313 41.2608 30.2848 41.2001C30.2827 41.198 30.287 41.1959 30.2912 41.1938L30.2996 41.1875ZM22.4929 41.1875H22.4824C22.4655 41.1875 22.4887 41.1896 22.5014 41.1938L22.4929 41.1875ZM30.3104 41.8007C30.3273 41.8007 30.3038 41.7986 30.2912 41.7945L30.2996 41.8007L30.3104 41.8007ZM22.4826 41.8007L22.4929 41.8007L22.5014 41.7945C22.4887 41.7986 22.4658 41.8007 22.4826 41.8007ZM29.0505 27.2197C29.1053 27.1192 29.137 27.0041 29.137 26.8827C29.137 26.4914 28.8183 26.1733 28.4215 26.1733H26.1991V26.1774C25.948 26.1774 25.7032 26.3114 25.5745 26.5458L22.4657 32.1714C22.4023 32.2802 22.3686 32.4079 22.3707 32.5418C22.3812 32.9311 22.7084 33.2388 23.101 33.2283L24.4411 33.1885L23.388 36.5496H23.3901C23.312 36.8029 23.3817 37.0896 23.5927 37.28C23.884 37.5416 24.3335 37.5186 24.5974 37.2298L30.2218 31.0641C30.3463 30.9365 30.4202 30.7628 30.4202 30.5723C30.4181 30.183 30.0994 29.867 29.7047 29.8691L27.7377 29.8838L29.0505 27.2197ZM25.9543 30.2899L27.2776 27.5922H26.617L24.3017 31.7821L25.3654 31.7507C25.452 31.7444 25.5385 31.7549 25.625 31.78C26.0007 31.8951 26.2117 32.2907 26.0957 32.6632L25.7052 33.9126L28.0944 31.2944L26.6571 31.3049C26.5325 31.3154 26.4017 31.2944 26.2814 31.2358C25.9289 31.0642 25.7812 30.6415 25.9543 30.2899ZM40.0084 12.3142C40.0042 12.3268 40 12.3393 39.9958 12.3519L39.0228 15.0328C42.0514 13.8357 43.9424 12.2033 44.6937 10.1355C45.0103 9.267 45.1285 8.31269 45.0546 7.27039L41.2958 8.76263L40.0084 12.3142ZM38.5543 12.1531L36.239 7.94847C35.8211 9.85507 36.3023 12.0568 37.6826 14.5578L38.5543 12.1531ZM36.9102 6.22205L39.198 10.3785L40.0527 8.02193C40.0591 7.99681 40.0696 7.97379 40.0802 7.94868L42.2646 1.92552C39.6454 3.12892 37.8599 4.56035 36.9102 6.22205ZM41.9416 6.98387L44.8394 5.83281C44.603 4.76754 44.1915 3.62484 43.6005 2.40472L41.9416 6.98387ZM27.7589 12.7831L20.9123 17.2597C24.2871 18.0257 28.0988 16.9395 32.3406 13.9991L27.7589 12.7831ZM19.1926 16.6946L25.9187 12.2955L20.3915 10.8263L15.1427 13.7647C16.4237 15.0999 17.7722 16.0772 19.1926 16.6946ZM26.2904 10.9287L22.6835 3.78359C21.1407 3.61407 19.4819 3.79196 17.7006 4.31308L20.7651 9.46363L26.2904 10.9287ZM24.4564 4.14363L28.1266 11.4162L32.7086 12.6342C30.5157 7.98389 27.7655 5.15249 24.4564 4.14363ZM14.1865 12.6828L18.4308 10.3053L11.3816 8.43217C12.2722 10.0709 13.2072 11.4877 14.1865 12.6828ZM18.798 8.93863L16.3203 4.77595C14.8703 5.32426 13.3466 6.08816 11.7489 7.06552L18.798 8.93863Z" fill="#003946"/>
<path d="M30.2996 41.1875L30.2698 41.1474L30.2613 41.1537L30.2912 41.1938L30.321 41.2339L30.3295 41.2277L30.2996 41.1875ZM22.4929 41.1875L22.4631 41.2277L22.4715 41.2339L22.5014 41.1938L22.5312 41.1537L22.5228 41.1474L22.4929 41.1875ZM22.5014 41.7945L22.4715 41.7543L22.4631 41.7606L22.4929 41.8007L22.5228 41.8409L22.5312 41.8346L22.5014 41.7945ZM30.2996 41.8007L30.3295 41.7606L30.321 41.7543L30.2912 41.7945L30.2613 41.8346L30.2698 41.8409L30.2996 41.8007ZM34.0293 14.5347L33.9893 14.4431L33.979 14.4476L33.9699 14.4543L34.0293 14.5347ZM20.2162 18.5488L20.2418 18.4522H20.2418L20.2162 18.5488ZM9.52433 7.95661L9.6137 7.91175L9.61362 7.91159L9.52433 7.95661ZM9.44624 7.18435L9.34973 7.15818L9.34967 7.15838L9.44624 7.18435ZM9.90423 6.55439L9.84927 6.47084L9.84908 6.47097L9.90423 6.55439ZM16.3667 3.25183L16.3996 3.34668L16.4078 3.343L16.3667 3.25183ZM16.4384 3.22671L16.4626 3.32415L16.4709 3.32129L16.4384 3.22671ZM24.5028 2.68258L24.4771 2.77921L24.4771 2.77921L24.5028 2.68258ZM34.5004 13.1425L34.4085 13.1819L34.4092 13.1834L34.5004 13.1425ZM34.5237 13.199L34.4324 13.2399L34.4474 13.2734L34.4805 13.2892L34.5237 13.199ZM35.7351 13.8331L35.6857 13.9201L35.9495 14.0698L35.8265 13.7926L35.7351 13.8331ZM35.1167 6.71753L35.0228 6.68322L35.0227 6.68358L35.1167 6.71753ZM35.4523 5.93273L35.363 5.8877L35.3626 5.88858L35.4523 5.93273ZM35.4776 5.8804L35.3884 5.83535L35.3883 5.83538L35.4776 5.8804ZM43.0061 0.0683415L43.0427 0.161379L43.0428 0.161355L43.0061 0.0683415ZM43.6941 0.0557846L43.7274 -0.0385204L43.7268 -0.0387006L43.6941 0.0557846ZM44.2196 0.499469L44.1318 0.547243L44.1321 0.54791L44.2196 0.499469ZM46.0326 10.6058L45.9386 10.5716L45.9386 10.5716L46.0326 10.6058ZM39.3064 16.4387L39.2708 16.3453L39.1197 16.4029L39.2388 16.5123L39.3064 16.4387ZM42.4744 20.1912L42.3904 20.2455L42.3904 20.2455L42.4744 20.1912ZM39.8383 44.3283L39.7678 44.2573L39.7678 44.2573L39.8383 44.3283ZM12.2195 44.3283L12.29 44.2573L12.2899 44.2573L12.2195 44.3283ZM6.65196 28.211L6.55273 28.1986L6.55273 28.1986L6.65196 28.211ZM7.10572 25.8314L7.00885 25.8066L7.00885 25.8066L7.10572 25.8314ZM7.97316 25.3186L7.9976 25.2217L7.99759 25.2217L7.97316 25.3186ZM8.49024 26.1788L8.58705 26.2039L8.58711 26.2037L8.49024 26.1788ZM8.07024 28.3826L8.16946 28.3951L8.16948 28.3949L8.07024 28.3826ZM41.2756 20.9553L41.1917 21.0096L41.1917 21.0096L41.2756 20.9553ZM37.4809 16.734L37.5439 16.6563L37.537 16.6507L37.5292 16.6464L37.4809 16.734ZM37.2256 16.5309L37.2997 16.4638L37.2939 16.4574L37.287 16.452L37.2256 16.5309ZM34.0302 14.5343L34.0742 14.4445L34.0326 14.4242L33.9902 14.4427L34.0302 14.5343ZM21.6847 22.3141L21.7711 22.2638L21.7711 22.2638L21.6847 22.3141ZM21.1043 21.3179L21.1907 21.2676L21.1905 21.2672L21.1043 21.3179ZM20.1293 21.0605L20.0794 20.9738L20.0792 20.974L20.1293 21.0605ZM19.8697 22.0274L19.9561 21.9771L19.956 21.9769L19.8697 22.0274ZM20.45 23.0236L20.3636 23.074L20.3639 23.0744L20.45 23.0236ZM21.4251 23.2811L21.475 23.3677L21.4752 23.3676L21.4251 23.2811ZM17.5207 25.9243L17.471 26.0111L17.471 26.0111L17.5207 25.9243ZM16.516 25.3488L16.5658 25.262L16.5658 25.262L16.516 25.3488ZM15.5452 25.6083L15.4588 25.558L15.4588 25.558L15.5452 25.6083ZM15.8069 26.5711L15.8566 26.4843H15.8566L15.8069 26.5711ZM16.8115 27.1466L16.7618 27.2334L16.7618 27.2334L16.8115 27.1466ZM17.7824 26.8871L17.8688 26.9374L17.8688 26.9374L17.7824 26.8871ZM35.9835 27.1487L36.0329 27.2356L36.0332 27.2355L35.9835 27.1487ZM36.9881 26.5732L36.9384 26.4864L36.9384 26.4864L36.9881 26.5732ZM37.2498 25.6104L37.1634 25.6608V25.6608L37.2498 25.6104ZM36.2789 25.3509L36.2292 25.2641L36.2292 25.2641L36.2789 25.3509ZM35.2743 25.9264L35.324 26.0132L35.324 26.0132L35.2743 25.9264ZM35.0126 26.8892L35.0993 26.8392L35.099 26.8388L35.0126 26.8892ZM32.3428 23.0195L32.2564 22.9691L32.2562 22.9696L32.3428 23.0195ZM32.9232 22.0233L33.0096 22.0736L33.0096 22.0736L32.9232 22.0233ZM31.6906 21.3201L31.777 21.3704L31.777 21.3704L31.6906 21.3201ZM31.1103 22.3163L31.0238 22.2659L31.0238 22.2659L31.1103 22.3163ZM31.372 23.279L31.3222 23.3658H31.3223L31.372 23.279ZM28.9765 45.1808L28.951 45.0841L28.8913 45.0998L28.8786 45.1602L28.9765 45.1808ZM29.8418 44.7789L29.9003 44.8601L29.9004 44.86L29.8418 44.7789ZM30.6354 43.1779L30.6112 43.0809L30.5354 43.0998V43.1779H30.6354ZM31.4184 42.6463L31.4976 42.7073L31.4977 42.7072L31.4184 42.6463ZM31.4184 40.342L31.3392 40.4031L31.3393 40.4032L31.4184 40.342ZM30.6565 39.8167L30.56 39.7905L30.5338 39.8871L30.6304 39.9133L30.6565 39.8167ZM30.7789 39.5112L30.8662 39.56L30.8668 39.5589L30.7789 39.5112ZM31.3002 38.9629L31.3545 39.0469L31.3546 39.0468L31.3002 38.9629ZM34.2676 35.7587L34.1798 35.7108L34.1798 35.7109L34.2676 35.7587ZM32.7185 25.2861L32.6481 25.3571L32.6481 25.3571L32.7185 25.2861ZM20.0767 25.2861L20.1471 25.3571L20.1472 25.357L20.0767 25.2861ZM18.5276 35.7587L18.6154 35.7108L18.6154 35.7108L18.5276 35.7587ZM21.495 38.9629L21.5496 38.8791L21.5494 38.879L21.495 38.9629ZM22.0163 39.5112L21.9284 39.5589L21.9286 39.5592L22.0163 39.5112ZM22.1387 39.8167L22.1648 39.9133L22.2619 39.887L22.235 39.7901L22.1387 39.8167ZM21.3767 40.342L21.2975 40.281L21.2975 40.2811L21.3767 40.342ZM21.3767 42.6463L21.456 42.5853L21.4558 42.5851L21.3767 42.6463ZM22.1935 43.1863H22.2935V43.1064L22.2156 43.0887L22.1935 43.1863ZM22.9871 44.7789L23.0459 44.698L23.0456 44.6979L22.9871 44.7789ZM23.8524 45.1808L23.9503 45.1602L23.9376 45.0998L23.8779 45.0841L23.8524 45.1808ZM24.5088 46.3821L24.4381 46.4528L24.4384 46.4531L24.5088 46.3821ZM28.3203 46.3821L28.2499 46.3111L28.2499 46.3111L28.3203 46.3821ZM25.4287 45.277V45.177H25.2253L25.3495 45.3381L25.4287 45.277ZM25.5195 45.3796L25.5899 45.3085L25.5876 45.3064L25.5195 45.3796ZM27.3091 45.3796L27.2387 45.3086L27.2383 45.309L27.3091 45.3796ZM27.3999 45.277L27.4791 45.3381L27.6033 45.177H27.3999V45.277ZM23.6221 43.2176V43.1176H23.5221V43.2176H23.6221ZM23.8226 43.6404L23.7625 43.7203L23.7644 43.7217L23.8226 43.6404ZM29.0018 43.6404L28.9432 43.5593L28.9431 43.5594L29.0018 43.6404ZM29.2044 43.2176H29.3044V43.1176H29.2044V43.2176ZM23.5862 39.7707L23.4875 39.7864L23.5009 39.8707H23.5862V39.7707ZM29.2064 39.7707V39.8707H29.2917L29.3051 39.7864L29.2064 39.7707ZM29.5208 38.8394L29.433 38.7916L29.4329 38.7918L29.5208 38.8394ZM30.5148 37.7762L30.4604 37.6923L30.4602 37.6924L30.5148 37.7762ZM33.0074 35.0869L32.9196 35.039L32.9195 35.0391L33.0074 35.0869ZM19.7829 35.0869L19.6951 35.1347L19.6951 35.1347L19.7829 35.0869ZM22.2755 37.7762L22.33 37.6923H22.33L22.2755 37.7762ZM23.2717 38.8394L23.3596 38.7918L23.3593 38.7912L23.2717 38.8394ZM30.2912 41.1938L30.2595 41.0979L30.2468 41.1042L30.2912 41.1938ZM22.5014 41.1938L22.5462 41.1033L22.5327 41.0989L22.5014 41.1938ZM22.5077 41.2001L22.4366 41.1284L22.4283 41.1393L22.5077 41.2001ZM22.5077 41.7882L22.4275 41.8495L22.4373 41.8592L22.5077 41.7882ZM22.5014 41.7945L22.5331 41.8904L22.5458 41.8841L22.5014 41.7945ZM22.4929 41.8007L22.4928 41.9007H22.4929V41.8007ZM30.2996 41.8007V41.9007H30.2997L30.2996 41.8007ZM30.2912 41.7945L30.2598 41.8894H30.2598L30.2912 41.7945ZM30.2848 41.7882L30.3559 41.8599L30.3643 41.8489L30.2848 41.7882ZM30.2848 41.2001L30.365 41.1388L30.3553 41.1291L30.2848 41.2001ZM30.3104 41.8007V41.7007H30.3103L30.3104 41.8007ZM22.4826 41.8007L22.4828 41.7007H22.4826V41.8007ZM29.0505 27.2197L28.9626 27.1717L28.9608 27.1755L29.0505 27.2197ZM26.1991 26.1733V26.0732H26.0991V26.1733H26.1991ZM26.1991 26.1774V26.2774H26.2991V26.1774H26.1991ZM25.5745 26.5458L25.662 26.5941L25.6621 26.5939L25.5745 26.5458ZM22.4657 32.1714L22.5521 32.2217L22.5532 32.2198L22.4657 32.1714ZM22.3707 32.5418L22.2707 32.5434L22.2707 32.5445L22.3707 32.5418ZM23.101 33.2283L23.1036 33.3282L23.1039 33.3282L23.101 33.2283ZM24.4411 33.1885L24.5366 33.2184L24.5786 33.0844L24.4382 33.0885L24.4411 33.1885ZM23.388 36.5496L23.2926 36.5197L23.2519 36.6496H23.388V36.5496ZM23.3901 36.5496L23.4857 36.5791L23.5256 36.4496H23.3901V36.5496ZM23.5927 37.28L23.5257 37.3543L23.5259 37.3544L23.5927 37.28ZM24.5974 37.2298L24.6712 37.2973L24.6712 37.2972L24.5974 37.2298ZM30.2218 31.0641L30.1502 30.9943L30.1479 30.9967L30.2218 31.0641ZM30.4202 30.5723H30.5202L30.5202 30.5718L30.4202 30.5723ZM29.7047 29.8691L29.7042 29.7691L29.704 29.7691L29.7047 29.8691ZM27.7377 29.8838L27.648 29.8396L27.5764 29.985L27.7385 29.9838L27.7377 29.8838ZM25.9543 30.2899L26.044 30.3341L26.0441 30.334L25.9543 30.2899ZM27.2776 27.5922L27.3674 27.6362L27.438 27.4922H27.2776V27.5922ZM26.617 27.5922V27.4922H26.558L26.5294 27.5438L26.617 27.5922ZM24.3017 31.7821L24.2142 31.7337L24.1294 31.8872L24.3047 31.8821L24.3017 31.7821ZM25.3654 31.7507L25.3684 31.8508L25.3727 31.8504L25.3654 31.7507ZM25.625 31.78L25.6543 31.6844L25.6529 31.684L25.625 31.78ZM26.0957 32.6632L26.1911 32.693L26.1912 32.6929L26.0957 32.6632ZM25.7052 33.9126L25.6098 33.8828L25.7791 33.98L25.7052 33.9126ZM28.0944 31.2944L28.1682 31.3618L28.3225 31.1928L28.0936 31.1944L28.0944 31.2944ZM26.6571 31.3049L26.6563 31.2046L26.6487 31.2053L26.6571 31.3049ZM26.2814 31.2358L26.3252 31.1459L26.3252 31.1459L26.2814 31.2358ZM40.0084 12.3142L39.9144 12.2801L39.9136 12.2823L40.0084 12.3142ZM39.9958 12.3519L40.0898 12.386L40.0905 12.3837L39.9958 12.3519ZM39.0228 15.0328L38.9288 14.9987L38.853 15.2075L39.0596 15.1258L39.0228 15.0328ZM44.6937 10.1355L44.5998 10.1013L44.5997 10.1014L44.6937 10.1355ZM45.0546 7.27039L45.1544 7.26332L45.1447 7.12704L45.0177 7.17745L45.0546 7.27039ZM41.2958 8.76263L41.2589 8.66968L41.2171 8.68628L41.2018 8.72855L41.2958 8.76263ZM38.5543 12.1531L38.6483 12.1871L38.6637 12.1445L38.6419 12.1048L38.5543 12.1531ZM36.239 7.94847L36.3266 7.90024L36.1983 7.6672L36.1413 7.92706L36.239 7.94847ZM37.6826 14.5578L37.5951 14.6061L37.7015 14.799L37.7766 14.5918L37.6826 14.5578ZM36.9102 6.22205L36.8233 6.17243L36.7955 6.22113L36.8225 6.27027L36.9102 6.22205ZM39.198 10.3785L39.1104 10.4267L39.2168 10.62L39.292 10.4126L39.198 10.3785ZM40.0527 8.02193L40.1472 8.0562L40.1497 8.04637L40.0527 8.02193ZM40.0802 7.94868L40.1725 7.98746L40.1742 7.98277L40.0802 7.94868ZM42.2646 1.92552L42.3586 1.95961L42.4401 1.73482L42.2228 1.83465L42.2646 1.92552ZM41.9416 6.98387L41.8476 6.94981L41.7719 7.1589L41.9786 7.0768L41.9416 6.98387ZM44.8394 5.83281L44.8763 5.92575L44.9555 5.89431L44.937 5.81115L44.8394 5.83281ZM43.6005 2.40472L43.6905 2.36113L43.5872 2.14785L43.5065 2.37066L43.6005 2.40472ZM27.7589 12.7831L27.7846 12.6864L27.7415 12.675L27.7042 12.6994L27.7589 12.7831ZM20.9123 17.2597L20.8576 17.176L20.6603 17.3051L20.8902 17.3572L20.9123 17.2597ZM32.3406 13.9991L32.3976 14.0812L32.5755 13.9579L32.3663 13.9024L32.3406 13.9991ZM19.1926 16.6946L19.1527 16.7864L19.2022 16.8079L19.2473 16.7783L19.1926 16.6946ZM25.9187 12.2955L25.9734 12.3792L26.1611 12.2564L25.9444 12.1988L25.9187 12.2955ZM20.3915 10.8263L20.4172 10.7296L20.378 10.7192L20.3427 10.739L20.3915 10.8263ZM15.1427 13.7647L15.0938 13.6774L14.981 13.7406L15.0705 13.8339L15.1427 13.7647ZM26.2904 10.9287L26.2648 11.0253L26.48 11.0824L26.3797 10.8836L26.2904 10.9287ZM22.6835 3.78359L22.7728 3.73853L22.7484 3.69011L22.6945 3.68419L22.6835 3.78359ZM17.7006 4.31308L17.6725 4.21711L17.5487 4.25333L17.6146 4.36422L17.7006 4.31308ZM20.7651 9.46363L20.6791 9.51476L20.7 9.54983L20.7394 9.56029L20.7651 9.46363ZM24.4564 4.14363L24.4856 4.04798L24.2617 3.97971L24.3671 4.18868L24.4564 4.14363ZM28.1266 11.4162L28.0373 11.4613L28.0576 11.5013L28.1009 11.5129L28.1266 11.4162ZM32.7086 12.6342L32.6829 12.7309L32.8908 12.7861L32.799 12.5916L32.7086 12.6342ZM14.1865 12.6828L14.1092 12.7462L14.1623 12.811L14.2354 12.77L14.1865 12.6828ZM18.4308 10.3053L18.4796 10.3925L18.6948 10.272L18.4565 10.2086L18.4308 10.3053ZM11.3816 8.43217L11.4072 8.33552L11.1828 8.27589L11.2937 8.47992L11.3816 8.43217ZM18.798 8.93863L18.7723 9.03528L19.0094 9.09828L18.8839 8.88749L18.798 8.93863ZM16.3203 4.77595L16.4062 4.7248L16.3633 4.65276L16.2849 4.68241L16.3203 4.77595ZM11.7489 7.06552L11.6967 6.98022L11.4974 7.10216L11.7232 7.16217L11.7489 7.06552ZM34.0293 14.5347L33.9699 14.4543C28.8894 18.2124 24.3179 19.5315 20.2418 18.4522L20.2162 18.5488L20.1906 18.6455C24.3496 19.7468 28.9839 18.3913 34.0888 14.6151L34.0293 14.5347ZM20.2162 18.5488L20.2418 18.4522C16.1474 17.3682 12.6029 13.8674 9.6137 7.91175L9.52433 7.95661L9.43495 8.00147C12.4355 13.9798 16.016 17.5403 20.1906 18.6455L20.2162 18.5488ZM9.52433 7.95661L9.61362 7.91159C9.50066 7.68756 9.48137 7.43877 9.54281 7.21032L9.44624 7.18435L9.34967 7.15838C9.27603 7.43221 9.29895 7.73175 9.43504 8.00163L9.52433 7.95661ZM9.44624 7.18435L9.54275 7.21052C9.60405 6.98449 9.74579 6.77901 9.95937 6.6378L9.90423 6.55439L9.84908 6.47097C9.59411 6.63953 9.4235 6.88611 9.34973 7.15818L9.44624 7.18435ZM9.90423 6.55439L9.95918 6.63794C12.2291 5.14493 14.3765 4.04828 16.3995 3.3463L16.3667 3.25183L16.3339 3.15736C14.2919 3.86596 12.1296 4.97101 9.84927 6.47084L9.90423 6.55439ZM16.3667 3.25183L16.4078 3.343C16.4262 3.33468 16.4437 3.32843 16.4625 3.32378L16.4384 3.22671L16.4144 3.12965C16.3825 3.13756 16.3536 3.14805 16.3256 3.16066L16.3667 3.25183ZM16.4384 3.22671L16.4709 3.32129C19.3987 2.31536 22.0669 2.1366 24.4771 2.77921L24.5028 2.68258L24.5286 2.58596C22.0718 1.93093 19.3623 2.11638 16.4059 3.13214L16.4384 3.22671ZM24.5028 2.68258L24.4771 2.77921C28.5824 3.87308 31.8989 7.32778 34.4085 13.1819L34.5004 13.1425L34.5923 13.1031C32.0707 7.22085 28.7177 3.70215 24.5286 2.58596L24.5028 2.68258ZM34.5004 13.1425L34.4092 13.1834C34.4123 13.1903 34.4151 13.1975 34.4189 13.2072C34.4225 13.2163 34.427 13.2279 34.4324 13.2399L34.5237 13.199L34.6149 13.1581C34.6118 13.1512 34.609 13.144 34.6051 13.1342C34.6016 13.1251 34.597 13.1135 34.5917 13.1016L34.5004 13.1425ZM34.5237 13.199L34.4805 13.2892C34.8897 13.4848 35.2929 13.6972 35.6857 13.9201L35.7351 13.8331L35.7844 13.7461C35.388 13.5212 34.9807 13.3066 34.5668 13.1088L34.5237 13.199ZM35.7351 13.8331L35.8265 13.7926C34.6624 11.1699 34.4621 8.82603 35.2108 6.75147L35.1167 6.71753L35.0227 6.68358C34.2518 8.81956 34.465 11.2181 35.6437 13.8737L35.7351 13.8331ZM35.1167 6.71753L35.2107 6.75184C35.3065 6.48944 35.417 6.23111 35.542 5.97687L35.4523 5.93273L35.3626 5.88858C35.2344 6.14914 35.1211 6.41403 35.0228 6.68322L35.1167 6.71753ZM35.4523 5.93273L35.5416 5.97775C35.5465 5.96812 35.5512 5.95811 35.5553 5.94944C35.5596 5.94032 35.5633 5.93254 35.5669 5.92543L35.4776 5.8804L35.3883 5.83538C35.3835 5.84501 35.3787 5.85502 35.3746 5.86369C35.3703 5.87281 35.3666 5.88059 35.363 5.8877L35.4523 5.93273ZM35.4776 5.8804L35.5669 5.92546C36.7457 3.58962 39.2291 1.66414 43.0427 0.161379L43.0061 0.0683415L42.9694 -0.0246959C39.1341 1.48658 36.5986 3.4371 35.3884 5.83535L35.4776 5.8804ZM43.0061 0.0683415L43.0428 0.161355C43.2472 0.0806527 43.4652 0.0822881 43.6613 0.15027L43.6941 0.0557846L43.7268 -0.0387006C43.4882 -0.121403 43.2208 -0.123957 42.9694 -0.0246715L43.0061 0.0683415ZM43.6941 0.0557846L43.6608 0.150088C43.8585 0.219826 44.0282 0.356861 44.1318 0.547241L44.2196 0.499469L44.3075 0.451696C44.1788 0.215141 43.9687 0.0466133 43.7274 -0.0385189L43.6941 0.0557846ZM44.2196 0.499469L44.1321 0.54791C46.3335 4.52358 46.9246 7.86078 45.9386 10.5716L46.0326 10.6058L46.1265 10.6399C47.1412 7.85048 46.5209 4.44916 44.3071 0.451028L44.2196 0.499469ZM46.0326 10.6058L45.9386 10.5716C45.034 13.0626 42.82 14.9907 39.2708 16.3453L39.3064 16.4387L39.3421 16.5321C42.922 15.1658 45.195 13.2053 46.1266 10.6399L46.0326 10.6058ZM39.3064 16.4387L39.2388 16.5123C40.442 17.618 41.5022 18.8714 42.3904 20.2455L42.4744 20.1912L42.5583 20.1369C41.6609 18.7485 40.5896 17.482 39.3741 16.3651L39.3064 16.4387ZM42.4744 20.1912L42.3904 20.2455C44.3304 23.2457 45.4578 26.8097 45.4578 30.6345H45.5578H45.6578C45.6578 26.7698 44.5185 23.1683 42.5583 20.1369L42.4744 20.1912ZM45.5578 30.6345H45.4578C45.4578 35.9539 43.2828 40.7718 39.7678 44.2573L39.8383 44.3283L39.9087 44.3993C43.4598 40.878 45.6578 36.0096 45.6578 30.6345H45.5578ZM39.8383 44.3283L39.7678 44.2573C36.2529 47.7449 31.3943 49.9 26.0289 49.9V50V50.1C31.4489 50.1 36.3576 47.9228 39.9087 44.3993L39.8383 44.3283ZM26.0289 50V49.9C20.6638 49.9 15.8049 47.7429 12.29 44.2573L12.2195 44.3283L12.1491 44.3993C15.7002 47.9207 20.6092 50.1 26.0289 50.1V50ZM12.2195 44.3283L12.2899 44.2573C8.77291 40.7718 6.6 35.9542 6.6 30.6345H6.5H6.4C6.4 36.0099 8.59591 40.8779 12.1492 44.3993L12.2195 44.3283ZM6.5 30.6345H6.6C6.6 29.8184 6.65249 29.0147 6.75119 28.2234L6.65196 28.211L6.55273 28.1986C6.45304 28.9978 6.4 29.8098 6.4 30.6345H6.5ZM6.65196 28.211L6.75118 28.2234C6.85194 27.4178 7.0052 26.6267 7.20259 25.8562L7.10572 25.8314L7.00885 25.8066C6.80947 26.5848 6.65458 27.3843 6.55273 28.1986L6.65196 28.211ZM7.10572 25.8314L7.20259 25.8562C7.28589 25.5312 7.61969 25.3327 7.94872 25.4156L7.97316 25.3186L7.99759 25.2217C7.56259 25.1121 7.11971 25.374 7.00885 25.8066L7.10572 25.8314ZM7.97316 25.3186L7.94872 25.4156C8.27796 25.4986 8.47645 25.8298 8.39337 26.154L8.49024 26.1788L8.58711 26.2037C8.69817 25.7702 8.43237 25.3312 7.9976 25.2217L7.97316 25.3186ZM8.49024 26.1788L8.39342 26.1538C8.20663 26.8757 8.0644 27.6167 7.971 28.3703L8.07024 28.3826L8.16948 28.3949C8.26181 27.65 8.40239 26.9176 8.58705 26.2039L8.49024 26.1788ZM8.07024 28.3826L7.97103 28.3701C7.87765 29.1109 7.82884 29.8664 7.82884 30.6345H7.92884H8.02884C8.02884 29.8749 8.07711 29.1277 8.16946 28.3951L8.07024 28.3826ZM7.92884 30.6345H7.82884C7.82884 35.6183 9.86646 40.1306 13.1601 43.3969L13.2305 43.3259L13.3009 43.2549C10.0434 40.0244 8.02884 35.5626 8.02884 30.6345H7.92884ZM13.2305 43.3259L13.1601 43.3969C16.4536 46.6632 21.0039 48.6832 26.0289 48.6832V48.5832V48.4832C21.0585 48.4832 16.5584 46.4854 13.3009 43.2549L13.2305 43.3259ZM26.0289 48.5832V48.6832C31.054 48.6832 35.604 46.6629 38.8978 43.3969L38.8274 43.3259L38.757 43.2549C35.4992 46.4851 30.9993 48.4832 26.0289 48.4832V48.5832ZM38.8274 43.3259L38.8978 43.3969C42.1917 40.1309 44.229 35.6183 44.229 30.6345H44.129H44.029C44.029 35.5626 42.0147 40.0247 38.757 43.2549L38.8274 43.3259ZM44.129 30.6345H44.229C44.229 27.0484 43.1763 23.7085 41.3596 20.9009L41.2756 20.9553L41.1917 21.0096C42.9881 23.7858 44.029 27.0882 44.029 30.6345H44.129ZM41.2756 20.9553L41.3596 20.901C40.3197 19.2931 39.0294 17.86 37.5439 16.6563L37.4809 16.734L37.418 16.8117C38.8872 18.0022 40.1633 19.4195 41.1917 21.0096L41.2756 20.9553ZM37.4809 16.734L37.5292 16.6464C37.4443 16.5996 37.3664 16.5375 37.2997 16.4638L37.2256 16.5309L37.1514 16.598C37.2325 16.6876 37.3277 16.7637 37.4327 16.8215L37.4809 16.734ZM37.2256 16.5309L37.287 16.452C36.2939 15.6798 35.2181 15.0043 34.0742 14.4445L34.0302 14.5343L33.9863 14.6242C35.1176 15.1778 36.1818 15.8459 37.1642 16.6099L37.2256 16.5309ZM34.0302 14.5343L33.9902 14.4427L33.9893 14.4431L34.0293 14.5347L34.0694 14.6264L34.0702 14.626L34.0302 14.5343ZM21.6847 22.3141L21.7711 22.2638L21.1907 21.2676L21.1043 21.3179L21.0179 21.3683L21.5983 22.3645L21.6847 22.3141ZM21.1043 21.3179L21.1905 21.2672C20.9644 20.8832 20.4691 20.7496 20.0794 20.9738L20.1293 21.0605L20.1791 21.1472C20.4733 20.9779 20.8475 21.0787 21.0182 21.3687L21.1043 21.3179ZM20.1293 21.0605L20.0792 20.974C19.6923 21.1979 19.5564 21.6901 19.7834 22.0779L19.8697 22.0274L19.956 21.9769C19.7861 21.6866 19.8866 21.3166 20.1794 21.147L20.1293 21.0605ZM19.8697 22.0274L19.7833 22.0778L20.3636 23.074L20.45 23.0236L20.5365 22.9733L19.9561 21.9771L19.8697 22.0274ZM20.45 23.0236L20.3639 23.0744C20.59 23.4583 21.0853 23.5919 21.475 23.3677L21.4251 23.2811L21.3752 23.1944C21.0811 23.3636 20.7069 23.2628 20.5362 22.9729L20.45 23.0236ZM21.4251 23.2811L21.4752 23.3676C21.8624 23.1434 21.9955 22.649 21.7711 22.2638L21.6847 22.3141L21.5983 22.3645C21.7665 22.6531 21.6674 23.0252 21.375 23.1945L21.4251 23.2811ZM17.5207 25.9243L17.5704 25.8376L16.5658 25.262L16.516 25.3488L16.4663 25.4356L17.471 26.0111L17.5207 25.9243ZM16.516 25.3488L16.5658 25.262C16.1782 25.0401 15.6827 25.1736 15.4588 25.558L15.5452 25.6083L15.6316 25.6587C15.8003 25.3691 16.1743 25.2683 16.4663 25.4356L16.516 25.3488ZM15.5452 25.6083L15.4588 25.558C15.2341 25.9437 15.37 26.436 15.7572 26.6578L15.8069 26.5711L15.8566 26.4843C15.5642 26.3168 15.4637 25.9469 15.6316 25.6587L15.5452 25.6083ZM15.8069 26.5711L15.7572 26.6578L16.7618 27.2334L16.8115 27.1466L16.8612 27.0598L15.8566 26.4843L15.8069 26.5711ZM16.8115 27.1466L16.7618 27.2334C17.1493 27.4553 17.6449 27.3218 17.8688 26.9374L17.7824 26.8871L17.696 26.8367C17.5273 27.1263 17.1533 27.2271 16.8612 27.0598L16.8115 27.1466ZM17.7824 26.8871L17.8688 26.9374C18.0934 26.5517 17.9576 26.0594 17.5704 25.8376L17.5207 25.9243L17.471 26.0111C17.7633 26.1786 17.8639 26.5485 17.696 26.8367L17.7824 26.8871ZM15.7373 31.1146V31.0146H14.5786V31.1146V31.2146H15.7373V31.1146ZM14.5786 31.1146V31.0146C14.1316 31.0146 13.7674 31.3746 13.7674 31.8199H13.8674H13.9674C13.9674 31.4867 14.2405 31.2146 14.5786 31.2146V31.1146ZM13.8674 31.8199H13.7674C13.7674 32.2652 14.1316 32.6252 14.5786 32.6252V32.5252V32.4252C14.2405 32.4252 13.9674 32.1532 13.9674 31.8199H13.8674ZM14.5786 32.5252V32.6252H15.7373V32.5252V32.4252H14.5786V32.5252ZM15.7373 32.5252V32.6252C16.1843 32.6252 16.5485 32.2652 16.5485 31.8199H16.4485H16.3485C16.3485 32.1532 16.0754 32.4252 15.7373 32.4252V32.5252ZM16.4485 31.8199H16.5485C16.5485 31.3746 16.1843 31.0146 15.7373 31.0146V31.1146V31.2146C16.0754 31.2146 16.3485 31.4867 16.3485 31.8199H16.4485ZM37.0556 32.5273V32.6273H38.2143V32.5273V32.4273H37.0556V32.5273ZM38.2143 32.5273V32.6273C38.6613 32.6273 39.0255 32.2673 39.0255 31.822H38.9255H38.8255C38.8255 32.1553 38.5524 32.4273 38.2143 32.4273V32.5273ZM38.9255 31.822H39.0255C39.0255 31.3767 38.6613 31.0167 38.2143 31.0167V31.1167V31.2167C38.5524 31.2167 38.8255 31.4888 38.8255 31.822H38.9255ZM38.2143 31.1167V31.0167H37.0556V31.1167V31.2167H38.2143V31.1167ZM37.0556 31.1167V31.0167C36.6086 31.0167 36.2444 31.3767 36.2444 31.822H36.3444H36.4444C36.4444 31.4888 36.7175 31.2167 37.0556 31.2167V31.1167ZM36.3444 31.822H36.2444C36.2444 32.2673 36.6086 32.6273 37.0556 32.6273V32.5273V32.4273C36.7175 32.4273 36.4444 32.1553 36.4444 31.822H36.3444ZM35.9835 27.1487L36.0332 27.2355L37.0378 26.6599L36.9881 26.5732L36.9384 26.4864L35.9338 27.0619L35.9835 27.1487ZM36.9881 26.5732L37.0378 26.6599C37.425 26.4381 37.5609 25.9457 37.3362 25.5601L37.2498 25.6104L37.1634 25.6608C37.3313 25.949 37.2308 26.3189 36.9384 26.4864L36.9881 26.5732ZM37.2498 25.6104L37.3362 25.5601C37.1123 25.1757 36.6167 25.0422 36.2292 25.2641L36.2789 25.3509L36.3286 25.4377C36.6207 25.2704 36.9947 25.3712 37.1634 25.6608L37.2498 25.6104ZM36.2789 25.3509L36.2292 25.2641L35.2246 25.8397L35.2743 25.9264L35.324 26.0132L36.3286 25.4377L36.2789 25.3509ZM35.2743 25.9264L35.2246 25.8397C34.8374 26.0615 34.7016 26.5539 34.9262 26.9395L35.0126 26.8892L35.099 26.8388C34.9311 26.5506 35.0317 26.1807 35.324 26.0132L35.2743 25.9264ZM35.0126 26.8892L34.926 26.9391C35.1479 27.3243 35.6438 27.4571 36.0329 27.2356L35.9835 27.1487L35.934 27.0618C35.6394 27.2295 35.2656 27.128 35.0993 26.8392L35.0126 26.8892ZM32.3428 23.0195L32.4292 23.0698L33.0096 22.0736L32.9232 22.0233L32.8368 21.9729L32.2564 22.9692L32.3428 23.0195ZM32.9232 22.0233L33.0096 22.0736C33.2342 21.688 33.0984 21.1956 32.7112 20.9738L32.6615 21.0605L32.6118 21.1473C32.9041 21.3148 33.0047 21.6847 32.8368 21.9729L32.9232 22.0233ZM32.6615 21.0605L32.7112 20.9738C32.3237 20.7518 31.8281 20.8853 31.6042 21.2697L31.6906 21.3201L31.777 21.3704C31.9457 21.0809 32.3197 20.98 32.6118 21.1473L32.6615 21.0605ZM31.6906 21.3201L31.6042 21.2697L31.0238 22.2659L31.1103 22.3163L31.1967 22.3666L31.777 21.3704L31.6906 21.3201ZM31.1103 22.3163L31.0238 22.2659C30.7992 22.6516 30.935 23.144 31.3222 23.3658L31.372 23.279L31.4217 23.1922C31.1293 23.0248 31.0288 22.6549 31.1967 22.3666L31.1103 22.3163ZM31.372 23.279L31.3223 23.3658C31.7095 23.5876 32.2075 23.4545 32.4295 23.0694L32.3428 23.0195L32.2562 22.9696C32.0897 23.2584 31.714 23.3597 31.4217 23.1922L31.372 23.279ZM27.1108 21.251H27.2108V20.1H27.1108H27.0108V21.251H27.1108ZM27.1108 20.1H27.2108C27.2108 19.6528 26.8468 19.2905 26.3954 19.2905V19.3905V19.4905C26.7375 19.4905 27.0108 19.7644 27.0108 20.1H27.1108ZM26.3954 19.3905V19.2905C25.9463 19.2905 25.5799 19.6526 25.5799 20.1H25.6799H25.7799C25.7799 19.7646 26.0551 19.4905 26.3954 19.4905V19.3905ZM25.6799 20.1H25.5799V21.251H25.6799H25.7799V20.1H25.6799ZM25.6799 21.251H25.5799C25.5799 21.6984 25.9463 22.0605 26.3954 22.0605V21.9605V21.8605C26.0551 21.8605 25.7799 21.5864 25.7799 21.251H25.6799ZM26.3954 21.9605V22.0605C26.8468 22.0605 27.2108 21.6982 27.2108 21.251H27.1108H27.0108C27.0108 21.5865 26.7375 21.8605 26.3954 21.8605V21.9605ZM28.9765 45.1808L29.002 45.2775C29.3382 45.1887 29.6428 45.0455 29.9003 44.8601L29.8418 44.7789L29.7834 44.6978C29.5469 44.8681 29.2648 45.0012 28.951 45.0841L28.9765 45.1808ZM29.8418 44.7789L29.9004 44.86C30.4109 44.4913 30.7354 43.9547 30.7354 43.3432H30.6354H30.5354C30.5354 43.8786 30.2521 44.3592 29.7833 44.6979L29.8418 44.7789ZM30.6354 43.3432H30.7354V43.1779H30.6354H30.5354V43.3432H30.6354ZM30.6354 43.1779L30.6596 43.2749C30.9946 43.1913 31.281 42.9886 31.4976 42.7073L31.4184 42.6463L31.3392 42.5853C31.1464 42.8356 30.8968 43.0096 30.6112 43.0809L30.6354 43.1779ZM31.4184 42.6463L31.4977 42.7072C31.7415 42.39 31.8899 41.9687 31.8899 41.5161H31.7899H31.6899C31.6899 41.9258 31.5554 42.304 31.3391 42.5854L31.4184 42.6463ZM31.7899 41.5161H31.8899V41.4722H31.7899H31.6899V41.5161H31.7899ZM31.7899 41.4722H31.8899C31.8899 41.0198 31.7416 40.5962 31.4975 40.2808L31.4184 40.342L31.3393 40.4032C31.5553 40.6822 31.6899 41.0623 31.6899 41.4722H31.7899ZM31.4184 40.342L31.4976 40.281C31.2875 40.0083 31.008 39.8082 30.6826 39.7202L30.6565 39.8167L30.6304 39.9133C30.9087 39.9885 31.1526 40.1609 31.3392 40.4031L31.4184 40.342ZM30.6565 39.8167L30.753 39.8429C30.7807 39.7408 30.818 39.6461 30.8661 39.56L30.7789 39.5112L30.6917 39.4623C30.6343 39.5646 30.5914 39.675 30.56 39.7905L30.6565 39.8167ZM30.7789 39.5112L30.8668 39.5589C30.9741 39.3615 31.1372 39.1872 31.3545 39.0469L31.3002 38.9629L31.246 38.8789C31.0032 39.0357 30.8158 39.2339 30.6911 39.4634L30.7789 39.5112ZM31.3002 38.9629L31.3546 39.0468C32.6053 38.2362 33.6404 37.1208 34.3554 35.8065L34.2676 35.7587L34.1798 35.7109C33.4807 36.9959 32.4687 38.0864 31.2458 38.8789L31.3002 38.9629ZM34.2676 35.7587L34.3554 35.8065C35.0449 34.5408 35.4377 33.0908 35.4377 31.5541H35.3377H35.2377C35.2377 33.0563 34.8537 34.4735 34.1798 35.7108L34.2676 35.7587ZM35.3377 31.5541H35.4377C35.4377 29.0776 34.4257 26.836 32.7888 25.215L32.7185 25.2861L32.6481 25.3571C34.2488 26.9422 35.2377 29.1333 35.2377 31.5541H35.3377ZM32.7185 25.2861L32.7889 25.2151C31.1521 23.5919 28.892 22.5888 26.3976 22.5888V22.6888V22.7888C28.8374 22.7888 31.0473 23.7698 32.6481 25.3571L32.7185 25.2861ZM26.3976 22.6888V22.5888C23.901 22.5888 21.6409 23.5919 20.0062 25.2151L20.0767 25.2861L20.1472 25.357C21.7456 23.7698 23.9556 22.7888 26.3976 22.7888V22.6888ZM20.0767 25.2861L20.0063 25.215C18.3694 26.8361 17.3575 29.0777 17.3575 31.5541H17.4575H17.5575C17.5575 29.1334 18.5464 26.9423 20.1471 25.3571L20.0767 25.2861ZM17.4575 31.5541H17.3575C17.3575 33.0906 17.7481 34.5386 18.4398 35.8066L18.5276 35.7587L18.6154 35.7108C17.9393 34.4714 17.5575 33.0563 17.5575 31.5541H17.4575ZM18.5276 35.7587L18.4398 35.8065C19.1548 37.1188 20.1898 38.234 21.4405 39.0467L21.495 38.9629L21.5494 38.879C20.3265 38.0844 19.3144 36.9938 18.6154 35.7108L18.5276 35.7587ZM21.495 38.9629L21.4404 39.0466C21.6561 39.1873 21.8212 39.3618 21.9284 39.5589L22.0163 39.5112L22.1041 39.4634C21.9792 39.2336 21.7897 39.0356 21.5496 38.8791L21.495 38.9629ZM22.0163 39.5112L21.9286 39.5592C21.9772 39.648 22.0146 39.7432 22.0423 39.8434L22.1387 39.8167L22.235 39.7901C22.2037 39.6768 22.1608 39.5669 22.104 39.4631L22.0163 39.5112ZM22.1387 39.8167L22.1126 39.7202C21.7872 39.8082 21.5077 40.0083 21.2975 40.281L21.3767 40.342L21.456 40.4031C21.6426 40.1609 21.8865 39.9885 22.1648 39.9133L22.1387 39.8167ZM21.3767 40.342L21.2975 40.2811C21.0536 40.5983 20.9053 41.0196 20.9053 41.4722H21.0053H21.1053C21.1053 41.0625 21.2398 40.6843 21.456 40.403L21.3767 40.342ZM21.0053 41.4722H20.9053V41.5161H21.0053H21.1053V41.4722H21.0053ZM21.0053 41.5161H20.9053C20.9053 41.9685 21.0535 42.3921 21.2977 42.7075L21.3767 42.6463L21.4558 42.5851C21.2399 42.3061 21.1053 41.926 21.1053 41.5161H21.0053ZM21.3767 42.6463L21.2975 42.7073C21.5211 42.9978 21.8232 43.2048 22.1714 43.2838L22.1935 43.1863L22.2156 43.0887C21.918 43.0212 21.6545 42.8432 21.456 42.5853L21.3767 42.6463ZM22.1935 43.1863H22.0935V43.3432H22.1935H22.2935V43.1863H22.1935ZM22.1935 43.3432H22.0935C22.0935 43.9568 22.4181 44.4913 22.9285 44.86L22.9871 44.7789L23.0456 44.6979C22.5767 44.3591 22.2935 43.8806 22.2935 43.3432H22.1935ZM22.9871 44.7789L22.9283 44.8598C23.184 45.0456 23.4909 45.1888 23.8269 45.2774L23.8524 45.1808L23.8779 45.0841C23.5638 45.0011 23.2798 44.868 23.0459 44.698L22.9871 44.7789ZM23.8524 45.1808L23.7546 45.2013C23.8558 45.6838 24.1001 46.1154 24.4381 46.4528L24.5088 46.3821L24.5794 46.3113C24.2675 45.9999 24.0432 45.6027 23.9503 45.1602L23.8524 45.1808ZM24.5088 46.3821L24.4384 46.4531C24.8932 46.9041 25.5197 47.1832 26.2119 47.1832V47.0832V46.9832C25.5746 46.9832 24.9981 46.7265 24.5792 46.3111L24.5088 46.3821ZM26.2119 47.0832V47.1832H26.6172V47.0832V46.9832H26.2119V47.0832ZM26.6172 47.0832V47.1832C27.3094 47.1832 27.9359 46.9041 28.3907 46.4531L28.3203 46.3821L28.2499 46.3111C27.831 46.7265 27.2546 46.9832 26.6172 46.9832V47.0832ZM28.3203 46.3821L28.3907 46.4531C28.7313 46.1153 28.9732 45.6836 29.0744 45.2013L28.9765 45.1808L28.8786 45.1602C28.7857 45.603 28.5636 46 28.2499 46.3111L28.3203 46.3821ZM25.4287 45.277L25.3495 45.3381C25.3782 45.3753 25.4117 45.4159 25.4514 45.4528L25.5195 45.3796L25.5876 45.3064C25.5598 45.2805 25.5341 45.2499 25.5079 45.216L25.4287 45.277ZM25.5195 45.3796L25.4491 45.4506C25.644 45.6439 25.9159 45.7663 26.2117 45.7663V45.6663V45.5663C25.9715 45.5663 25.7495 45.4668 25.5899 45.3086L25.5195 45.3796ZM26.2117 45.6663V45.7663H26.6169V45.6663V45.5663H26.2117V45.6663ZM26.6169 45.6663V45.7663C26.9145 45.7663 27.1846 45.6463 27.38 45.4502L27.3091 45.3796L27.2383 45.309C27.0792 45.4687 26.8597 45.5663 26.6169 45.5663V45.6663ZM27.3091 45.3796L27.3796 45.4506C27.4142 45.4163 27.4488 45.3774 27.4791 45.3381L27.3999 45.277L27.3207 45.216C27.2961 45.2479 27.2674 45.2801 27.2387 45.3086L27.3091 45.3796ZM27.3999 45.277V45.177H25.4287V45.277V45.377H27.3999V45.277ZM23.6221 43.2176H23.5221V43.3432H23.6221H23.7221V43.2176H23.6221ZM23.6221 43.3432H23.5221C23.5221 43.4933 23.6344 43.624 23.7625 43.7203L23.8226 43.6404L23.8827 43.5605C23.766 43.4726 23.7221 43.394 23.7221 43.3432H23.6221ZM23.8226 43.6404L23.7644 43.7217C23.9742 43.872 24.2699 43.9622 24.6014 43.9622V43.8622V43.7622C24.3039 43.7622 24.0509 43.6809 23.8808 43.5591L23.8226 43.6404ZM24.6014 43.8622V43.9622H28.223V43.8622V43.7622H24.6014V43.8622ZM28.223 43.8622V43.9622C28.5564 43.9622 28.8524 43.8721 29.0605 43.7214L29.0018 43.6404L28.9431 43.5594C28.7756 43.6808 28.5228 43.7622 28.223 43.7622V43.8622ZM29.0018 43.6404L29.0604 43.7214C29.1924 43.626 29.3044 43.4932 29.3044 43.3432H29.2044H29.1044C29.1044 43.3941 29.0602 43.4748 28.9432 43.5593L29.0018 43.6404ZM29.2044 43.3432H29.3044V43.2176H29.2044H29.1044V43.3432H29.2044ZM29.2044 43.2176V43.1176H23.6221V43.2176V43.3176H29.2044V43.2176ZM23.5862 39.7707V39.8707H29.2064V39.7707V39.6707H23.5862V39.7707ZM29.2064 39.7707L29.3051 39.7864C29.3561 39.4668 29.458 39.1657 29.6088 38.8869L29.5208 38.8394L29.4329 38.7918C29.2712 39.0907 29.1621 39.4133 29.1076 39.7549L29.2064 39.7707ZM29.5208 38.8394L29.6087 38.8871C29.8304 38.4797 30.1564 38.1297 30.5695 37.8599L30.5148 37.7762L30.4602 37.6924C30.0207 37.9794 29.6713 38.3535 29.433 38.7916L29.5208 38.8394ZM30.5148 37.7762L30.5693 37.86C31.6236 37.1751 32.4962 36.2377 33.0953 35.1346L33.0074 35.0869L32.9195 35.0391C32.3366 36.1125 31.4871 37.0253 30.4604 37.6923L30.5148 37.7762ZM33.0074 35.0869L33.0952 35.1347C33.675 34.0719 34.0044 32.8499 34.0044 31.552H33.9044H33.8044C33.8044 32.8158 33.4837 34.0048 32.9196 35.039L33.0074 35.0869ZM33.9044 31.552H34.0044C34.0044 29.4669 33.1529 27.579 31.7756 26.2133L31.7052 26.2843L31.6348 26.3553C32.9759 27.6851 33.8044 29.5226 33.8044 31.552H33.9044ZM31.7052 26.2843L31.7756 26.2133C30.3984 24.8476 28.495 24.0035 26.3952 24.0035V24.1035V24.2035C28.4404 24.2035 30.2937 25.0254 31.6348 26.3553L31.7052 26.2843ZM26.3952 24.1035V24.0035C24.2932 24.0035 22.3919 24.8476 21.0147 26.2133L21.0851 26.2843L21.1555 26.3553C22.4966 25.0254 24.3479 24.2035 26.3952 24.2035V24.1035ZM21.0851 26.2843L21.0147 26.2133C19.6374 27.579 18.786 29.4669 18.786 31.552H18.886H18.986C18.986 29.5226 19.8145 27.6851 21.1555 26.3553L21.0851 26.2843ZM18.886 31.552H18.786C18.786 32.8499 19.1154 34.0697 19.6951 35.1347L19.7829 35.0869L19.8708 35.039C19.3066 34.0027 18.986 32.8157 18.986 31.552H18.886ZM19.7829 35.0869L19.6951 35.1347C20.2962 36.2377 21.1667 37.1751 22.221 37.86L22.2755 37.7762L22.33 37.6923C21.3033 37.0253 20.4558 36.1126 19.8708 35.039L19.7829 35.0869ZM22.2755 37.7762L22.221 37.86C22.636 38.1296 22.96 38.4795 23.184 38.8875L23.2717 38.8394L23.3593 38.7912C23.119 38.3536 22.7719 37.9794 22.33 37.6923L22.2755 37.7762ZM23.2717 38.8394L23.1837 38.8869C23.3345 39.1657 23.4365 39.4668 23.4875 39.7864L23.5862 39.7707L23.685 39.7549C23.6305 39.4133 23.5212 39.0906 23.3596 38.7918L23.2717 38.8394ZM30.3102 41.1875V41.0875H30.2996V41.1875V41.2875H30.3102V41.1875ZM30.2912 41.1938L30.3226 41.2888C30.3207 41.2894 30.3203 41.2894 30.3311 41.2874C30.3323 41.2871 30.3362 41.2864 30.3403 41.2854C30.3415 41.2851 30.3478 41.2836 30.3552 41.2805C30.3577 41.2794 30.3688 41.2749 30.3805 41.2652C30.3873 41.2596 30.435 41.2172 30.4105 41.1526C30.4011 41.1276 30.3845 41.1134 30.3758 41.107C30.3664 41.1002 30.358 41.0965 30.3534 41.0948C30.3444 41.0912 30.3368 41.0898 30.3342 41.0893C30.328 41.0882 30.3229 41.0879 30.3213 41.0878C30.317 41.0876 30.3129 41.0875 30.3102 41.0875V41.1875V41.2875C30.3122 41.2875 30.3114 41.2876 30.3094 41.2875C30.3089 41.2874 30.3046 41.2872 30.2989 41.2862C30.2966 41.2858 30.2892 41.2844 30.2803 41.2809C30.2759 41.2792 30.2674 41.2755 30.2582 41.2688C30.2494 41.2624 30.2329 41.2482 30.2235 41.2233C30.199 41.1587 30.2466 41.1164 30.2533 41.1109C30.265 41.1013 30.276 41.0968 30.2783 41.0958C30.2853 41.0929 30.291 41.0916 30.2914 41.0914C30.2939 41.0908 30.2955 41.0906 30.294 41.0908C30.2937 41.0909 30.2743 41.0941 30.2598 41.0989L30.2912 41.1938ZM30.2996 41.1875V41.0875H22.4929V41.1875V41.2875H30.2996V41.1875ZM22.5014 41.1938L22.4569 41.2834C22.4629 41.2864 22.4536 41.2824 22.4447 41.2753C22.4415 41.2727 22.4219 41.2576 22.4128 41.2286C22.4074 41.2114 22.4062 41.1912 22.4124 41.1706C22.4183 41.1511 22.4288 41.1374 22.4373 41.1291L22.5077 41.2001L22.5781 41.2711C22.5871 41.2622 22.598 41.2481 22.604 41.228C22.6103 41.2069 22.6091 41.1861 22.6036 41.1685C22.5941 41.1384 22.5737 41.1223 22.569 41.1186C22.5617 41.1128 22.555 41.1091 22.5524 41.1077C22.5494 41.106 22.5464 41.1045 22.5458 41.1042L22.5014 41.1938ZM22.5077 41.2001L22.4283 41.1393C22.3647 41.2224 22.3317 41.3423 22.3317 41.4722H22.4317H22.5317C22.5317 41.3719 22.5578 41.2992 22.5871 41.2609L22.5077 41.2001ZM22.4317 41.4722H22.3317V41.5161H22.4317H22.5317V41.4722H22.4317ZM22.4317 41.5161H22.3317C22.3317 41.646 22.3647 41.7659 22.4283 41.8489L22.5077 41.7882L22.5871 41.7274C22.5578 41.6891 22.5317 41.6164 22.5317 41.5161H22.4317ZM22.5077 41.7882L22.4373 41.8592C22.4288 41.8508 22.4183 41.8372 22.4124 41.8177C22.4062 41.7971 22.4074 41.7768 22.4128 41.7597C22.4219 41.7307 22.4415 41.7156 22.4448 41.713C22.4536 41.7059 22.4629 41.7019 22.4569 41.7049L22.5014 41.7945L22.5458 41.8841C22.5464 41.8837 22.5494 41.8823 22.5524 41.8806C22.555 41.8792 22.5617 41.8755 22.569 41.8697C22.5737 41.866 22.5941 41.8499 22.6036 41.8198C22.6091 41.8021 22.6103 41.7814 22.604 41.7603C22.598 41.7402 22.5871 41.7261 22.5781 41.7172L22.5077 41.7882ZM22.4929 41.8007V41.9007H30.2996V41.8007V41.7007H22.4929V41.8007ZM30.2912 41.7945L30.3226 41.6995C30.3238 41.6999 30.3272 41.7011 30.3316 41.7033C30.3353 41.7051 30.3451 41.7102 30.3553 41.7203C30.3656 41.7306 30.3841 41.7541 30.3841 41.7898C30.3841 41.8254 30.3656 41.8489 30.3553 41.8592L30.2848 41.7882L30.2144 41.7172C30.203 41.7285 30.1841 41.753 30.1841 41.7898C30.1841 41.8265 30.203 41.851 30.2144 41.8623C30.2335 41.8813 30.2558 41.8881 30.2598 41.8894L30.2912 41.7945ZM30.2848 41.7882L30.3643 41.8489C30.4278 41.7659 30.4608 41.646 30.4608 41.5161H30.3608H30.2608C30.2608 41.6164 30.2347 41.6891 30.2054 41.7274L30.2848 41.7882ZM30.3608 41.5161H30.4608V41.4722H30.3608H30.2608V41.5161H30.3608ZM30.3608 41.4722H30.4608C30.4608 41.3423 30.4278 41.2224 30.3643 41.1393L30.2848 41.2001L30.2054 41.2609C30.2347 41.2992 30.2608 41.3719 30.2608 41.4722H30.3608ZM30.2848 41.2001L30.3553 41.1291C30.3637 41.1375 30.3743 41.1511 30.3801 41.1706C30.3863 41.1912 30.3851 41.2115 30.3797 41.2286C30.3706 41.2576 30.3511 41.2727 30.3478 41.2753C30.3389 41.2824 30.3296 41.2864 30.3356 41.2834L30.2912 41.1938L30.2468 41.1042C30.2461 41.1045 30.2432 41.106 30.2401 41.1077C30.2375 41.1091 30.2308 41.1128 30.2235 41.1186C30.2189 41.1223 30.1984 41.1384 30.189 41.1685C30.1834 41.1861 30.1822 41.2069 30.1885 41.228C30.1945 41.248 30.2055 41.2622 30.2144 41.2711L30.2848 41.2001ZM22.4929 41.1875V41.0875H22.4824V41.1875V41.2875H22.4929V41.1875ZM22.4824 41.1875V41.0875C22.4799 41.0875 22.4756 41.0876 22.471 41.0879C22.4695 41.088 22.4632 41.0884 22.4556 41.09C22.4527 41.0906 22.4424 41.0929 22.4304 41.0991C22.4256 41.1016 22.3764 41.1269 22.3764 41.1879C22.3764 41.2164 22.3882 41.2372 22.3968 41.2485C22.4052 41.2595 22.4141 41.2664 22.4188 41.2697C22.4282 41.2763 22.4366 41.2798 22.4392 41.2808C22.4457 41.2835 22.4512 41.2849 22.4526 41.2852C22.4564 41.2862 22.4601 41.287 22.4613 41.2872C22.4713 41.2892 22.4713 41.2892 22.47 41.2888L22.5014 41.1938L22.5327 41.0989C22.5188 41.0943 22.5008 41.0911 22.5002 41.091C22.4988 41.0907 22.5003 41.091 22.5027 41.0916C22.5032 41.0918 22.5081 41.093 22.5143 41.0955C22.5167 41.0964 22.5249 41.0998 22.5342 41.1064C22.5389 41.1097 22.5477 41.1164 22.5561 41.1275C22.5646 41.1387 22.5764 41.1595 22.5764 41.1879C22.5764 41.2489 22.5273 41.2741 22.5226 41.2766C22.5108 41.2827 22.5006 41.2849 22.4979 41.2855C22.4908 41.287 22.4852 41.2874 22.4846 41.2874C22.482 41.2876 22.4806 41.2875 22.4824 41.2875V41.1875ZM30.3104 41.8007V41.9007C30.3128 41.9007 30.3172 41.9007 30.3218 41.9004C30.3233 41.9003 30.3297 41.8999 30.3375 41.8982C30.3403 41.8976 30.3514 41.8951 30.364 41.8883C30.3702 41.8849 30.4217 41.8559 30.4159 41.7913C30.4134 41.7638 30.4005 41.7449 30.3924 41.7354C30.3842 41.7258 30.376 41.7199 30.3715 41.7169C30.3627 41.711 30.3549 41.708 30.3523 41.707C30.3461 41.7045 30.3409 41.7032 30.3396 41.7029C30.3359 41.702 30.3323 41.7013 30.3311 41.701C30.3211 41.6991 30.3211 41.699 30.3226 41.6995L30.2912 41.7945L30.2598 41.8894C30.2739 41.8941 30.292 41.8972 30.2927 41.8973C30.2941 41.8976 30.2928 41.8974 30.2906 41.8968C30.29 41.8967 30.2854 41.8955 30.2796 41.8933C30.2773 41.8924 30.2697 41.8894 30.2609 41.8836C30.2566 41.8807 30.2484 41.8747 30.2402 41.8651C30.2321 41.8557 30.2192 41.8368 30.2167 41.8093C30.2109 41.7448 30.2624 41.7159 30.2685 41.7126C30.281 41.7058 30.2919 41.7034 30.2945 41.7028C30.3018 41.7012 30.3076 41.7009 30.3081 41.7009C30.3108 41.7007 30.3122 41.7007 30.3104 41.7007V41.8007ZM30.2996 41.8007L30.2997 41.9007L30.3105 41.9007L30.3104 41.8007L30.3103 41.7007L30.2995 41.7007L30.2996 41.8007ZM22.4826 41.8007L22.4825 41.9007L22.4928 41.9007L22.4929 41.8007L22.493 41.7007L22.4828 41.7007L22.4826 41.8007ZM22.5014 41.7945L22.47 41.6995C22.4712 41.6991 22.4713 41.6991 22.4613 41.7011C22.4601 41.7014 22.4563 41.7021 22.4523 41.7032C22.451 41.7035 22.4452 41.705 22.4383 41.7079C22.4356 41.709 22.4264 41.7129 22.4164 41.7205C22.413 41.7231 22.3713 41.7534 22.3772 41.8106C22.383 41.8671 22.4292 41.8885 22.4328 41.8902C22.4439 41.8957 22.4535 41.8978 22.4564 41.8984C22.4637 41.8999 22.4698 41.9003 22.4714 41.9004C22.4759 41.9007 22.4802 41.9007 22.4826 41.9007V41.8007V41.7007C22.4809 41.7007 22.4822 41.7007 22.4848 41.7009C22.4854 41.7009 22.4908 41.7012 22.4976 41.7027C22.5003 41.7032 22.5097 41.7052 22.5207 41.7106C22.5242 41.7123 22.5703 41.7337 22.5761 41.7901C22.582 41.8472 22.5404 41.8775 22.5371 41.88C22.5271 41.8875 22.5181 41.8913 22.5156 41.8923C22.5091 41.8951 22.5039 41.8964 22.5033 41.8965C22.5008 41.8972 22.4992 41.8975 22.5006 41.8972C22.501 41.8971 22.5189 41.894 22.5327 41.8894L22.5014 41.7945ZM29.0505 27.2197L29.1382 27.2676C29.2007 27.1532 29.237 27.0217 29.237 26.8827H29.137H29.037C29.037 26.9866 29.0099 27.0853 28.9627 27.1717L29.0505 27.2197ZM29.137 26.8827H29.237C29.237 26.4355 28.8729 26.0732 28.4215 26.0732V26.1733V26.2733C28.7637 26.2733 29.037 26.5472 29.037 26.8827H29.137ZM28.4215 26.1733V26.0732H26.1991V26.1733V26.2733H28.4215V26.1733ZM26.1991 26.1733H26.0991V26.1774H26.1991H26.2991V26.1733H26.1991ZM26.1991 26.1774V26.0774C25.9131 26.0774 25.6339 26.2298 25.4868 26.4976L25.5745 26.5458L25.6621 26.5939C25.7725 26.3929 25.9829 26.2774 26.1991 26.2774V26.1774ZM25.5745 26.5458L25.4869 26.4974L22.3781 32.123L22.4657 32.1714L22.5532 32.2198L25.662 26.5941L25.5745 26.5458ZM22.4657 32.1714L22.3792 32.1211C22.3066 32.246 22.2683 32.3916 22.2707 32.5434L22.3707 32.5418L22.4707 32.5403C22.4688 32.4241 22.4981 32.3145 22.5521 32.2217L22.4657 32.1714ZM22.3707 32.5418L22.2707 32.5445C22.2828 32.9897 22.6566 33.3402 23.1036 33.3282L23.101 33.2283L23.0983 33.1283C22.7602 33.1373 22.4797 32.8725 22.4707 32.5391L22.3707 32.5418ZM23.101 33.2283L23.1039 33.3282L24.4441 33.2885L24.4411 33.1885L24.4382 33.0885L23.098 33.1283L23.101 33.2283ZM24.4411 33.1885L24.3457 33.1586L23.2926 36.5197L23.388 36.5496L23.4834 36.5795L24.5366 33.2184L24.4411 33.1885ZM23.388 36.5496V36.6496H23.3901V36.5496V36.4496H23.388V36.5496ZM23.3901 36.5496L23.2946 36.5201C23.2053 36.8095 23.285 37.137 23.5257 37.3543L23.5927 37.28L23.6597 37.2058C23.4784 37.0422 23.4187 36.7962 23.4857 36.5791L23.3901 36.5496ZM23.5927 37.28L23.5259 37.3544C23.8581 37.6528 24.3705 37.6265 24.6712 37.2973L24.5974 37.2298L24.5235 37.1624C24.2966 37.4108 23.9098 37.4304 23.6596 37.2056L23.5927 37.28ZM24.5974 37.2298L24.6712 37.2972L30.2957 31.1315L30.2218 31.0641L30.1479 30.9967L24.5235 37.1624L24.5974 37.2298ZM30.2218 31.0641L30.2934 31.134C30.4359 30.9878 30.5202 30.7891 30.5202 30.5723H30.4202H30.3202C30.3202 30.7364 30.2567 30.8851 30.1502 30.9943L30.2218 31.0641ZM30.4202 30.5723L30.5202 30.5718C30.5178 30.1269 30.1537 29.7667 29.7042 29.7691L29.7047 29.8691L29.7053 29.9691C30.0451 29.9673 30.3184 30.2392 30.3202 30.5729L30.4202 30.5723ZM29.7047 29.8691L29.704 29.7691L27.737 29.7838L27.7377 29.8838L27.7385 29.9838L29.7055 29.9691L29.7047 29.8691ZM27.7377 29.8838L27.8274 29.928L29.1402 27.2639L29.0505 27.2197L28.9608 27.1755L27.648 29.8396L27.7377 29.8838ZM25.9543 30.2899L26.0441 30.334L27.3674 27.6362L27.2776 27.5922L27.1878 27.5482L25.8645 30.2459L25.9543 30.2899ZM27.2776 27.5922V27.4922H26.617V27.5922V27.6922H27.2776V27.5922ZM26.617 27.5922L26.5294 27.5438L24.2142 31.7337L24.3017 31.7821L24.3892 31.8305L26.7045 27.6406L26.617 27.5922ZM24.3017 31.7821L24.3047 31.8821L25.3684 31.8507L25.3654 31.7507L25.3625 31.6508L24.2988 31.6821L24.3017 31.7821ZM25.3654 31.7507L25.3727 31.8504C25.4461 31.8451 25.5208 31.8539 25.5972 31.876L25.625 31.78L25.6529 31.684C25.5562 31.6559 25.4578 31.6437 25.3582 31.651L25.3654 31.7507ZM25.625 31.78L25.5957 31.8756C25.9192 31.9747 26.0996 32.3146 26.0002 32.6334L26.0957 32.6632L26.1912 32.6929C26.3239 32.2668 26.0823 31.8155 25.6543 31.6844L25.625 31.78ZM26.0957 32.6632L26.0002 32.6334L25.6098 33.8828L25.7052 33.9126L25.8007 33.9424L26.1911 32.693L26.0957 32.6632ZM25.7052 33.9126L25.7791 33.98L28.1682 31.3618L28.0944 31.2944L28.0205 31.227L25.6314 33.8452L25.7052 33.9126ZM28.0944 31.2944L28.0936 31.1944L26.6563 31.2049L26.6571 31.3049L26.6578 31.4049L28.0951 31.3944L28.0944 31.2944ZM26.6571 31.3049L26.6487 31.2053C26.5409 31.2143 26.4282 31.1961 26.3252 31.1459L26.2814 31.2358L26.2376 31.3257C26.3752 31.3928 26.5242 31.4164 26.6654 31.4046L26.6571 31.3049ZM26.2814 31.2358L26.3252 31.1459C26.0219 30.9983 25.8957 30.6353 26.044 30.3341L25.9543 30.2899L25.8646 30.2458C25.6667 30.6477 25.836 31.1302 26.2376 31.3257L26.2814 31.2358ZM40.0084 12.3142L39.9136 12.2823C39.9094 12.2949 39.9052 12.3074 39.901 12.32L39.9958 12.3519L40.0905 12.3837C40.0948 12.3712 40.099 12.3586 40.1032 12.3461L40.0084 12.3142ZM39.9958 12.3519L39.9018 12.3178L38.9288 14.9987L39.0228 15.0328L39.1168 15.0669L40.0898 12.386L39.9958 12.3519ZM39.0228 15.0328L39.0596 15.1258C42.1018 13.9233 44.0227 12.2752 44.7877 10.1697L44.6937 10.1355L44.5997 10.1014C43.8621 12.1315 42.001 13.7481 38.986 14.9398L39.0228 15.0328ZM44.6937 10.1355L44.7877 10.1698C45.1097 9.28623 45.2291 8.31759 45.1544 7.26332L45.0546 7.27039L44.9549 7.27746C45.0279 8.30778 44.9109 9.24778 44.5998 10.1013L44.6937 10.1355ZM45.0546 7.27039L45.0177 7.17745L41.2589 8.66968L41.2958 8.76263L41.3327 8.85557L45.0915 7.36334L45.0546 7.27039ZM41.2958 8.76263L41.2018 8.72855L39.9144 12.2801L40.0084 12.3142L40.1024 12.3483L41.3898 8.79671L41.2958 8.76263ZM38.5543 12.1531L38.6419 12.1048L36.3266 7.90024L36.239 7.94847L36.1514 7.99671L38.4667 12.2013L38.5543 12.1531ZM36.239 7.94847L36.1413 7.92706C35.7163 9.86629 36.2084 12.0935 37.5951 14.6061L37.6826 14.5578L37.7702 14.5094C36.3963 12.02 35.926 9.84386 36.3367 7.96988L36.239 7.94847ZM37.6826 14.5578L37.7766 14.5918L38.6483 12.1871L38.5543 12.1531L38.4603 12.119L37.5886 14.5237L37.6826 14.5578ZM36.9102 6.22205L36.8225 6.27027L39.1104 10.4267L39.198 10.3785L39.2856 10.3302L36.9978 6.17383L36.9102 6.22205ZM39.198 10.3785L39.292 10.4126L40.1467 8.05602L40.0527 8.02193L39.9587 7.98783L39.104 10.3444L39.198 10.3785ZM40.0527 8.02193L40.1497 8.04637C40.1537 8.03061 40.16 8.01682 40.1724 7.98741L40.0802 7.94868L39.988 7.90994C39.9792 7.93077 39.9644 7.96301 39.9558 7.99748L40.0527 8.02193ZM40.0802 7.94868L40.1742 7.98277L42.3586 1.95961L42.2646 1.92552L42.1706 1.89142L39.9861 7.91458L40.0802 7.94868ZM42.2646 1.92552L42.2228 1.83465C39.5938 3.04258 37.7875 4.48552 36.8233 6.17243L36.9102 6.22205L36.997 6.27168C37.9323 4.63519 39.697 3.21526 42.3063 2.01639L42.2646 1.92552ZM41.9416 6.98387L41.9786 7.0768L44.8763 5.92575L44.8394 5.83281L44.8025 5.73988L41.9047 6.89093L41.9416 6.98387ZM44.8394 5.83281L44.937 5.81115C44.6986 4.73682 44.2841 3.58674 43.6905 2.36113L43.6005 2.40472L43.5105 2.44832C44.0988 3.66294 44.5074 4.79825 44.7418 5.85448L44.8394 5.83281ZM43.6005 2.40472L43.5065 2.37066L41.8476 6.94981L41.9416 6.98387L42.0357 7.01793L43.6945 2.43879L43.6005 2.40472ZM27.7589 12.7831L27.7042 12.6994L20.8576 17.176L20.9123 17.2597L20.9671 17.3434L27.8137 12.8668L27.7589 12.7831ZM20.9123 17.2597L20.8902 17.3572C24.3033 18.132 28.144 17.0298 32.3976 14.0812L32.3406 13.9991L32.2837 13.9169C28.0535 16.8492 24.2708 17.9195 20.9345 17.1622L20.9123 17.2597ZM32.3406 13.9991L32.3663 13.9024L27.7846 12.6864L27.7589 12.7831L27.7333 12.8797L32.315 14.0957L32.3406 13.9991ZM19.1926 16.6946L19.2473 16.7783L25.9734 12.3792L25.9187 12.2955L25.864 12.2118L19.1379 16.611L19.1926 16.6946ZM25.9187 12.2955L25.9444 12.1988L20.4172 10.7296L20.3915 10.8263L20.3658 10.9229L25.893 12.3921L25.9187 12.2955ZM20.3915 10.8263L20.3427 10.739L15.0938 13.6774L15.1427 13.7647L15.1915 13.8519L20.4403 10.9135L20.3915 10.8263ZM15.1427 13.7647L15.0705 13.8339C16.3589 15.1768 17.718 16.1627 19.1527 16.7864L19.1926 16.6946L19.2325 16.6029C17.8264 15.9917 16.4886 15.023 15.2148 13.6954L15.1427 13.7647ZM26.2904 10.9287L26.3797 10.8836L22.7728 3.73853L22.6835 3.78359L22.5943 3.82865L26.2012 10.9737L26.2904 10.9287ZM22.6835 3.78359L22.6945 3.68419C21.1362 3.51296 19.4639 3.69302 17.6725 4.21711L17.7006 4.31308L17.7286 4.40906C19.4998 3.8909 21.1453 3.71517 22.6726 3.88299L22.6835 3.78359ZM17.7006 4.31308L17.6146 4.36422L20.6791 9.51476L20.7651 9.46363L20.851 9.41249L17.7865 4.26195L17.7006 4.31308ZM20.7651 9.46363L20.7394 9.56029L26.2648 11.0253L26.2904 10.9287L26.3161 10.832L20.7907 9.36697L20.7651 9.46363ZM24.4564 4.14363L24.3671 4.18868L28.0373 11.4613L28.1266 11.4162L28.2159 11.3712L24.5457 4.09857L24.4564 4.14363ZM28.1266 11.4162L28.1009 11.5129L32.6829 12.7309L32.7086 12.6342L32.7343 12.5376L28.1523 11.3196L28.1266 11.4162ZM32.7086 12.6342L32.799 12.5916C30.6001 7.92825 27.8325 5.06839 24.4856 4.04798L24.4564 4.14363L24.4272 4.23928C27.6984 5.23659 30.4314 8.03953 32.6181 12.6769L32.7086 12.6342ZM14.1865 12.6828L14.2354 12.77L18.4796 10.3925L18.4308 10.3053L18.3819 10.218L14.1376 12.5955L14.1865 12.6828ZM18.4308 10.3053L18.4565 10.2086L11.4072 8.33552L11.3816 8.43217L11.3559 8.52882L18.4051 10.4019L18.4308 10.3053ZM11.3816 8.43217L11.2937 8.47992C12.1867 10.1231 13.1252 11.5454 14.1092 12.7462L14.1865 12.6828L14.2638 12.6194C13.2893 11.4301 12.3576 10.0187 11.4694 8.38442L11.3816 8.43217ZM18.798 8.93863L18.8839 8.88749L16.4062 4.7248L16.3203 4.77595L16.2344 4.8271L18.7121 8.98978L18.798 8.93863ZM16.3203 4.77595L16.2849 4.68241C14.828 5.23335 13.2986 6.00027 11.6967 6.98022L11.7489 7.06552L11.8011 7.15082C13.3945 6.17606 14.9127 5.41517 16.3557 4.86948L16.3203 4.77595ZM11.7489 7.06552L11.7232 7.16217L18.7723 9.03528L18.798 8.93863L18.8237 8.84199L11.7746 6.96887L11.7489 7.06552Z" fill="#2BAAE1" mask="url(#path-1-inside-1_2476_6290)"/>
</svg>
