<svg width="106" height="80" viewBox="0 0 106 80" fill="none" xmlns="http://www.w3.org/2000/svg">
<path d="M67.823 29.7364H62.9148V25.4844C62.9148 20.1677 58.6201 15.8552 53.3193 15.8552C48.0213 15.8552 43.7238 20.1681 43.7238 25.4844V29.7364H38.8156C38.1382 29.7364 37.5886 30.288 37.5886 30.9678V55.489C37.5886 56.1688 38.1382 56.7203 38.8156 56.7203H67.8238C68.5012 56.7203 69.0508 56.1688 69.0508 55.489V30.9678C69.0508 30.288 68.5012 29.7364 67.8238 29.7364H67.823ZM46.1452 25.4844C46.1452 21.5274 49.3438 18.3175 53.287 18.3175C57.2301 18.3175 60.4288 21.5274 60.4288 25.4844V29.7364H46.1452V25.4844ZM66.5959 54.2578H39.9781V32.1994H66.5959V54.2578ZM83.8899 11.4231C83.8835 10.7914 83.4042 10.2655 82.7779 10.2078C71.9643 9.16566 62.2535 6.10328 53.926 1.17787C53.4978 0.921334 52.9609 0.943777 52.5583 1.23559C44.2471 6.161 34.5616 9.20729 23.7964 10.2655C23.1701 10.3232 22.6907 10.8491 22.6843 11.4809L22.3009 45.875C22.2881 46.7922 22.3903 47.7029 22.6012 48.5943C26.1258 62.896 36.0153 72.8109 52.8684 78.9102C53.0154 78.9679 53.1719 79 53.3285 79C53.5138 79 53.696 78.9583 53.8589 78.8781C70.6188 72.7695 80.4768 62.8607 83.9952 48.6041V48.6009C84.2093 47.7095 84.3115 46.7923 84.2987 45.8752L83.8899 11.4231ZM81.5924 47.9435C78.2532 61.4662 69.2647 70.5117 53.2869 76.396C37.31 70.5117 28.3206 61.4654 24.9814 47.9435C24.8185 47.2572 24.7418 46.5518 24.7546 45.8431L25.122 12.5481C35.0308 11.5829 44.6271 8.5398 53.2868 3.61422C61.9465 8.53964 71.542 11.5827 81.4516 12.5481L81.8191 45.8431C81.8319 46.5518 81.7554 47.2573 81.5924 47.9435ZM53.2869 36.7554C51.1364 36.7458 49.3086 38.3267 48.9986 40.459C48.6887 42.5947 49.9957 44.6341 52.0599 45.2369V48.4628C52.0599 49.1427 52.6095 49.6942 53.2869 49.6942C53.9643 49.6942 54.514 49.1427 54.514 48.4628V45.2369C56.5782 44.6341 57.8851 42.5946 57.5752 40.459C57.2652 38.3266 55.4374 36.7458 53.2869 36.7554ZM53.2869 42.9699C52.5264 42.9731 51.8426 42.5177 51.5486 41.8122C51.2578 41.11 51.4176 40.2986 51.9544 39.76C52.4912 39.2213 53.2997 39.0609 53.9995 39.3559C54.6993 39.6477 55.1563 40.3372 55.1531 41.0971C55.1531 41.5942 54.955 42.072 54.6067 42.4215C54.2552 42.7742 53.7822 42.9699 53.2869 42.9699Z" fill="white" stroke="white" stroke-width="0.5"/>
</svg>
