<svg width="53" height="50" viewBox="0 0 53 50" fill="none" xmlns="http://www.w3.org/2000/svg">
<path d="M45.6684 0.999756H12.4436C11.7092 0.999756 11.1116 1.59741 11.1116 2.33193V6.30658H6.33255C5.59809 6.30658 5.00049 6.90423 5.00049 7.63875V47.6676C5.00049 48.4024 5.59809 48.9998 6.33255 48.9998H30.4304C31.1651 48.9998 31.7624 48.4024 31.7624 47.6676V46.8267H45.6684C46.4031 46.8267 47.0005 46.2293 47.0005 45.4945V2.33193C47.0005 1.59741 46.4031 0.999756 45.6684 0.999756ZM30.164 47.4012H6.59896V7.90518H30.164V47.4012ZM38.2859 45.2281H31.7624V7.63875C31.7624 6.90423 31.1651 6.30658 30.4304 6.30658H12.7101V2.59836H38.2859V45.2281ZM45.402 45.2281H39.8844V2.59836H45.402V45.2281ZM8.99381 13.0905C8.68161 12.7785 8.68161 12.2722 8.99381 11.9602L10.9477 10.0062C11.2599 9.69398 11.7656 9.69398 12.0778 10.0062C12.39 10.3182 12.39 10.8245 12.0778 11.1365L10.124 13.0905C9.96788 13.2466 9.76339 13.3247 9.5589 13.3247C9.3544 13.3247 9.14991 13.2466 8.99381 13.0905ZM16.1916 14.2096C16.5038 14.5215 16.5038 15.0279 16.1916 15.3398L14.2378 17.2939C14.0817 17.45 13.8772 17.528 13.6727 17.528C13.4682 17.528 13.2637 17.45 13.1076 17.2939C12.7954 16.9819 12.7954 16.4756 13.1076 16.1636L15.0615 14.2096C15.3737 13.8973 15.8794 13.8973 16.1916 14.2096ZM8.43211 17.8109C8.11991 17.4989 8.11991 16.9926 8.43211 16.6806L15.6232 9.48896C15.9354 9.17673 16.4411 9.17673 16.7533 9.48896C17.0655 9.80092 17.0655 10.3073 16.7533 10.6192L9.56228 17.8109C9.40618 17.967 9.20169 18.045 8.99719 18.045C8.7927 18.045 8.58821 17.967 8.43211 17.8109ZM20.5713 41.0968C20.2591 40.7845 20.2591 40.2787 20.5713 39.9665L22.5252 38.0125C22.8374 37.7003 23.3431 37.7003 23.6553 38.0125C23.9675 38.3247 23.9675 38.8305 23.6553 39.1427L21.7015 41.0968C21.5454 41.2529 21.3409 41.3309 21.1364 41.3309C20.9319 41.3309 20.7274 41.2529 20.5713 41.0968ZM27.7694 42.2161C28.0816 42.5283 28.0816 43.0341 27.7694 43.3464L25.8155 45.3004C25.6594 45.4565 25.4547 45.5346 25.2502 45.5346C25.0457 45.5346 24.8409 45.4565 24.6851 45.3004C24.3729 44.9882 24.3729 44.4823 24.6851 44.1701L26.6392 42.2161C26.9514 41.9039 27.4572 41.9039 27.7694 42.2161ZM20.0096 45.8171C19.6974 45.5049 19.6974 44.9991 20.0096 44.6869L27.2006 37.4952C27.5128 37.183 28.0186 37.183 28.3308 37.4952C28.643 37.8074 28.643 38.3133 28.3308 38.6255L21.1398 45.8171C20.9837 45.9732 20.7792 46.0513 20.5747 46.0513C20.3702 46.0513 20.1657 45.9732 20.0096 45.8171Z" fill="white"/>
</svg>
