<svg width="44" height="38" viewBox="0 0 44 38" fill="none" xmlns="http://www.w3.org/2000/svg">
<path fill-rule="evenodd" clip-rule="evenodd" d="M14.0002 0.128134C12.7564 0.601036 10.8153 1.63989 9.41069 2.58426C7.73017 3.71414 5.42123 5.86908 4.27139 7.38083C2.20604 10.0961 1.12559 12.8578 0.504742 17.0091C0.0871982 19.8005 0.0575058 20.5093 0.0189807 28.6116C-0.0219838 37.2287 -0.0593305 36.6878 0.623342 37.3705C1.28204 38.0294 0.89234 37.9998 8.91567 37.9998C16.6649 37.9998 16.3936 38.0156 17.0338 37.5272C17.1973 37.4025 17.4333 37.1265 17.5583 36.914L17.7854 36.5275L17.8082 29.1858L17.831 21.8441L17.6493 21.4215C17.4359 20.9254 16.8502 20.3725 16.4078 20.2495C16.2265 20.1992 14.7153 20.1647 12.6754 20.1645L9.24776 20.164L9.24776 19.635C9.24776 18.4305 9.59112 16.3863 10.0209 15.032C10.5923 13.2314 11.4642 11.7796 12.7271 10.5258C13.7574 9.50288 14.9505 8.6905 16.6276 7.86972C17.854 7.26961 18.038 7.1207 18.3749 6.45514C18.4642 6.27888 18.5236 5.96474 18.5266 5.65421C18.5308 5.2047 18.4748 5.02213 18.0605 4.1353C16.484 0.760717 16.3551 0.546603 15.6966 0.210583C15.2137 -0.0358372 14.5202 -0.0694899 14.0002 0.128134ZM38.8739 0.0664683C38.4077 0.152535 36.2158 1.22538 35.0288 1.9484C31.4279 4.14195 28.617 7.08074 26.9722 10.3717C25.7694 12.7781 25.1736 15.209 24.7541 19.4228C24.6425 20.5426 24.6106 22.2169 24.5805 28.5268C24.5388 37.2384 24.5011 36.6868 25.1847 37.3705C25.8434 38.0293 25.4542 37.9998 33.4727 37.9998C41.2884 37.9998 41.0144 38.0168 41.65 37.4928C41.8167 37.3554 42.0511 37.0461 42.171 36.8056L42.3888 36.3682L42.387 29.0864C42.3851 21.9425 42.3818 21.7974 42.2138 21.426C42.0169 20.9907 41.7165 20.6518 41.2953 20.3895C41.0078 20.2103 40.9174 20.205 37.3852 20.164L33.7695 20.1219L33.7951 19.4489C33.8615 17.7105 34.281 15.6416 34.8638 14.1801C35.4629 12.6773 36.1805 11.5812 37.2695 10.5053C38.2605 9.52618 39.2723 8.82848 40.8606 8.02924C42.3831 7.26305 42.8087 6.90995 42.981 6.26988C43.185 5.51228 43.0776 5.13058 42.0737 3.04328C41.5134 1.8784 41.0162 0.961204 40.8244 0.738761C40.3372 0.173652 39.6242 -0.0720957 38.8739 0.0664683Z" fill="white"/>
</svg>
