<svg width="1440" height="452" viewBox="0 0 1440 452" fill="none" xmlns="http://www.w3.org/2000/svg">
<mask id="mask0_4087_635" style="mask-type:alpha" maskUnits="userSpaceOnUse" x="0" y="0" width="1440" height="452">
<rect width="1440" height="452" fill="#E6F4FA" fill-opacity="0.6"/>
</mask>
<g mask="url(#mask0_4087_635)">
<g clip-path="url(#clip0_4087_635)">
<mask id="mask1_4087_635" style="mask-type:luminance" maskUnits="userSpaceOnUse" x="-75" y="-164" width="533" height="880">
<path d="M457.062 716V-164H-75V716H457.062Z" fill="white"/>
</mask>
<g mask="url(#mask1_4087_635)">
<path d="M463.125 321.855L412.499 274.682L411.088 275.997L461.714 323.17L463.125 321.855Z" fill="#E6F4FA" fill-opacity="0.6"/>
<path d="M412.502 -92.1877L411.091 -90.8733L363.286 -46.3286L314.07 -92.1877L312.66 -90.8733L361.875 -45.0142L363.286 -43.6997L364.697 -45.0142L412.502 -89.5589L460.307 -45.0142L412.502 -0.469437L411.091 0.844994L412.502 2.15942L461.717 48.0186L463.128 46.7041L413.912 0.844994L461.717 -43.6997L463.128 -45.0142L461.717 -46.3286L413.912 -90.8733L412.502 -92.1877Z" fill="#E6F4FA" fill-opacity="0.6"/>
<path d="M411.091 230.141L363.286 274.686L361.875 276L314.07 320.545L266.265 276L264.855 274.686L217.049 230.141L215.639 228.826L214.228 230.141L166.423 274.686L165.013 276L166.423 277.314L214.228 321.859L166.423 366.404L165.013 367.718L115.797 413.577L117.207 414.892L166.423 369.033L167.834 367.718L215.639 323.174L263.444 367.718L264.855 369.033L312.66 413.577L264.855 458.122L263.444 459.437L264.855 460.751L314.07 506.61L315.481 505.296L266.265 459.437L314.07 414.892L361.875 459.437L363.286 460.751L411.091 505.296L412.502 506.61L460.307 551.155L411.091 597.014L412.502 598.328L461.717 552.469L463.128 551.155L461.717 549.84L413.912 505.296L463.128 459.437L461.717 458.122L412.502 503.981L364.697 459.437L413.912 413.577L412.502 412.263L363.286 458.122L315.481 413.577L314.07 412.263L266.265 367.718L314.07 323.174L361.875 367.718L363.286 369.033L364.697 367.718L412.502 323.174L461.717 369.033L463.128 367.718L413.912 321.859L412.502 320.545L364.697 276L412.502 231.455L461.717 277.314L463.128 276L413.912 230.141L463.128 184.282L461.717 182.967L412.502 228.826L411.091 230.141ZM264.855 366.404L217.049 321.859L215.639 320.545L167.834 276L215.639 231.455L263.444 276L264.855 277.314L312.66 321.859L264.855 366.404ZM411.091 321.859L363.286 366.404L315.481 321.859L363.286 277.314L411.091 321.859Z" fill="#E6F4FA" fill-opacity="0.6"/>
<path d="M412.502 366.404L411.091 367.718L363.286 412.263L314.07 366.404L312.66 367.718L361.875 413.577L363.286 414.892L364.697 413.577L412.502 369.033L460.307 413.577L411.091 459.437L412.502 460.751L461.717 414.892L463.128 413.577L461.717 412.263L413.912 367.718L412.502 366.404Z" fill="#E6F4FA" fill-opacity="0.6"/>
<path d="M411.091 734.591L412.502 735.906L413.912 734.591L463.128 688.732L461.717 687.418L412.502 733.277L364.697 688.732L412.502 644.188L413.912 642.873L463.128 597.014L461.717 595.7L412.502 641.559L364.697 597.014L412.502 552.469L413.912 551.155L412.502 549.84L364.697 505.296L363.286 503.981L314.07 458.122L312.66 459.437L361.875 505.296L314.07 549.84L266.265 505.296L264.855 503.981L217.049 459.437L264.855 414.892L266.265 413.577L264.855 412.263L217.049 367.718L215.639 366.404L214.228 367.718L166.423 412.263L165.013 413.577L117.207 458.122L69.4024 413.577L117.207 369.033L118.618 367.718L166.423 323.173L167.834 321.859L166.423 320.545L118.618 276L166.423 231.455L167.834 230.141L215.639 185.596L263.444 230.141L264.855 231.455L312.66 276L314.07 277.314L315.481 276L363.286 231.455L364.697 230.141L412.502 185.596L413.912 184.282L463.128 138.422L461.717 137.108L412.502 182.967L364.697 138.422L412.502 93.8777L413.912 92.5633L412.502 91.2489L364.697 46.7041L363.286 45.3897L361.875 46.7041L314.07 91.2489L266.265 46.7041L264.855 45.3897L263.444 46.7041L215.639 91.2489L167.834 46.7041L166.423 45.3897L118.618 0.844971L117.207 -0.469452L67.9918 -46.3286L66.5812 -45.0142L115.797 0.844971L117.207 2.15939L165.013 46.7041L166.423 48.0186L214.228 92.5633L215.639 93.8777L217.049 92.5633L264.855 48.0186L312.66 92.5633L264.855 137.108L263.444 138.422L215.639 182.967L214.228 184.282L166.423 228.826L118.618 184.282L117.207 182.967L115.797 184.282L67.9918 228.826L20.1867 184.282L69.4024 138.422L67.9918 137.108L18.7761 182.967L17.3655 184.282L-30.4396 228.826L-78.2447 184.282L-30.4396 139.737L-29.029 138.422L20.1867 92.5633L18.7761 91.2489L-30.4396 137.108L-79.6553 91.2489L-81.0659 92.5633L-31.8502 138.422L-79.6553 182.967L-81.0659 184.282L-79.6553 185.596L-31.8502 230.141L-30.4396 231.455L17.3655 276L-30.4396 320.545L-79.6553 274.686L-81.0659 276L-31.8502 321.859L-79.6553 366.404L-81.0659 367.718L-79.6553 369.033L-31.8502 413.577L-30.4396 414.892L17.3655 459.437L18.7761 460.751L66.5812 505.296L18.7761 549.84L17.3655 551.155L18.7761 552.469L67.9918 598.328L69.4024 597.014L20.1867 551.155L67.9918 506.61L69.4024 505.296L67.9918 503.981L20.1867 459.437L67.9918 414.892L115.797 459.437L117.207 460.751L118.618 459.437L166.423 414.892L167.834 413.577L215.639 369.033L263.444 413.577L215.639 458.122L214.228 459.437L165.013 505.296L166.423 506.61L215.639 460.751L263.444 505.296L214.228 551.155L215.639 552.469L264.855 506.61L312.66 551.155L314.07 552.469L315.481 551.155L363.286 506.61L411.091 551.155L363.286 595.7L361.875 597.014L314.07 641.559L266.265 597.014L264.855 595.7L263.444 597.014L215.639 641.559L214.228 642.873L166.423 687.418L117.207 641.559L115.797 642.873L165.013 688.732L115.797 734.591L117.207 735.906L166.423 690.047L214.228 734.591L215.639 735.906L217.049 734.591L264.855 690.047L266.265 688.732L264.855 687.418L217.049 642.873L264.855 598.328L312.66 642.873L314.07 644.188L361.875 688.732L312.66 734.591L314.07 735.906L363.286 690.047L411.091 734.591ZM314.07 274.686L266.265 230.141L314.07 185.596L361.875 230.141L314.07 274.686ZM314.07 93.8777L315.481 92.5633L363.286 48.0186L411.091 92.5633L363.286 137.108L361.875 138.422L363.286 139.737L411.091 184.282L363.286 228.826L315.481 184.282L314.07 182.967L266.265 138.422L314.07 93.8777ZM264.855 139.737L312.66 184.282L264.855 228.826L217.049 184.282L264.855 139.737ZM67.9918 412.263L20.1867 367.718L67.9918 323.173L115.797 367.718L67.9918 412.263ZM165.013 321.859L117.207 366.404L69.4024 321.859L117.207 277.314L165.013 321.859ZM67.9918 320.545L20.1867 276L67.9918 231.455L115.797 276L67.9918 320.545ZM117.207 185.596L165.013 230.141L117.207 274.686L69.4024 230.141L117.207 185.596ZM-29.029 230.141L18.7761 185.596L66.5812 230.141L18.7761 274.686L-29.029 230.141ZM18.7761 277.314L66.5812 321.859L18.7761 366.404L-29.029 321.859L18.7761 277.314ZM18.7761 458.122L-29.029 413.577L-30.4396 412.263L-78.2447 367.718L-30.4396 323.173L17.3655 367.718L18.7761 369.033L66.5812 413.577L18.7761 458.122ZM263.444 688.732L215.639 733.277L167.834 688.732L215.639 644.188L263.444 688.732ZM315.481 642.873L363.286 598.328L411.091 642.873L363.286 687.418L315.481 642.873Z" fill="#E6F4FA" fill-opacity="0.6"/>
<path d="M364.697 184.282L315.482 138.423L364.697 92.5634L363.287 91.249L314.071 137.108L312.66 138.423L314.071 139.737L363.287 185.596L364.697 184.282Z" fill="#E6F4FA" fill-opacity="0.6"/>
<path d="M266.263 321.854L215.638 274.681L214.227 275.996L264.853 323.168L266.263 321.854Z" fill="#E6F4FA" fill-opacity="0.6"/>
<path d="M117.208 -183.906L115.797 -182.592L67.9924 -138.047L66.5818 -136.732L67.9924 -135.418L115.797 -90.8733L117.208 -89.5588L165.013 -45.0141L166.424 -43.6997L214.229 0.845032L215.639 2.15947L217.05 0.845032L264.855 -43.6997L314.071 2.15947L315.481 0.845032L266.266 -45.0141L264.855 -46.3285L263.444 -45.0141L215.639 -0.469391L167.834 -45.0141L215.639 -89.5588L217.05 -90.8733L215.639 -92.1877L167.834 -136.732L217.05 -182.592L215.639 -183.906L166.424 -138.047L118.619 -182.592L117.208 -183.906ZM214.229 -90.8733L166.424 -46.3285L118.619 -90.8733L166.424 -135.418L214.229 -90.8733ZM165.013 -136.732L117.208 -92.1877L69.403 -136.732L117.208 -181.277L165.013 -136.732Z" fill="#E6F4FA" fill-opacity="0.6"/>
<path d="M115.797 92.5632L117.208 93.8777L166.423 139.737L167.834 138.422L118.618 92.5632L117.208 91.2488L67.992 45.3896L66.5814 46.7041L115.797 92.5632Z" fill="#E6F4FA" fill-opacity="0.6"/>
<path d="M67.9925 735.906L69.4031 734.592L117.208 690.047L118.619 688.733L117.208 687.418L69.4031 642.873L117.208 598.329L165.013 642.873L166.424 644.188L167.835 642.873L215.64 598.329L217.05 597.014L264.855 552.469L312.66 597.014L314.071 598.329L315.482 597.014L364.697 551.155L363.287 549.841L314.071 595.7L266.266 551.155L264.855 549.841L263.445 551.155L215.64 595.7L167.835 551.155L217.05 505.296L215.64 503.981L166.424 549.841L118.619 505.296L166.424 460.751L167.835 459.437L217.05 413.578L215.64 412.263L166.424 458.122L165.013 459.437L117.208 503.981L67.9925 458.122L66.5819 459.437L115.798 505.296L67.9925 549.841L66.5819 551.155L67.9925 552.469L115.798 597.014L67.9925 641.559L20.1875 597.014L18.7769 595.7L-29.0282 551.155L18.7769 506.61L20.1875 505.296L18.7769 503.981L-29.0282 459.437L-30.4388 458.122L-79.6545 412.263L-81.0651 413.578L-31.8495 459.437L-30.4388 460.751L17.3662 505.296L-30.4388 549.841L-79.6545 503.981L-81.0651 505.296L-31.8495 551.155L-81.0651 597.014L-79.6545 598.329L-30.4388 552.469L17.3662 597.014L-31.8495 642.873L-30.4388 644.188L18.7769 598.329L66.5819 642.873L18.7769 687.418L17.3662 688.733L-30.4388 733.277L-79.6545 687.418L-81.0651 688.733L-31.8495 734.592L-30.4388 735.906L-29.0282 734.592L18.7769 690.047L66.5819 734.592L67.9925 735.906ZM214.229 597.014L166.424 641.559L118.619 597.014L166.424 552.469L214.229 597.014ZM69.4031 551.155L117.208 506.61L165.013 551.155L117.208 595.7L69.4031 551.155ZM20.1875 688.733L67.9925 644.188L115.798 688.733L67.9925 733.277L20.1875 688.733Z" fill="#E6F4FA" fill-opacity="0.6"/>
<path d="M20.1852 413.57L-30.4404 366.397L-31.8513 367.712L18.7744 414.885L20.1852 413.57Z" fill="#E6F4FA" fill-opacity="0.6"/>
<path d="M-30.4396 93.8778L-29.029 92.5634L18.7761 48.0186L66.5812 92.5634L18.7761 137.108L17.3655 138.422L-31.8502 184.282L-30.4396 185.596L18.7761 139.737L20.1867 138.422L67.9918 93.8778L115.797 138.422L66.5812 184.282L67.9918 185.596L117.207 139.737L165.013 184.282L166.423 185.596L167.834 184.282L215.639 139.737L217.049 138.422L266.265 92.5634L264.855 91.2489L215.639 137.108L167.834 92.5634L166.423 91.2489L118.618 46.7042L117.207 45.3898L69.4024 0.845032L67.9918 -0.469391L20.1867 -45.0141L67.9918 -89.5588L115.797 -45.0141L117.207 -43.6997L165.013 0.845032L166.423 2.15947L214.228 46.7042L215.639 48.0186L217.049 46.7042L264.855 2.15947L312.66 46.7042L314.07 48.0186L315.481 46.7042L363.286 2.15947L411.091 46.7042L412.502 48.0186L460.307 92.5634L411.091 138.422L412.502 139.737L461.717 93.8778L463.128 92.5634L461.717 91.2489L413.912 46.7042L412.502 45.3898L364.697 0.845032L413.912 -45.0141L412.502 -46.3285L363.286 -0.469391L315.481 -45.0141L314.07 -46.3285L266.265 -90.8733L314.07 -135.418L361.875 -90.8733L363.286 -89.5588L364.697 -90.8733L412.502 -135.418L461.717 -89.5588L463.128 -90.8733L413.912 -136.732L412.502 -138.047L364.697 -182.592L363.286 -183.906L361.875 -182.592L314.07 -138.047L266.265 -182.592L264.855 -183.906L263.444 -182.592L215.639 -138.047L214.228 -136.732L215.639 -135.418L263.444 -90.8733L214.228 -45.0141L215.639 -43.6997L264.855 -89.5588L312.66 -45.0141L314.07 -43.6997L361.875 0.845032L314.07 45.3898L266.265 0.845032L264.855 -0.469391L263.444 0.845032L215.639 45.3898L167.834 0.845032L166.423 -0.469391L118.618 -45.0141L117.207 -46.3285L69.4024 -90.8733L67.9918 -92.1877L20.1867 -136.732L69.4024 -182.592L67.9918 -183.906L18.7761 -138.047L-29.029 -182.592L-30.4396 -183.906L-31.8502 -182.592L-81.0659 -136.732L-79.6553 -135.418L-30.4396 -181.277L17.3655 -136.732L18.7761 -135.418L66.5812 -90.8733L18.7761 -46.3285L17.3655 -45.0141L-30.4396 -0.469391L-78.2447 -45.0141L-29.029 -90.8733L-30.4396 -92.1877L-79.6553 -46.3285L-81.0659 -45.0141L-79.6553 -43.6997L-31.8502 0.845032L-79.6553 45.3898L-81.0659 46.7042L-79.6553 48.0186L-31.8502 92.5634L-30.4396 93.8778ZM363.286 -181.277L411.091 -136.732L363.286 -92.1877L315.481 -136.732L363.286 -181.277ZM217.049 -136.732L264.855 -181.277L312.66 -136.732L264.855 -92.1877L217.049 -136.732ZM115.797 46.7042L117.207 48.0186L165.013 92.5634L166.423 93.8778L214.228 138.422L166.423 182.967L118.618 138.422L117.207 137.108L69.4024 92.5634L67.9918 91.2489L20.1867 46.7042L67.9918 2.15947L115.797 46.7042ZM18.7761 -43.6997L66.5812 0.845032L18.7761 45.3898L-29.029 0.845032L18.7761 -43.6997ZM-78.2447 46.7042L-30.4396 2.15947L17.3655 46.7042L-30.4396 91.2489L-78.2447 46.7042Z" fill="#E6F4FA" fill-opacity="0.6"/>
</g>
</g>
<g clip-path="url(#clip1_4087_635)">
<mask id="mask2_4087_635" style="mask-type:luminance" maskUnits="userSpaceOnUse" x="457" y="-164" width="533" height="880">
<path d="M989.062 716V-164H457V716H989.062Z" fill="white"/>
</mask>
<g mask="url(#mask2_4087_635)">
<path d="M995.125 321.855L944.499 274.682L943.088 275.997L993.714 323.17L995.125 321.855Z" fill="#E6F4FA" fill-opacity="0.6"/>
<path d="M944.502 -92.1877L943.091 -90.8733L895.286 -46.3286L846.07 -92.1877L844.66 -90.8733L893.875 -45.0142L895.286 -43.6997L896.697 -45.0142L944.502 -89.5589L992.307 -45.0142L944.502 -0.469437L943.091 0.844994L944.502 2.15942L993.717 48.0186L995.128 46.7041L945.912 0.844994L993.717 -43.6997L995.128 -45.0142L993.717 -46.3286L945.912 -90.8733L944.502 -92.1877Z" fill="#E6F4FA" fill-opacity="0.6"/>
<path d="M943.091 230.141L895.286 274.686L893.875 276L846.07 320.545L798.265 276L796.855 274.686L749.049 230.141L747.639 228.826L746.228 230.141L698.423 274.686L697.013 276L698.423 277.314L746.228 321.859L698.423 366.404L697.013 367.718L647.797 413.577L649.207 414.892L698.423 369.033L699.834 367.718L747.639 323.174L795.444 367.718L796.855 369.033L844.66 413.577L796.855 458.122L795.444 459.437L796.855 460.751L846.07 506.61L847.481 505.296L798.265 459.437L846.07 414.892L893.875 459.437L895.286 460.751L943.091 505.296L944.502 506.61L992.307 551.155L943.091 597.014L944.502 598.328L993.717 552.469L995.128 551.155L993.717 549.84L945.912 505.296L995.128 459.437L993.717 458.122L944.502 503.981L896.697 459.437L945.912 413.577L944.502 412.263L895.286 458.122L847.481 413.577L846.07 412.263L798.265 367.718L846.07 323.174L893.875 367.718L895.286 369.033L896.697 367.718L944.502 323.174L993.717 369.033L995.128 367.718L945.912 321.859L944.502 320.545L896.697 276L944.502 231.455L993.717 277.314L995.128 276L945.912 230.141L995.128 184.282L993.717 182.967L944.502 228.826L943.091 230.141ZM796.855 366.404L749.049 321.859L747.639 320.545L699.834 276L747.639 231.455L795.444 276L796.855 277.314L844.66 321.859L796.855 366.404ZM943.091 321.859L895.286 366.404L847.481 321.859L895.286 277.314L943.091 321.859Z" fill="#E6F4FA" fill-opacity="0.6"/>
<path d="M944.502 366.404L943.091 367.718L895.286 412.263L846.07 366.404L844.66 367.718L893.875 413.577L895.286 414.892L896.697 413.577L944.502 369.033L992.307 413.577L943.091 459.437L944.502 460.751L993.717 414.892L995.128 413.577L993.717 412.263L945.912 367.718L944.502 366.404Z" fill="#E6F4FA" fill-opacity="0.6"/>
<path d="M943.091 734.591L944.502 735.906L945.912 734.591L995.128 688.732L993.717 687.418L944.502 733.277L896.697 688.732L944.502 644.188L945.912 642.873L995.128 597.014L993.717 595.7L944.502 641.559L896.697 597.014L944.502 552.469L945.912 551.155L944.502 549.84L896.697 505.296L895.286 503.981L846.07 458.122L844.66 459.437L893.875 505.296L846.07 549.84L798.265 505.296L796.855 503.981L749.049 459.437L796.855 414.892L798.265 413.577L796.855 412.263L749.049 367.718L747.639 366.404L746.228 367.718L698.423 412.263L697.013 413.577L649.207 458.122L601.402 413.577L649.207 369.033L650.618 367.718L698.423 323.173L699.834 321.859L698.423 320.545L650.618 276L698.423 231.455L699.834 230.141L747.639 185.596L795.444 230.141L796.855 231.455L844.66 276L846.07 277.314L847.481 276L895.286 231.455L896.697 230.141L944.502 185.596L945.912 184.282L995.128 138.422L993.717 137.108L944.502 182.967L896.697 138.422L944.502 93.8777L945.912 92.5633L944.502 91.2489L896.697 46.7041L895.286 45.3897L893.875 46.7041L846.07 91.2489L798.265 46.7041L796.855 45.3897L795.444 46.7041L747.639 91.2489L699.834 46.7041L698.423 45.3897L650.618 0.844971L649.207 -0.469452L599.992 -46.3286L598.581 -45.0142L647.797 0.844971L649.207 2.15939L697.013 46.7041L698.423 48.0186L746.228 92.5633L747.639 93.8777L749.049 92.5633L796.855 48.0186L844.66 92.5633L796.855 137.108L795.444 138.422L747.639 182.967L746.228 184.282L698.423 228.826L650.618 184.282L649.207 182.967L647.797 184.282L599.992 228.826L552.187 184.282L601.402 138.422L599.992 137.108L550.776 182.967L549.365 184.282L501.56 228.826L453.755 184.282L501.56 139.737L502.971 138.422L552.187 92.5633L550.776 91.2489L501.56 137.108L452.345 91.2489L450.934 92.5633L500.15 138.422L452.345 182.967L450.934 184.282L452.345 185.596L500.15 230.141L501.56 231.455L549.365 276L501.56 320.545L452.345 274.686L450.934 276L500.15 321.859L452.345 366.404L450.934 367.718L452.345 369.033L500.15 413.577L501.56 414.892L549.365 459.437L550.776 460.751L598.581 505.296L550.776 549.84L549.365 551.155L550.776 552.469L599.992 598.328L601.402 597.014L552.187 551.155L599.992 506.61L601.402 505.296L599.992 503.981L552.187 459.437L599.992 414.892L647.797 459.437L649.207 460.751L650.618 459.437L698.423 414.892L699.834 413.577L747.639 369.033L795.444 413.577L747.639 458.122L746.228 459.437L697.013 505.296L698.423 506.61L747.639 460.751L795.444 505.296L746.228 551.155L747.639 552.469L796.855 506.61L844.66 551.155L846.07 552.469L847.481 551.155L895.286 506.61L943.091 551.155L895.286 595.7L893.875 597.014L846.07 641.559L798.265 597.014L796.855 595.7L795.444 597.014L747.639 641.559L746.228 642.873L698.423 687.418L649.207 641.559L647.797 642.873L697.013 688.732L647.797 734.591L649.207 735.906L698.423 690.047L746.228 734.591L747.639 735.906L749.049 734.591L796.855 690.047L798.265 688.732L796.855 687.418L749.049 642.873L796.855 598.328L844.66 642.873L846.07 644.188L893.875 688.732L844.66 734.591L846.07 735.906L895.286 690.047L943.091 734.591ZM846.07 274.686L798.265 230.141L846.07 185.596L893.875 230.141L846.07 274.686ZM846.07 93.8777L847.481 92.5633L895.286 48.0186L943.091 92.5633L895.286 137.108L893.875 138.422L895.286 139.737L943.091 184.282L895.286 228.826L847.481 184.282L846.07 182.967L798.265 138.422L846.07 93.8777ZM796.855 139.737L844.66 184.282L796.855 228.826L749.049 184.282L796.855 139.737ZM599.992 412.263L552.187 367.718L599.992 323.173L647.797 367.718L599.992 412.263ZM697.013 321.859L649.207 366.404L601.402 321.859L649.207 277.314L697.013 321.859ZM599.992 320.545L552.187 276L599.992 231.455L647.797 276L599.992 320.545ZM649.207 185.596L697.013 230.141L649.207 274.686L601.402 230.141L649.207 185.596ZM502.971 230.141L550.776 185.596L598.581 230.141L550.776 274.686L502.971 230.141ZM550.776 277.314L598.581 321.859L550.776 366.404L502.971 321.859L550.776 277.314ZM550.776 458.122L502.971 413.577L501.56 412.263L453.755 367.718L501.56 323.173L549.365 367.718L550.776 369.033L598.581 413.577L550.776 458.122ZM795.444 688.732L747.639 733.277L699.834 688.732L747.639 644.188L795.444 688.732ZM847.481 642.873L895.286 598.328L943.091 642.873L895.286 687.418L847.481 642.873Z" fill="#E6F4FA" fill-opacity="0.6"/>
<path d="M896.697 184.282L847.482 138.423L896.697 92.5634L895.287 91.249L846.071 137.108L844.66 138.423L846.071 139.737L895.287 185.596L896.697 184.282Z" fill="#E6F4FA" fill-opacity="0.6"/>
<path d="M798.263 321.854L747.638 274.681L746.227 275.996L796.853 323.168L798.263 321.854Z" fill="#E6F4FA" fill-opacity="0.6"/>
<path d="M649.208 -183.906L647.797 -182.592L599.992 -138.047L598.582 -136.732L599.992 -135.418L647.797 -90.8733L649.208 -89.5588L697.013 -45.0141L698.424 -43.6997L746.229 0.845032L747.639 2.15947L749.05 0.845032L796.855 -43.6997L846.071 2.15947L847.481 0.845032L798.266 -45.0141L796.855 -46.3285L795.444 -45.0141L747.639 -0.469391L699.834 -45.0141L747.639 -89.5588L749.05 -90.8733L747.639 -92.1877L699.834 -136.732L749.05 -182.592L747.639 -183.906L698.424 -138.047L650.619 -182.592L649.208 -183.906ZM746.229 -90.8733L698.424 -46.3285L650.619 -90.8733L698.424 -135.418L746.229 -90.8733ZM697.013 -136.732L649.208 -92.1877L601.403 -136.732L649.208 -181.277L697.013 -136.732Z" fill="#E6F4FA" fill-opacity="0.6"/>
<path d="M647.797 92.5632L649.208 93.8777L698.423 139.737L699.834 138.422L650.618 92.5632L649.208 91.2488L599.992 45.3896L598.581 46.7041L647.797 92.5632Z" fill="#E6F4FA" fill-opacity="0.6"/>
<path d="M599.993 735.906L601.403 734.592L649.208 690.047L650.619 688.733L649.208 687.418L601.403 642.873L649.208 598.329L697.013 642.873L698.424 644.188L699.835 642.873L747.64 598.329L749.05 597.014L796.855 552.469L844.66 597.014L846.071 598.329L847.482 597.014L896.697 551.155L895.287 549.841L846.071 595.7L798.266 551.155L796.855 549.841L795.445 551.155L747.64 595.7L699.835 551.155L749.05 505.296L747.64 503.981L698.424 549.841L650.619 505.296L698.424 460.751L699.835 459.437L749.05 413.578L747.64 412.263L698.424 458.122L697.013 459.437L649.208 503.981L599.993 458.122L598.582 459.437L647.798 505.296L599.993 549.841L598.582 551.155L599.993 552.469L647.798 597.014L599.993 641.559L552.187 597.014L550.777 595.7L502.972 551.155L550.777 506.61L552.187 505.296L550.777 503.981L502.972 459.437L501.561 458.122L452.345 412.263L450.935 413.578L500.151 459.437L501.561 460.751L549.366 505.296L501.561 549.841L452.345 503.981L450.935 505.296L500.151 551.155L450.935 597.014L452.345 598.329L501.561 552.469L549.366 597.014L500.151 642.873L501.561 644.188L550.777 598.329L598.582 642.873L550.777 687.418L549.366 688.733L501.561 733.277L452.345 687.418L450.935 688.733L500.151 734.592L501.561 735.906L502.972 734.592L550.777 690.047L598.582 734.592L599.993 735.906ZM746.229 597.014L698.424 641.559L650.619 597.014L698.424 552.469L746.229 597.014ZM601.403 551.155L649.208 506.61L697.013 551.155L649.208 595.7L601.403 551.155ZM552.187 688.733L599.993 644.188L647.798 688.733L599.993 733.277L552.187 688.733Z" fill="#E6F4FA" fill-opacity="0.6"/>
<path d="M552.185 413.57L501.56 366.397L500.149 367.712L550.774 414.885L552.185 413.57Z" fill="#E6F4FA" fill-opacity="0.6"/>
<path d="M501.56 93.8778L502.971 92.5634L550.776 48.0186L598.581 92.5634L550.776 137.108L549.365 138.422L500.15 184.282L501.56 185.596L550.776 139.737L552.187 138.422L599.992 93.8778L647.797 138.422L598.581 184.282L599.992 185.596L649.207 139.737L697.013 184.282L698.423 185.596L699.834 184.282L747.639 139.737L749.049 138.422L798.265 92.5634L796.855 91.2489L747.639 137.108L699.834 92.5634L698.423 91.2489L650.618 46.7042L649.207 45.3898L601.402 0.845032L599.992 -0.469391L552.187 -45.0141L599.992 -89.5588L647.797 -45.0141L649.207 -43.6997L697.013 0.845032L698.423 2.15947L746.228 46.7042L747.639 48.0186L749.049 46.7042L796.855 2.15947L844.66 46.7042L846.07 48.0186L847.481 46.7042L895.286 2.15947L943.091 46.7042L944.502 48.0186L992.307 92.5634L943.091 138.422L944.502 139.737L993.717 93.8778L995.128 92.5634L993.717 91.2489L945.912 46.7042L944.502 45.3898L896.697 0.845032L945.912 -45.0141L944.502 -46.3285L895.286 -0.469391L847.481 -45.0141L846.07 -46.3285L798.265 -90.8733L846.07 -135.418L893.875 -90.8733L895.286 -89.5588L896.697 -90.8733L944.502 -135.418L993.717 -89.5588L995.128 -90.8733L945.912 -136.732L944.502 -138.047L896.697 -182.592L895.286 -183.906L893.875 -182.592L846.07 -138.047L798.265 -182.592L796.855 -183.906L795.444 -182.592L747.639 -138.047L746.228 -136.732L747.639 -135.418L795.444 -90.8733L746.228 -45.0141L747.639 -43.6997L796.855 -89.5588L844.66 -45.0141L846.07 -43.6997L893.875 0.845032L846.07 45.3898L798.265 0.845032L796.855 -0.469391L795.444 0.845032L747.639 45.3898L699.834 0.845032L698.423 -0.469391L650.618 -45.0141L649.207 -46.3285L601.402 -90.8733L599.992 -92.1877L552.187 -136.732L601.402 -182.592L599.992 -183.906L550.776 -138.047L502.971 -182.592L501.56 -183.906L500.15 -182.592L450.934 -136.732L452.345 -135.418L501.56 -181.277L549.365 -136.732L550.776 -135.418L598.581 -90.8733L550.776 -46.3285L549.365 -45.0141L501.56 -0.469391L453.755 -45.0141L502.971 -90.8733L501.56 -92.1877L452.345 -46.3285L450.934 -45.0141L452.345 -43.6997L500.15 0.845032L452.345 45.3898L450.934 46.7042L452.345 48.0186L500.15 92.5634L501.56 93.8778ZM895.286 -181.277L943.091 -136.732L895.286 -92.1877L847.481 -136.732L895.286 -181.277ZM749.049 -136.732L796.855 -181.277L844.66 -136.732L796.855 -92.1877L749.049 -136.732ZM647.797 46.7042L649.207 48.0186L697.013 92.5634L698.423 93.8778L746.228 138.422L698.423 182.967L650.618 138.422L649.207 137.108L601.402 92.5634L599.992 91.2489L552.187 46.7042L599.992 2.15947L647.797 46.7042ZM550.776 -43.6997L598.581 0.845032L550.776 45.3898L502.971 0.845032L550.776 -43.6997ZM453.755 46.7042L501.56 2.15947L549.365 46.7042L501.56 91.2489L453.755 46.7042Z" fill="#E6F4FA" fill-opacity="0.6"/>
<path d="M502.971 275.993L452.346 228.82L450.935 230.135L501.561 277.308L502.971 275.993Z" fill="#E6F4FA" fill-opacity="0.6"/>
</g>
</g>
<g clip-path="url(#clip2_4087_635)">
<mask id="mask3_4087_635" style="mask-type:luminance" maskUnits="userSpaceOnUse" x="989" y="-164" width="533" height="880">
<path d="M1521.06 716V-164H989V716H1521.06Z" fill="white"/>
</mask>
<g mask="url(#mask3_4087_635)">
<path d="M1476.5 -92.1877L1475.09 -90.8733L1427.29 -46.3286L1378.07 -92.1877L1376.66 -90.8733L1425.88 -45.0142L1427.29 -43.6997L1428.7 -45.0142L1476.5 -89.5589L1524.31 -45.0142L1476.5 -0.469437L1475.09 0.844994L1476.5 2.15942L1525.72 48.0186L1527.13 46.7041L1477.91 0.844994L1525.72 -43.6997L1527.13 -45.0142L1525.72 -46.3286L1477.91 -90.8733L1476.5 -92.1877Z" fill="#E6F4FA" fill-opacity="0.6"/>
<path d="M1475.09 230.141L1427.29 274.686L1425.88 276L1378.07 320.545L1330.27 276L1328.85 274.686L1281.05 230.141L1279.64 228.826L1278.23 230.141L1230.42 274.686L1229.01 276L1230.42 277.314L1278.23 321.859L1230.42 366.404L1229.01 367.718L1179.8 413.577L1181.21 414.892L1230.42 369.033L1231.83 367.718L1279.64 323.174L1327.44 367.718L1328.85 369.033L1376.66 413.577L1328.85 458.122L1327.44 459.437L1328.85 460.751L1378.07 506.61L1379.48 505.296L1330.27 459.437L1378.07 414.892L1425.88 459.437L1427.29 460.751L1475.09 505.296L1476.5 506.61L1524.31 551.155L1475.09 597.014L1476.5 598.328L1525.72 552.469L1527.13 551.155L1525.72 549.84L1477.91 505.296L1527.13 459.437L1525.72 458.122L1476.5 503.981L1428.7 459.437L1477.91 413.577L1476.5 412.263L1427.29 458.122L1379.48 413.577L1378.07 412.263L1330.27 367.718L1378.07 323.174L1425.88 367.718L1427.29 369.033L1428.7 367.718L1476.5 323.174L1525.72 369.033L1527.13 367.718L1477.91 321.859L1476.5 320.545L1428.7 276L1476.5 231.455L1525.72 277.314L1527.13 276L1477.91 230.141L1527.13 184.282L1525.72 182.967L1476.5 228.826L1475.09 230.141ZM1328.85 366.404L1281.05 321.859L1279.64 320.545L1231.83 276L1279.64 231.455L1327.44 276L1328.85 277.314L1376.66 321.859L1328.85 366.404ZM1475.09 321.859L1427.29 366.404L1379.48 321.859L1427.29 277.314L1475.09 321.859Z" fill="#E6F4FA" fill-opacity="0.6"/>
<path d="M1476.5 366.404L1475.09 367.718L1427.29 412.263L1378.07 366.404L1376.66 367.718L1425.88 413.577L1427.29 414.892L1428.7 413.577L1476.5 369.033L1524.31 413.577L1475.09 459.437L1476.5 460.751L1525.72 414.892L1527.13 413.577L1525.72 412.263L1477.91 367.718L1476.5 366.404Z" fill="#E6F4FA" fill-opacity="0.6"/>
<path d="M1475.09 734.591L1476.5 735.906L1477.91 734.591L1527.13 688.732L1525.72 687.418L1476.5 733.277L1428.7 688.732L1476.5 644.188L1477.91 642.873L1527.13 597.014L1525.72 595.7L1476.5 641.559L1428.7 597.014L1476.5 552.469L1477.91 551.155L1476.5 549.84L1428.7 505.296L1427.29 503.981L1378.07 458.122L1376.66 459.437L1425.88 505.296L1378.07 549.84L1330.27 505.296L1328.85 503.981L1281.05 459.437L1328.85 414.892L1330.27 413.577L1328.85 412.263L1281.05 367.718L1279.64 366.404L1278.23 367.718L1230.42 412.263L1229.01 413.577L1181.21 458.122L1133.4 413.577L1181.21 369.033L1182.62 367.718L1230.42 323.173L1231.83 321.859L1230.42 320.545L1182.62 276L1230.42 231.455L1231.83 230.141L1279.64 185.596L1327.44 230.141L1328.85 231.455L1376.66 276L1378.07 277.314L1379.48 276L1427.29 231.455L1428.7 230.141L1476.5 185.596L1477.91 184.282L1527.13 138.422L1525.72 137.108L1476.5 182.967L1428.7 138.422L1476.5 93.8777L1477.91 92.5633L1476.5 91.2489L1428.7 46.7041L1427.29 45.3897L1425.88 46.7041L1378.07 91.2489L1330.27 46.7041L1328.85 45.3897L1327.44 46.7041L1279.64 91.2489L1231.83 46.7041L1230.42 45.3897L1182.62 0.844971L1181.21 -0.469452L1131.99 -46.3286L1130.58 -45.0142L1179.8 0.844971L1181.21 2.15939L1229.01 46.7041L1230.42 48.0186L1278.23 92.5633L1279.64 93.8777L1281.05 92.5633L1328.85 48.0186L1376.66 92.5633L1328.85 137.108L1327.44 138.422L1279.64 182.967L1278.23 184.282L1230.42 228.826L1182.62 184.282L1181.21 182.967L1179.8 184.282L1131.99 228.826L1084.19 184.282L1133.4 138.422L1131.99 137.108L1082.78 182.967L1081.37 184.282L1033.56 228.826L985.755 184.282L1033.56 139.737L1034.97 138.422L1084.19 92.5633L1082.78 91.2489L1033.56 137.108L984.345 91.2489L982.934 92.5633L1032.15 138.422L984.345 182.967L982.934 184.282L984.345 185.596L1032.15 230.141L1033.56 231.455L1081.37 276L1033.56 320.545L984.345 274.686L982.934 276L1032.15 321.859L984.345 366.404L982.934 367.718L984.345 369.033L1032.15 413.577L1033.56 414.892L1081.37 459.437L1082.78 460.751L1130.58 505.296L1082.78 549.84L1081.37 551.155L1082.78 552.469L1131.99 598.328L1133.4 597.014L1084.19 551.155L1131.99 506.61L1133.4 505.296L1131.99 503.981L1084.19 459.437L1131.99 414.892L1179.8 459.437L1181.21 460.751L1182.62 459.437L1230.42 414.892L1231.83 413.577L1279.64 369.033L1327.44 413.577L1279.64 458.122L1278.23 459.437L1229.01 505.296L1230.42 506.61L1279.64 460.751L1327.44 505.296L1278.23 551.155L1279.64 552.469L1328.85 506.61L1376.66 551.155L1378.07 552.469L1379.48 551.155L1427.29 506.61L1475.09 551.155L1427.29 595.7L1425.88 597.014L1378.07 641.559L1330.27 597.014L1328.85 595.7L1327.44 597.014L1279.64 641.559L1278.23 642.873L1230.42 687.418L1181.21 641.559L1179.8 642.873L1229.01 688.732L1179.8 734.591L1181.21 735.906L1230.42 690.047L1278.23 734.591L1279.64 735.906L1281.05 734.591L1328.85 690.047L1330.27 688.732L1328.85 687.418L1281.05 642.873L1328.85 598.328L1376.66 642.873L1378.07 644.188L1425.88 688.732L1376.66 734.591L1378.07 735.906L1427.29 690.047L1475.09 734.591ZM1378.07 274.686L1330.27 230.141L1378.07 185.596L1425.88 230.141L1378.07 274.686ZM1378.07 93.8777L1379.48 92.5633L1427.29 48.0186L1475.09 92.5633L1427.29 137.108L1425.88 138.422L1427.29 139.737L1475.09 184.282L1427.29 228.826L1379.48 184.282L1378.07 182.967L1330.27 138.422L1378.07 93.8777ZM1328.85 139.737L1376.66 184.282L1328.85 228.826L1281.05 184.282L1328.85 139.737ZM1131.99 412.263L1084.19 367.718L1131.99 323.173L1179.8 367.718L1131.99 412.263ZM1229.01 321.859L1181.21 366.404L1133.4 321.859L1181.21 277.314L1229.01 321.859ZM1131.99 320.545L1084.19 276L1131.99 231.455L1179.8 276L1131.99 320.545ZM1181.21 185.596L1229.01 230.141L1181.21 274.686L1133.4 230.141L1181.21 185.596ZM1034.97 230.141L1082.78 185.596L1130.58 230.141L1082.78 274.686L1034.97 230.141ZM1082.78 277.314L1130.58 321.859L1082.78 366.404L1034.97 321.859L1082.78 277.314ZM1082.78 458.122L1034.97 413.577L1033.56 412.263L985.755 367.718L1033.56 323.173L1081.37 367.718L1082.78 369.033L1130.58 413.577L1082.78 458.122ZM1327.44 688.732L1279.64 733.277L1231.83 688.732L1279.64 644.188L1327.44 688.732ZM1379.48 642.873L1427.29 598.328L1475.09 642.873L1427.29 687.418L1379.48 642.873Z" fill="#E6F4FA" fill-opacity="0.6"/>
<path d="M1428.7 184.282L1379.48 138.423L1428.7 92.5634L1427.29 91.249L1378.07 137.108L1376.66 138.423L1378.07 139.737L1427.29 185.596L1428.7 184.282Z" fill="#E6F4FA" fill-opacity="0.6"/>
<path d="M1330.26 321.854L1279.64 274.681L1278.23 275.996L1328.85 323.168L1330.26 321.854Z" fill="#E6F4FA" fill-opacity="0.6"/>
<path d="M1181.21 -183.906L1179.8 -182.592L1131.99 -138.047L1130.58 -136.732L1131.99 -135.418L1179.8 -90.8733L1181.21 -89.5588L1229.01 -45.0141L1230.42 -43.6997L1278.23 0.845032L1279.64 2.15947L1281.05 0.845032L1328.86 -43.6997L1378.07 2.15947L1379.48 0.845032L1330.27 -45.0141L1328.86 -46.3285L1327.44 -45.0141L1279.64 -0.469391L1231.83 -45.0141L1279.64 -89.5588L1281.05 -90.8733L1279.64 -92.1877L1231.83 -136.732L1281.05 -182.592L1279.64 -183.906L1230.42 -138.047L1182.62 -182.592L1181.21 -183.906ZM1278.23 -90.8733L1230.42 -46.3285L1182.62 -90.8733L1230.42 -135.418L1278.23 -90.8733ZM1229.01 -136.732L1181.21 -92.1877L1133.4 -136.732L1181.21 -181.277L1229.01 -136.732Z" fill="#E6F4FA" fill-opacity="0.6"/>
<path d="M1179.8 92.5632L1181.21 93.8777L1230.42 139.737L1231.83 138.422L1182.62 92.5632L1181.21 91.2488L1131.99 45.3896L1130.58 46.7041L1179.8 92.5632Z" fill="#E6F4FA" fill-opacity="0.6"/>
<path d="M1131.99 735.906L1133.4 734.592L1181.21 690.047L1182.62 688.733L1181.21 687.418L1133.4 642.873L1181.21 598.329L1229.01 642.873L1230.42 644.188L1231.83 642.873L1279.64 598.329L1281.05 597.014L1328.86 552.469L1376.66 597.014L1378.07 598.329L1379.48 597.014L1428.7 551.155L1427.29 549.841L1378.07 595.7L1330.27 551.155L1328.86 549.841L1327.44 551.155L1279.64 595.7L1231.83 551.155L1281.05 505.296L1279.64 503.981L1230.42 549.841L1182.62 505.296L1230.42 460.751L1231.83 459.437L1281.05 413.578L1279.64 412.263L1230.42 458.122L1229.01 459.437L1181.21 503.981L1131.99 458.122L1130.58 459.437L1179.8 505.296L1131.99 549.841L1130.58 551.155L1131.99 552.469L1179.8 597.014L1131.99 641.559L1084.19 597.014L1082.78 595.7L1034.97 551.155L1082.78 506.61L1084.19 505.296L1082.78 503.981L1034.97 459.437L1033.56 458.122L984.345 412.263L982.935 413.578L1032.15 459.437L1033.56 460.751L1081.37 505.296L1033.56 549.841L984.345 503.981L982.935 505.296L1032.15 551.155L982.935 597.014L984.345 598.329L1033.56 552.469L1081.37 597.014L1032.15 642.873L1033.56 644.188L1082.78 598.329L1130.58 642.873L1082.78 687.418L1081.37 688.733L1033.56 733.277L984.345 687.418L982.935 688.733L1032.15 734.592L1033.56 735.906L1034.97 734.592L1082.78 690.047L1130.58 734.592L1131.99 735.906ZM1278.23 597.014L1230.42 641.559L1182.62 597.014L1230.42 552.469L1278.23 597.014ZM1133.4 551.155L1181.21 506.61L1229.01 551.155L1181.21 595.7L1133.4 551.155ZM1084.19 688.733L1131.99 644.188L1179.8 688.733L1131.99 733.277L1084.19 688.733Z" fill="#E6F4FA" fill-opacity="0.6"/>
<path d="M1084.19 413.57L1033.56 366.397L1032.15 367.712L1082.77 414.885L1084.19 413.57Z" fill="#E6F4FA" fill-opacity="0.6"/>
<path d="M1033.56 93.8778L1034.97 92.5634L1082.78 48.0186L1130.58 92.5634L1082.78 137.108L1081.37 138.422L1032.15 184.282L1033.56 185.596L1082.78 139.737L1084.19 138.422L1131.99 93.8778L1179.8 138.422L1130.58 184.282L1131.99 185.596L1181.21 139.737L1229.01 184.282L1230.42 185.596L1231.83 184.282L1279.64 139.737L1281.05 138.422L1330.27 92.5634L1328.85 91.2489L1279.64 137.108L1231.83 92.5634L1230.42 91.2489L1182.62 46.7042L1181.21 45.3898L1133.4 0.845032L1131.99 -0.469391L1084.19 -45.0141L1131.99 -89.5588L1179.8 -45.0141L1181.21 -43.6997L1229.01 0.845032L1230.42 2.15947L1278.23 46.7042L1279.64 48.0186L1281.05 46.7042L1328.85 2.15947L1376.66 46.7042L1378.07 48.0186L1379.48 46.7042L1427.29 2.15947L1475.09 46.7042L1476.5 48.0186L1524.31 92.5634L1475.09 138.422L1476.5 139.737L1525.72 93.8778L1527.13 92.5634L1525.72 91.2489L1477.91 46.7042L1476.5 45.3898L1428.7 0.845032L1477.91 -45.0141L1476.5 -46.3285L1427.29 -0.469391L1379.48 -45.0141L1378.07 -46.3285L1330.27 -90.8733L1378.07 -135.418L1425.88 -90.8733L1427.29 -89.5588L1428.7 -90.8733L1476.5 -135.418L1525.72 -89.5588L1527.13 -90.8733L1477.91 -136.732L1476.5 -138.047L1428.7 -182.592L1427.29 -183.906L1425.88 -182.592L1378.07 -138.047L1330.27 -182.592L1328.85 -183.906L1327.44 -182.592L1279.64 -138.047L1278.23 -136.732L1279.64 -135.418L1327.44 -90.8733L1278.23 -45.0141L1279.64 -43.6997L1328.85 -89.5588L1376.66 -45.0141L1378.07 -43.6997L1425.88 0.845032L1378.07 45.3898L1330.27 0.845032L1328.85 -0.469391L1327.44 0.845032L1279.64 45.3898L1231.83 0.845032L1230.42 -0.469391L1182.62 -45.0141L1181.21 -46.3285L1133.4 -90.8733L1131.99 -92.1877L1084.19 -136.732L1133.4 -182.592L1131.99 -183.906L1082.78 -138.047L1034.97 -182.592L1033.56 -183.906L1032.15 -182.592L982.934 -136.732L984.345 -135.418L1033.56 -181.277L1081.37 -136.732L1082.78 -135.418L1130.58 -90.8733L1082.78 -46.3285L1081.37 -45.0141L1033.56 -0.469391L985.755 -45.0141L1034.97 -90.8733L1033.56 -92.1877L984.345 -46.3285L982.934 -45.0141L984.345 -43.6997L1032.15 0.845032L984.345 45.3898L982.934 46.7042L984.345 48.0186L1032.15 92.5634L1033.56 93.8778ZM1427.29 -181.277L1475.09 -136.732L1427.29 -92.1877L1379.48 -136.732L1427.29 -181.277ZM1281.05 -136.732L1328.85 -181.277L1376.66 -136.732L1328.85 -92.1877L1281.05 -136.732ZM1179.8 46.7042L1181.21 48.0186L1229.01 92.5634L1230.42 93.8778L1278.23 138.422L1230.42 182.967L1182.62 138.422L1181.21 137.108L1133.4 92.5634L1131.99 91.2489L1084.19 46.7042L1131.99 2.15947L1179.8 46.7042ZM1082.78 -43.6997L1130.58 0.845032L1082.78 45.3898L1034.97 0.845032L1082.78 -43.6997ZM985.755 46.7042L1033.56 2.15947L1081.37 46.7042L1033.56 91.2489L985.755 46.7042Z" fill="#E6F4FA" fill-opacity="0.6"/>
<path d="M1034.97 275.993L984.346 228.82L982.935 230.135L1033.56 277.308L1034.97 275.993Z" fill="#E6F4FA" fill-opacity="0.6"/>
</g>
</g>
</g>
<defs>
<clipPath id="clip0_4087_635">
<rect width="880" height="532.062" fill="white" transform="matrix(0 1 -1 0 457.062 -164)"/>
</clipPath>
<clipPath id="clip1_4087_635">
<rect width="880" height="532.062" fill="white" transform="matrix(0 1 -1 0 989.062 -164)"/>
</clipPath>
<clipPath id="clip2_4087_635">
<rect width="880" height="532" fill="white" transform="matrix(0 1 -1 0 1521 -164)"/>
</clipPath>
</defs>
</svg>
