<svg width="85" height="80" viewBox="0 0 85 80" fill="none" xmlns="http://www.w3.org/2000/svg">
<path d="M23.7573 47.3359C25.7914 46.4955 28.0542 46.3856 30.1597 47.0264C32.2651 47.6672 34.0832 49.0186 35.3042 50.8496C36.5253 52.6808 37.0738 54.8792 36.856 57.0693C36.638 59.2593 35.6667 61.3057 34.1089 62.8604C33.227 63.7451 32.1784 64.4468 31.0239 64.9238C29.8696 65.4007 28.6322 65.6438 27.3833 65.6396H27.3823C25.1816 65.638 23.0493 64.874 21.3491 63.4766C19.6488 62.079 18.4858 60.1346 18.0581 57.9756C17.6305 55.8167 17.9643 53.5759 19.0034 51.6357C20.0426 49.6956 21.7232 48.1764 23.7573 47.3359ZM27.3823 49.0928C25.7551 49.094 24.1786 49.6593 22.9214 50.6924C21.6641 51.7255 20.8034 53.1626 20.4868 54.7588C20.1703 56.3549 20.4173 58.0115 21.1851 59.4463C21.9529 60.8811 23.195 62.0058 24.6987 62.6279C26.2023 63.2498 27.8752 63.3313 29.4321 62.8584C30.9891 62.3855 32.3341 61.3874 33.2378 60.0342C34.1415 58.6809 34.548 57.0559 34.3882 55.4365C34.2283 53.8171 33.5117 52.3029 32.3608 51.1523C31.7084 50.497 30.9321 49.9775 30.0776 49.624C29.3301 49.3148 28.5354 49.1381 27.729 49.1006L27.3823 49.0928Z" fill="white" stroke="#003946" stroke-width="0.2"/>
<path d="M39.373 31.717C41.4059 30.8762 43.6676 30.766 45.7725 31.4055C47.8773 32.0451 49.6955 33.3943 50.917 35.2239C52.1385 37.0535 52.6871 39.2504 52.4707 41.4397C52.2677 43.4922 51.4042 45.4197 50.0146 46.9338L49.7295 47.2307C48.8468 48.1147 47.7979 48.8157 46.6436 49.2932C45.4893 49.7707 44.2521 50.0159 43.0029 50.0139L42.5908 50.0042C40.5379 49.9141 38.5652 49.1609 36.9717 47.8518C35.2718 46.4553 34.1088 44.5127 33.6807 42.3547C33.2525 40.197 33.5852 37.9575 34.623 36.0178C35.661 34.0781 37.3401 32.558 39.373 31.717ZM43.0029 33.4729C41.3759 33.4738 39.7992 34.0387 38.542 35.0715C37.2849 36.1043 36.4251 37.5412 36.1084 39.137C35.7918 40.7329 36.038 42.3899 36.8057 43.8245C37.5734 45.259 38.8149 46.3832 40.3184 47.0051C41.8218 47.627 43.495 47.7076 45.0518 47.2346C46.6084 46.7615 47.9532 45.7635 48.8564 44.4104C49.7596 43.0573 50.166 41.4327 50.0059 39.8137C49.8457 38.1946 49.1285 36.6806 47.9775 35.5305C47.3251 34.8767 46.5498 34.3583 45.6963 34.0051C44.8425 33.652 43.9269 33.471 43.0029 33.4729Z" fill="white" stroke="#003946" stroke-width="0.2"/>
<path d="M56.77 15.5518C58.3051 15.2473 59.8919 15.3259 61.3892 15.7812C62.8864 16.2367 64.2484 17.0544 65.354 18.1621C66.6821 19.4927 67.5858 21.1872 67.9517 23.0312C68.3174 24.8754 68.1284 26.7866 67.4087 28.5234C66.6889 30.2603 65.4707 31.7451 63.9077 32.79C62.3448 33.8349 60.5075 34.3933 58.6274 34.3945C57.0625 34.3956 55.5216 34.0105 54.1411 33.2734C52.7605 32.5363 51.5822 31.47 50.7124 30.1689C49.8428 28.8681 49.3073 27.3727 49.1538 25.8154C49.0003 24.2579 49.2334 22.686 49.8325 21.2402C50.4316 19.7945 51.3783 18.5187 52.5884 17.5264C53.7984 16.534 55.2351 15.8563 56.77 15.5518ZM58.6274 17.8477C56.9999 17.8476 55.4227 18.4118 54.1646 19.4443C52.9065 20.4768 52.0456 21.9136 51.728 23.5098C51.4106 25.1059 51.6562 26.763 52.4233 28.1982C53.1906 29.6336 54.4323 30.7591 55.936 31.3818C57.4396 32.0044 59.1131 32.0868 60.6704 31.6143C62.2277 31.1416 63.573 30.1433 64.4771 28.79C65.3811 27.4367 65.7882 25.8111 65.6284 24.1914C65.4686 22.5719 64.7519 21.0578 63.6011 19.9072C62.9495 19.2522 62.1745 18.7325 61.3208 18.3789C60.5738 18.0695 59.7791 17.8932 58.9731 17.8555L58.6274 17.8477Z" fill="white" stroke="#003946" stroke-width="0.2"/>
<mask id="path-4-inside-1_2508_7575" fill="white">
<path d="M27.6334 79C27.2787 78.9998 26.9386 78.859 26.6876 78.6083L23.2279 75.1502L23.1827 75.1954C22.2795 76.0967 21.0557 76.6029 19.7798 76.6029C18.5039 76.6029 17.28 76.0967 16.3769 75.1954L7.57095 66.3878C6.66964 65.4847 6.16344 64.2609 6.16344 62.9849C6.16344 61.709 6.66964 60.4852 7.57095 59.5821L7.61614 59.5369L3.89189 55.8126C3.64096 55.5615 3.5 55.2211 3.5 54.8661C3.5 54.5111 3.64096 54.1707 3.89189 53.9196L17.7076 40.1039C16.9502 38.8103 16.643 37.3021 16.8341 35.8153C17.0252 34.3286 17.7038 32.9471 18.7638 31.8871C19.8238 30.8272 21.2052 30.1485 22.692 29.9574C24.1788 29.7663 25.687 30.0735 26.9806 30.8309L33.331 24.4805C32.5736 23.1869 32.2664 21.6787 32.4575 20.192C32.6486 18.7052 33.3273 17.3237 34.3872 16.2638C35.4472 15.2038 36.8287 14.5252 38.3154 14.334C39.8022 14.1429 41.3104 14.4501 42.604 15.2076L56.4197 1.39189C56.6708 1.14096 57.0113 1 57.3662 1C57.7212 1 58.0617 1.14096 58.3128 1.39189L62.037 5.11613L62.0822 5.07093C62.9854 4.16963 64.2092 3.66343 65.4851 3.66343C66.761 3.66343 67.9849 4.16963 68.888 5.07093L77.694 13.8769C78.5953 14.78 79.1015 16.0038 79.1015 17.2797C79.1015 18.5557 78.5953 19.7795 77.694 20.6826L77.6488 20.7278L81.1086 24.1876C81.3595 24.4387 81.5004 24.7791 81.5004 25.1341C81.5004 25.4891 81.3595 25.8296 81.1086 26.0807L67.3531 39.8327C68.2183 41.1364 68.606 42.6993 68.4502 44.2563C68.2944 45.8132 67.6048 47.2683 66.4983 48.3748C65.3919 49.4812 63.9368 50.1708 62.3798 50.3266C60.8229 50.4824 59.26 50.0948 57.9563 49.2295L51.7313 55.4544C52.5971 56.7584 52.9851 58.3218 52.8295 59.8792C52.6738 61.4367 51.9842 62.8923 50.8775 63.9992C49.7708 65.1061 48.3153 65.796 46.7578 65.9519C45.2004 66.1078 43.637 65.7201 42.3328 64.8546L28.5791 78.6083C28.3281 78.859 27.988 78.9998 27.6334 79ZM23.2279 71.9164C23.4038 71.9163 23.578 71.9508 23.7405 72.018C23.9031 72.0852 24.0508 72.1838 24.1752 72.3081L27.6334 75.7679L41.2934 62.1062C41.4178 61.9817 41.5654 61.8829 41.728 61.8155C41.8906 61.7481 42.0648 61.7135 42.2408 61.7135C42.4168 61.7135 42.591 61.7481 42.7536 61.8155C42.9161 61.8829 43.0638 61.9817 43.1882 62.1062C43.5686 62.4868 44.0204 62.7887 44.5176 62.9947C45.0147 63.2007 45.5476 63.3068 46.0858 63.3069C46.624 63.307 47.1569 63.2011 47.6541 62.9952C48.1513 62.7893 48.6032 62.4875 48.9838 62.107C49.3644 61.7265 49.6663 61.2748 49.8723 60.7776C50.0783 60.2805 50.1844 59.7476 50.1845 59.2094C50.1846 58.6712 50.0786 58.1383 49.8728 57.6411C49.6669 57.1438 49.3651 56.692 48.9846 56.3114C48.8601 56.1871 48.7613 56.0394 48.6939 55.8768C48.6266 55.7143 48.5919 55.54 48.5919 55.3641C48.5919 55.1881 48.6266 55.0138 48.6939 54.8513C48.7613 54.6887 48.8601 54.541 48.9846 54.4167L56.9168 46.4845C57.0412 46.36 57.1889 46.2612 57.3514 46.1938C57.514 46.1264 57.6882 46.0917 57.8642 46.0917C58.0402 46.0917 58.2144 46.1264 58.377 46.1938C58.5395 46.2612 58.6872 46.36 58.8116 46.4845C59.1922 46.865 59.644 47.1668 60.1412 47.3726C60.6385 47.5785 61.1714 47.6844 61.7096 47.6844C62.2477 47.6843 62.7806 47.5782 63.2778 47.3722C63.775 47.1662 64.2267 46.8642 64.6072 46.4836C64.9877 46.103 65.2895 45.6512 65.4954 45.154C65.7012 44.6567 65.8072 44.1238 65.8071 43.5857C65.807 43.0475 65.7009 42.5146 65.4949 42.0174C65.2889 41.5203 64.987 41.0685 64.6064 40.688C64.4819 40.5637 64.3831 40.416 64.3157 40.2534C64.2483 40.0909 64.2136 39.9166 64.2136 39.7407C64.2136 39.5647 64.2483 39.3904 64.3157 39.2279C64.3831 39.0653 64.4819 38.9176 64.6064 38.7933L78.2681 25.1333L74.8049 21.6752C74.6804 21.5508 74.5817 21.4031 74.5143 21.2406C74.4469 21.078 74.4122 20.9038 74.4122 20.7278C74.4122 20.5518 74.4469 20.3776 74.5143 20.215C74.5817 20.0525 74.6804 19.9048 74.8049 19.7804L75.7975 18.7895C76.1949 18.3889 76.4179 17.8474 76.4179 17.2831C76.4179 16.7188 76.1949 16.1773 75.7975 15.7767L66.9916 6.97239C66.5913 6.57417 66.0497 6.35062 65.4851 6.35062C64.9205 6.35062 64.3789 6.57417 63.9787 6.97239L62.9861 7.96329C62.735 8.21422 62.3945 8.35518 62.0396 8.35518C61.6846 8.35518 61.3441 8.21422 61.093 7.96329L57.3671 4.23235L43.697 17.9057C43.457 18.1459 43.1347 18.2859 42.7953 18.2974C42.456 18.3089 42.1249 18.191 41.8692 17.9677C41.0866 17.2849 40.074 16.9247 39.0361 16.96C37.9981 16.9953 37.0123 17.4234 36.2779 18.1578C35.5436 18.8921 35.1154 19.878 35.0802 20.9159C35.0449 21.9539 35.405 22.9665 36.0878 23.749C36.3111 24.0048 36.429 24.3358 36.4175 24.6752C36.406 25.0145 36.266 25.3368 36.0259 25.5768L28.0736 33.5291C27.8335 33.7693 27.5112 33.9092 27.1719 33.9207C26.8325 33.9322 26.5015 33.8144 26.2458 33.5911C25.4632 32.9083 24.4506 32.5481 23.4126 32.5834C22.3747 32.6187 21.3888 33.0468 20.6545 33.7812C19.9201 34.5155 19.492 35.5014 19.4567 36.5393C19.4214 37.5773 19.7816 38.5899 20.4644 39.3724C20.6877 39.6282 20.8056 39.9592 20.7941 40.2985C20.7826 40.6379 20.6426 40.9602 20.4024 41.2002L6.73236 54.8669L10.4566 58.5912C10.7075 58.8423 10.8485 59.1827 10.8485 59.5377C10.8485 59.8927 10.7075 60.2332 10.4566 60.4843L9.46571 61.4768C9.06708 61.8768 8.84325 62.4185 8.84325 62.9833C8.84325 63.548 9.06708 64.0897 9.46571 64.4897L18.27 73.309C18.6707 73.7064 19.2121 73.9294 19.7764 73.9294C20.3408 73.9294 20.8822 73.7064 21.2829 73.309L22.2805 72.3047C22.5324 72.0549 22.8731 71.9152 23.2279 71.9164Z"/>
</mask>
<path d="M27.6334 79C27.2787 78.9998 26.9386 78.859 26.6876 78.6083L23.2279 75.1502L23.1827 75.1954C22.2795 76.0967 21.0557 76.6029 19.7798 76.6029C18.5039 76.6029 17.28 76.0967 16.3769 75.1954L7.57095 66.3878C6.66964 65.4847 6.16344 64.2609 6.16344 62.9849C6.16344 61.709 6.66964 60.4852 7.57095 59.5821L7.61614 59.5369L3.89189 55.8126C3.64096 55.5615 3.5 55.2211 3.5 54.8661C3.5 54.5111 3.64096 54.1707 3.89189 53.9196L17.7076 40.1039C16.9502 38.8103 16.643 37.3021 16.8341 35.8153C17.0252 34.3286 17.7038 32.9471 18.7638 31.8871C19.8238 30.8272 21.2052 30.1485 22.692 29.9574C24.1788 29.7663 25.687 30.0735 26.9806 30.8309L33.331 24.4805C32.5736 23.1869 32.2664 21.6787 32.4575 20.192C32.6486 18.7052 33.3273 17.3237 34.3872 16.2638C35.4472 15.2038 36.8287 14.5252 38.3154 14.334C39.8022 14.1429 41.3104 14.4501 42.604 15.2076L56.4197 1.39189C56.6708 1.14096 57.0113 1 57.3662 1C57.7212 1 58.0617 1.14096 58.3128 1.39189L62.037 5.11613L62.0822 5.07093C62.9854 4.16963 64.2092 3.66343 65.4851 3.66343C66.761 3.66343 67.9849 4.16963 68.888 5.07093L77.694 13.8769C78.5953 14.78 79.1015 16.0038 79.1015 17.2797C79.1015 18.5557 78.5953 19.7795 77.694 20.6826L77.6488 20.7278L81.1086 24.1876C81.3595 24.4387 81.5004 24.7791 81.5004 25.1341C81.5004 25.4891 81.3595 25.8296 81.1086 26.0807L67.3531 39.8327C68.2183 41.1364 68.606 42.6993 68.4502 44.2563C68.2944 45.8132 67.6048 47.2683 66.4983 48.3748C65.3919 49.4812 63.9368 50.1708 62.3798 50.3266C60.8229 50.4824 59.26 50.0948 57.9563 49.2295L51.7313 55.4544C52.5971 56.7584 52.9851 58.3218 52.8295 59.8792C52.6738 61.4367 51.9842 62.8923 50.8775 63.9992C49.7708 65.1061 48.3153 65.796 46.7578 65.9519C45.2004 66.1078 43.637 65.7201 42.3328 64.8546L28.5791 78.6083C28.3281 78.859 27.988 78.9998 27.6334 79ZM23.2279 71.9164C23.4038 71.9163 23.578 71.9508 23.7405 72.018C23.9031 72.0852 24.0508 72.1838 24.1752 72.3081L27.6334 75.7679L41.2934 62.1062C41.4178 61.9817 41.5654 61.8829 41.728 61.8155C41.8906 61.7481 42.0648 61.7135 42.2408 61.7135C42.4168 61.7135 42.591 61.7481 42.7536 61.8155C42.9161 61.8829 43.0638 61.9817 43.1882 62.1062C43.5686 62.4868 44.0204 62.7887 44.5176 62.9947C45.0147 63.2007 45.5476 63.3068 46.0858 63.3069C46.624 63.307 47.1569 63.2011 47.6541 62.9952C48.1513 62.7893 48.6032 62.4875 48.9838 62.107C49.3644 61.7265 49.6663 61.2748 49.8723 60.7776C50.0783 60.2805 50.1844 59.7476 50.1845 59.2094C50.1846 58.6712 50.0786 58.1383 49.8728 57.6411C49.6669 57.1438 49.3651 56.692 48.9846 56.3114C48.8601 56.1871 48.7613 56.0394 48.6939 55.8768C48.6266 55.7143 48.5919 55.54 48.5919 55.3641C48.5919 55.1881 48.6266 55.0138 48.6939 54.8513C48.7613 54.6887 48.8601 54.541 48.9846 54.4167L56.9168 46.4845C57.0412 46.36 57.1889 46.2612 57.3514 46.1938C57.514 46.1264 57.6882 46.0917 57.8642 46.0917C58.0402 46.0917 58.2144 46.1264 58.377 46.1938C58.5395 46.2612 58.6872 46.36 58.8116 46.4845C59.1922 46.865 59.644 47.1668 60.1412 47.3726C60.6385 47.5785 61.1714 47.6844 61.7096 47.6844C62.2477 47.6843 62.7806 47.5782 63.2778 47.3722C63.775 47.1662 64.2267 46.8642 64.6072 46.4836C64.9877 46.103 65.2895 45.6512 65.4954 45.154C65.7012 44.6567 65.8072 44.1238 65.8071 43.5857C65.807 43.0475 65.7009 42.5146 65.4949 42.0174C65.2889 41.5203 64.987 41.0685 64.6064 40.688C64.4819 40.5637 64.3831 40.416 64.3157 40.2534C64.2483 40.0909 64.2136 39.9166 64.2136 39.7407C64.2136 39.5647 64.2483 39.3904 64.3157 39.2279C64.3831 39.0653 64.4819 38.9176 64.6064 38.7933L78.2681 25.1333L74.8049 21.6752C74.6804 21.5508 74.5817 21.4031 74.5143 21.2406C74.4469 21.078 74.4122 20.9038 74.4122 20.7278C74.4122 20.5518 74.4469 20.3776 74.5143 20.215C74.5817 20.0525 74.6804 19.9048 74.8049 19.7804L75.7975 18.7895C76.1949 18.3889 76.4179 17.8474 76.4179 17.2831C76.4179 16.7188 76.1949 16.1773 75.7975 15.7767L66.9916 6.97239C66.5913 6.57417 66.0497 6.35062 65.4851 6.35062C64.9205 6.35062 64.3789 6.57417 63.9787 6.97239L62.9861 7.96329C62.735 8.21422 62.3945 8.35518 62.0396 8.35518C61.6846 8.35518 61.3441 8.21422 61.093 7.96329L57.3671 4.23235L43.697 17.9057C43.457 18.1459 43.1347 18.2859 42.7953 18.2974C42.456 18.3089 42.1249 18.191 41.8692 17.9677C41.0866 17.2849 40.074 16.9247 39.0361 16.96C37.9981 16.9953 37.0123 17.4234 36.2779 18.1578C35.5436 18.8921 35.1154 19.878 35.0802 20.9159C35.0449 21.9539 35.405 22.9665 36.0878 23.749C36.3111 24.0048 36.429 24.3358 36.4175 24.6752C36.406 25.0145 36.266 25.3368 36.0259 25.5768L28.0736 33.5291C27.8335 33.7693 27.5112 33.9092 27.1719 33.9207C26.8325 33.9322 26.5015 33.8144 26.2458 33.5911C25.4632 32.9083 24.4506 32.5481 23.4126 32.5834C22.3747 32.6187 21.3888 33.0468 20.6545 33.7812C19.9201 34.5155 19.492 35.5014 19.4567 36.5393C19.4214 37.5773 19.7816 38.5899 20.4644 39.3724C20.6877 39.6282 20.8056 39.9592 20.7941 40.2985C20.7826 40.6379 20.6426 40.9602 20.4024 41.2002L6.73236 54.8669L10.4566 58.5912C10.7075 58.8423 10.8485 59.1827 10.8485 59.5377C10.8485 59.8927 10.7075 60.2332 10.4566 60.4843L9.46571 61.4768C9.06708 61.8768 8.84325 62.4185 8.84325 62.9833C8.84325 63.548 9.06708 64.0897 9.46571 64.4897L18.27 73.309C18.6707 73.7064 19.2121 73.9294 19.7764 73.9294C20.3408 73.9294 20.8822 73.7064 21.2829 73.309L22.2805 72.3047C22.5324 72.0549 22.8731 71.9152 23.2279 71.9164Z" fill="white" stroke="#003946" stroke-width="0.4" mask="url(#path-4-inside-1_2508_7575)"/>
<path d="M16.3013 48.3997C16.4698 48.395 16.6378 48.4251 16.7944 48.4875C16.9511 48.5501 17.0942 48.6435 17.2134 48.7629C17.3324 48.8824 17.4257 49.0251 17.4878 49.1819C17.5499 49.3386 17.5788 49.5065 17.5737 49.675C17.5687 49.8435 17.5298 50.0096 17.4585 50.1624C17.4049 50.277 17.3338 50.3829 17.2485 50.4758L17.1587 50.5637L17.1548 50.5686L15.2495 52.4729C15.0188 52.7042 14.7061 52.8353 14.3794 52.8372L14.1968 52.8235C14.0165 52.7967 13.8438 52.7302 13.6909 52.6282C13.487 52.4921 13.3277 52.299 13.2339 52.0725C13.14 51.846 13.1157 51.5962 13.1636 51.3557C13.2115 51.1154 13.33 50.8951 13.5034 50.7219L15.4077 48.8167L15.4116 48.8127C15.524 48.6869 15.6609 48.5849 15.814 48.5139C15.9669 48.443 16.1328 48.4043 16.3013 48.3997Z" fill="white" stroke="#003946" stroke-width="0.2"/>
<path d="M23.8418 40.8892C24.1705 40.889 24.4863 41.0201 24.7188 41.2524C24.9511 41.4847 25.0819 41.7999 25.082 42.1284C25.0821 42.457 24.951 42.7719 24.7188 43.0044L22.8125 44.9097C22.6982 45.0251 22.5621 45.1168 22.4121 45.1792C22.262 45.2416 22.1001 45.2742 21.9375 45.2739C21.6924 45.2741 21.4529 45.201 21.249 45.0649C21.0451 44.9288 20.8859 44.7348 20.792 44.5083C20.6983 44.2819 20.6738 44.0328 20.7217 43.7925C20.7696 43.552 20.888 43.331 21.0615 43.1577L22.9658 41.2524C23.198 41.0201 23.5133 40.8894 23.8418 40.8892Z" fill="white" stroke="#003946" stroke-width="0.2"/>
<path d="M31.4058 33.3247C31.5685 33.3246 31.73 33.3572 31.8804 33.4194C32.0307 33.4816 32.1676 33.573 32.2827 33.688C32.3976 33.8029 32.489 33.9392 32.5513 34.0894C32.6136 34.2397 32.6459 34.4012 32.646 34.564C32.646 34.7265 32.6134 34.8874 32.5513 35.0376C32.4891 35.188 32.3977 35.3248 32.2827 35.4399L30.3784 37.3462C30.2633 37.4612 30.1265 37.5526 29.9761 37.6147C29.8257 37.6769 29.6642 37.7096 29.5015 37.7095C29.2564 37.7096 29.0168 37.6365 28.813 37.5005C28.609 37.3644 28.4498 37.1704 28.356 36.9438C28.2622 36.7174 28.2378 36.4684 28.2856 36.228C28.3335 35.9875 28.452 35.7665 28.6255 35.5933L30.5298 33.688C30.6448 33.5729 30.7819 33.4817 30.9321 33.4194C31.0823 33.3572 31.2432 33.3248 31.4058 33.3247Z" fill="white" stroke="#003946" stroke-width="0.2"/>
<path d="M38.9707 25.7615C39.1334 25.7615 39.295 25.7939 39.4453 25.8562C39.5956 25.9185 39.7326 26.0097 39.8477 26.1248C39.9627 26.2399 40.0539 26.3767 40.1162 26.5271C40.1785 26.6775 40.21 26.8389 40.21 27.0017C40.21 27.1645 40.1785 27.3259 40.1162 27.4763C40.0539 27.6267 39.9627 27.7636 39.8477 27.8787L37.9404 29.7849C37.708 30.0161 37.3932 30.1455 37.0654 30.1453C36.8204 30.1454 36.5808 30.0732 36.377 29.9373C36.173 29.8011 36.0138 29.6071 35.9199 29.3806C35.8261 29.1542 35.8018 28.9051 35.8496 28.6648C35.8975 28.4243 36.016 28.2033 36.1895 28.03L38.0938 26.1248C38.2089 26.0097 38.3457 25.9185 38.4961 25.8562C38.6465 25.7939 38.8079 25.7615 38.9707 25.7615Z" fill="white" stroke="#003946" stroke-width="0.2"/>
<path d="M46.5415 18.1738C46.7067 18.1718 46.8709 18.2024 47.0239 18.2646C47.177 18.327 47.3162 18.4192 47.4331 18.5361C47.55 18.653 47.6423 18.7922 47.7046 18.9453C47.7668 19.0984 47.7975 19.2625 47.7954 19.4277C47.7933 19.5931 47.7581 19.7567 47.6919 19.9082C47.6257 20.0597 47.5305 20.1967 47.4106 20.3105L47.4087 20.3125L45.5034 22.2188C45.2712 22.4506 44.9565 22.5809 44.6284 22.5811C44.3834 22.5812 44.1438 22.509 43.9399 22.373C43.736 22.2369 43.5768 22.0429 43.4829 21.8164C43.3891 21.59 43.3648 21.3409 43.4126 21.1006C43.4605 20.8601 43.579 20.6391 43.7524 20.4658L45.6567 18.5605L45.6587 18.5586C45.7726 18.4388 45.9096 18.3435 46.061 18.2773C46.2126 18.2111 46.3761 18.1759 46.5415 18.1738Z" fill="white" stroke="#003946" stroke-width="0.2"/>
<path d="M54.0977 10.6338C54.4263 10.6339 54.7423 10.7646 54.9746 10.9971C55.2069 11.2296 55.3371 11.5454 55.3369 11.874C55.3367 12.2026 55.2061 12.5177 54.9736 12.75L53.0684 14.6553C52.8362 14.887 52.5214 15.0174 52.1934 15.0176C51.9483 15.0177 51.7088 14.9447 51.5049 14.8086C51.3011 14.6725 51.1417 14.4793 51.0479 14.2529C50.954 14.0264 50.9296 13.7766 50.9775 13.5361C51.0254 13.2957 51.1439 13.0746 51.3174 12.9014L53.2217 10.9971C53.4541 10.7649 53.7692 10.6338 54.0977 10.6338Z" fill="white" stroke="#003946" stroke-width="0.2"/>
<path d="M33.061 65.2734C33.3841 65.2776 33.6929 65.4073 33.9214 65.6357C34.1498 65.8642 34.2796 66.1731 34.2837 66.4961C34.2878 66.8183 34.1663 67.1292 33.9448 67.3633L32.0522 69.2686C31.9365 69.3846 31.7985 69.4766 31.647 69.5391C31.4956 69.6015 31.3332 69.6335 31.1694 69.6328H31.1685C30.9244 69.632 30.6857 69.5587 30.4829 69.4229C30.28 69.2869 30.1215 69.0937 30.0278 68.8682C29.9343 68.6428 29.9097 68.3947 29.9565 68.1553C29.9918 67.9755 30.0668 67.8066 30.1743 67.6602L30.2925 67.5215L32.1919 65.6133C32.4261 65.3909 32.7381 65.2693 33.061 65.2734Z" fill="white" stroke="#003946" stroke-width="0.2"/>
<path d="M40.6455 57.6609C40.8107 57.6588 40.9749 57.6895 41.1279 57.7517C41.281 57.814 41.4202 57.9063 41.5371 58.0232C41.654 58.1401 41.7463 58.2792 41.8086 58.4324C41.8709 58.5854 41.9015 58.7496 41.8994 58.9148C41.8973 59.0802 41.8621 59.2437 41.7959 59.3953C41.7297 59.5467 41.6345 59.6837 41.5146 59.7976L41.5127 59.7996L39.6074 61.7039C39.3755 61.9364 39.0608 62.0676 38.7324 62.0681C38.4874 62.0683 38.2478 61.9961 38.0439 61.8601C37.84 61.724 37.6808 61.53 37.5869 61.3035C37.4931 61.0771 37.4688 60.828 37.5166 60.5876C37.5645 60.3472 37.683 60.1262 37.8564 59.9529L39.7607 58.0476L39.7627 58.0457C39.8766 57.9258 40.0136 57.8306 40.165 57.7644C40.3166 57.6982 40.4801 57.663 40.6455 57.6609Z" fill="white" stroke="#003946" stroke-width="0.2"/>
<path d="M48.189 50.1453C48.512 50.1494 48.8208 50.2792 49.0493 50.5076C49.2778 50.7361 49.4085 51.0448 49.4126 51.3679C49.4167 51.69 49.295 52.0011 49.0737 52.2351L47.1724 54.1404C47.0573 54.2557 46.9204 54.3475 46.77 54.4099C46.6196 54.4723 46.4582 54.5046 46.2954 54.5046C46.0502 54.5051 45.8101 54.4325 45.606 54.2966C45.4018 54.1606 45.242 53.9666 45.1479 53.74C45.054 53.5135 45.0298 53.2637 45.0776 53.0232C45.1255 52.7827 45.244 52.5617 45.4175 52.3884L47.3218 50.4841L47.3208 50.4832C47.5548 50.2616 47.8667 50.1412 48.189 50.1453Z" fill="white" stroke="#003946" stroke-width="0.2"/>
<path d="M55.7734 42.5293C55.9387 42.5272 56.1028 42.5579 56.2559 42.6201C56.409 42.6824 56.5481 42.7747 56.665 42.8916C56.7819 43.0085 56.8742 43.1477 56.9365 43.3008C56.9988 43.4538 57.0294 43.618 57.0273 43.7832C57.0252 43.9486 56.99 44.1121 56.9238 44.2637C56.8577 44.4151 56.7624 44.5521 56.6426 44.666L56.6406 44.668L54.7354 46.5723V46.5732C54.6212 46.6892 54.485 46.7818 54.335 46.8447C54.1848 46.9077 54.0232 46.9403 53.8604 46.9404C53.6153 46.9406 53.3757 46.8675 53.1719 46.7314C52.9679 46.5953 52.8087 46.4013 52.7148 46.1748C52.6211 45.9484 52.5967 45.6993 52.6445 45.459C52.6924 45.2185 52.8109 44.9975 52.9844 44.8242L54.8887 42.916L54.8906 42.9141C55.0045 42.7943 55.1415 42.699 55.293 42.6328C55.4445 42.5666 55.6081 42.5314 55.7734 42.5293Z" fill="white" stroke="#003946" stroke-width="0.2"/>
<path d="M63.3203 35.0173C63.6433 35.0215 63.9522 35.1512 64.1807 35.3796C64.4091 35.6081 64.5398 35.9169 64.5439 36.24C64.5481 36.5621 64.4264 36.8732 64.2051 37.1072L62.2998 39.0125C62.1848 39.1277 62.0478 39.2196 61.8975 39.282C61.7473 39.3442 61.5863 39.3766 61.4238 39.3767C61.1788 39.3766 60.9391 39.303 60.7354 39.1667C60.5318 39.0306 60.373 38.8374 60.2793 38.6111C60.1857 38.3847 60.1612 38.1355 60.209 37.8953C60.2569 37.6549 60.3754 37.4337 60.5488 37.2605L62.4531 35.3562L62.4521 35.3552C62.6861 35.1337 62.998 35.0133 63.3203 35.0173Z" fill="white" stroke="#003946" stroke-width="0.2"/>
<path d="M70.8989 27.4316C71.0617 27.4322 71.2233 27.4655 71.3735 27.5283C71.5236 27.5911 71.6602 27.6824 71.7749 27.7979C71.8896 27.9134 71.9807 28.0506 72.0425 28.2012C72.1042 28.3517 72.1358 28.5131 72.1353 28.6758C72.1347 28.8386 72.1014 29.0002 72.0386 29.1504C71.9757 29.3005 71.8836 29.4371 71.7681 29.5518L69.8638 31.4482C69.7488 31.5635 69.6118 31.6553 69.4614 31.7178C69.311 31.7802 69.1497 31.8124 68.9868 31.8125C68.7411 31.813 68.5008 31.7399 68.2964 31.6035C68.092 31.4671 67.9322 31.273 67.8384 31.0459C67.7448 30.8189 67.7205 30.5688 67.769 30.3281C67.8176 30.0873 67.9374 29.8663 68.1118 29.6934L70.021 27.791C70.1364 27.6765 70.2739 27.5861 70.4243 27.5244C70.5748 27.4627 70.7363 27.4311 70.8989 27.4316Z" fill="white" stroke="#003946" stroke-width="0.2"/>
</svg>
