<svg width="218" height="72" viewBox="0 0 218 72" fill="none" xmlns="http://www.w3.org/2000/svg">
<g clip-path="url(#clip0_4087_637)">
<path fill-rule="evenodd" clip-rule="evenodd" d="M39.6543 6.35176C39.6543 6.35176 64.8154 3.24902 82.165 11.5774C82.165 11.5774 85.2896 47.7489 54.6194 67.2635C54.6194 67.2635 76.7381 50.2801 78.2182 14.7618C78.3004 14.7618 61.3619 4.96369 39.6543 6.35176Z" fill="url(#paint0_linear_4087_637)"/>
<path fill-rule="evenodd" clip-rule="evenodd" d="M31.3495 50.3621C31.3495 50.3621 19.18 34.2768 19.3445 10.8429C19.3445 10.8429 50.097 -4.26253 82.1651 10.0264C82.1651 10.0264 50.7548 -9.89645 14.9043 9.45487C14.9865 9.45487 16.7955 31.9906 31.3495 50.3621Z" fill="url(#paint1_linear_4087_637)"/>
<path fill-rule="evenodd" clip-rule="evenodd" d="M72.3804 38.6863C72.3804 38.6863 66.049 55.9148 49.2749 66.856C49.2749 66.856 18.1935 53.1386 14 10.2717C14 10.2717 13.9178 34.4404 26.0873 52.4854C26.0873 52.4854 34.1453 64.733 49.0282 72C49.0282 71.9184 65.9668 58.201 72.3804 38.6863Z" fill="url(#paint2_linear_4087_637)"/>
<path d="M78.7113 56.8117C78.3824 55.342 77.1489 54.4438 75.7511 54.4438C73.2021 54.4438 72.1332 56.5667 72.1332 58.6897C72.1332 60.8126 73.2021 62.9355 75.7511 62.9355C77.5601 62.9355 78.7113 61.5475 78.8757 59.8328H79.7802C79.5335 62.2007 78.0535 63.6703 75.7511 63.6703C72.7087 63.6703 71.1465 61.3025 71.1465 58.6897C71.1465 56.0768 72.6265 53.709 75.7511 53.709C77.5601 53.709 79.3691 54.8521 79.6157 56.8117H78.7113Z" fill="white"/>
<path d="M82.3301 53.8723H88.9903V54.6889H83.2345V58.1182H88.6614V58.9347H83.2345V62.7723H89.0726V63.5888H82.3301V53.8723Z" fill="white"/>
<path d="M91.4561 53.8723H95.8963C97.4586 53.8723 98.8565 54.6071 98.8565 56.4035C98.8565 57.6283 98.1987 58.6081 96.9652 58.8531C98.1987 59.0164 98.6097 59.8328 98.692 61.0577C98.692 61.7109 98.692 63.0172 99.1031 63.5071H98.1164C97.8698 63.1806 97.8698 62.4457 97.8698 62.0374C97.7875 60.6494 97.7053 59.1797 95.8963 59.2613H92.3606V63.5071H91.4561V53.8723ZM92.3606 58.4448H95.8141C96.9652 58.4448 97.8698 57.7099 97.8698 56.5668C97.8698 55.3421 97.2119 54.6889 95.8141 54.6889H92.3606V58.4448Z" fill="white"/>
<path d="M100.666 53.8723H108.313V54.6889H104.942V63.5071H104.037V54.6889H100.666V53.8723Z" fill="white"/>
<path d="M110.451 53.8723H111.356V63.5071H110.451V53.8723Z" fill="white"/>
<path d="M114.562 53.8723H120.728V54.6889H115.466V58.1182H120.071V58.9347H115.466V63.5071H114.562V53.8723Z" fill="white"/>
<path d="M123.03 53.8723H123.935V63.5071H123.03V53.8723Z" fill="white"/>
<path d="M127.142 53.8723H133.802V54.6889H128.046V58.1182H133.473V58.9347H128.046V62.7723H133.884V63.5888H127.142V53.8723Z" fill="white"/>
<path d="M136.271 53.8723H139.641C142.602 53.954 144.082 55.5053 144.082 58.6897C144.082 61.8741 142.602 63.4255 139.641 63.5071H136.271V53.8723ZM137.175 62.7723H139.148C141.944 62.7723 143.178 61.6292 143.178 58.7714C143.178 55.9136 141.944 54.7705 139.148 54.7705H137.175V62.7723Z" fill="white"/>
<path d="M152.056 60.3234C152.056 62.2831 153.454 62.9363 155.181 62.9363C156.167 62.9363 157.73 62.3647 157.73 60.9766C157.73 59.9151 156.66 59.4252 155.756 59.2619L153.618 58.772C152.467 58.5271 151.398 57.9555 151.398 56.4858C151.398 55.506 151.974 53.7913 154.77 53.7913C156.66 53.7913 158.387 54.7712 158.387 56.8124H157.483C157.401 55.3427 156.25 54.6078 154.852 54.6078C153.618 54.6078 152.385 55.0977 152.385 56.4858C152.385 57.3839 153.043 57.7922 153.866 57.9556L156.25 58.5271C157.648 58.8537 158.799 59.5068 158.799 61.0582C158.799 61.7114 158.552 63.8343 155.098 63.8343C152.797 63.8343 151.152 62.773 151.234 60.4867H152.056V60.3234Z" fill="white"/>
<path d="M164.144 53.8723H165.212L168.995 63.5071H168.008L166.857 60.4861H162.417L161.265 63.5071H160.279L164.144 53.8723ZM162.664 59.7512H166.446L164.554 54.8522L162.664 59.7512Z" fill="white"/>
<path d="M170.968 53.8723H177.135V54.6889H171.872V58.1182H176.477V58.9347H171.872V63.5071H170.968V53.8723Z" fill="white"/>
<path d="M179.357 53.8723H186.017V54.6889H180.262V58.1182H185.689V58.9347H180.262V62.7723H186.1V63.5888H179.357V53.8723Z" fill="white"/>
<path d="M187.497 53.8723H195.144V54.6889H191.772V63.5071H190.868V54.6889H187.497V53.8723Z" fill="white"/>
<path d="M199.912 59.5886L196.129 53.9546H197.198L200.405 58.8536L203.612 53.9546H204.681L200.816 59.5886V63.5894H199.912V59.5886Z" fill="white"/>
<path d="M101.817 27.3367H103.873L108.395 44.5651H108.478L113.329 27.3367H115.714L120.565 44.5651H120.647L125.169 27.3367H127.061L121.634 47.0147H119.66L114.645 29.4597H114.316L109.3 47.0147H107.244L101.817 27.3367Z" fill="white"/>
<path d="M129.281 27.3367H131.008V30.1128H129.281V27.3367ZM129.281 32.8073H131.008V47.0147H129.281V32.8073Z" fill="#00A2D6"/>
<path d="M132.734 27.3367H134.79L139.312 44.5651H139.394L144.245 27.3367H146.63L151.481 44.5651H151.564L156.087 27.3367H157.977L152.55 47.0147H150.577L145.561 29.4597H145.479L140.463 47.0147H138.408L132.734 27.3367Z" fill="white"/>
<path d="M165.131 27.3367H167.27L175 47.0147H172.943L170.559 40.8908H161.514L159.129 47.0147H157.074L165.131 27.3367ZM162.172 39.3394H169.984L166.119 29.2146L162.172 39.3394Z" fill="white"/>
<path d="M57.9923 35.1746C61.1992 34.8479 63.666 32.2352 63.666 28.9692C63.666 25.5398 60.8703 22.7636 57.4168 22.7636C56.8412 22.7636 56.2656 22.8453 55.69 23.0085C54.5388 19.9875 51.661 17.783 48.2075 17.783C44.3428 17.783 41.0538 20.5591 40.396 24.2334C40.0671 24.1516 39.7382 24.1516 39.4093 24.1516C36.2025 24.1516 33.5713 26.6012 33.5713 29.704C33.5713 31.9902 34.9691 33.9498 37.0248 34.7663" stroke="url(#paint3_linear_4087_637)" stroke-width="1.49098" stroke-miterlimit="10"/>
<path d="M41.2998 28.7247H47.8779C51.0025 28.7247 52.647 25.1321 51.0846 22.8458C49.6047 20.7229 46.1512 20.5596 44.6711 22.7642C43.931 23.9073 43.931 25.377 45.1645 26.2752C45.9044 26.7651 46.8912 27.01 47.7134 26.6018" stroke="url(#paint4_linear_4087_637)" stroke-width="1.49098" stroke-miterlimit="10"/>
<path d="M40.2305 31.9087H57.2512C59.718 31.9087 61.0336 29.0509 59.8003 27.2546C58.6491 25.5399 55.8534 25.4583 54.7023 27.1729C54.1266 28.071 54.1266 29.2959 55.0312 29.949C55.6067 30.3573 56.4289 30.5206 57.0868 30.194C57.8268 29.7858 57.9913 29.0509 57.5801 28.3977" stroke="url(#paint5_linear_4087_637)" stroke-width="1.49098" stroke-miterlimit="10"/>
<path d="M39.2441 35.1743H53.8803C56.1827 35.1743 57.4161 38.1138 56.2649 39.9101C55.196 41.6248 52.647 41.7064 51.578 39.9917C51.4958 39.9101 51.4958 39.8285 51.4136 39.6652" stroke="url(#paint6_linear_4087_637)" stroke-width="1.49098" stroke-miterlimit="10"/>
<path d="M37.1046 42.033L33.7334 47.5852" stroke="url(#paint7_linear_4087_637)" stroke-width="1.49098" stroke-miterlimit="10"/>
<path d="M43.5187 42.033L40.1475 47.5852" stroke="url(#paint8_linear_4087_637)" stroke-width="1.49098" stroke-miterlimit="10"/>
<path d="M49.8506 42.033L46.5615 47.5852" stroke="url(#paint9_linear_4087_637)" stroke-width="1.49098" stroke-miterlimit="10"/>
<path d="M56.2638 42.033L52.8926 47.5852" stroke="url(#paint10_linear_4087_637)" stroke-width="1.49098" stroke-miterlimit="10"/>
<path d="M62.6779 42.033L59.3066 47.5852" stroke="url(#paint11_linear_4087_637)" stroke-width="1.49098" stroke-miterlimit="10"/>
</g>
<defs>
<linearGradient id="paint0_linear_4087_637" x1="39.6934" y1="36.5404" x2="82.2723" y2="36.5404" gradientUnits="userSpaceOnUse">
<stop stop-color="#71B844"/>
<stop offset="1" stop-color="#00A2D6"/>
</linearGradient>
<linearGradient id="paint1_linear_4087_637" x1="14.9464" y1="25.6447" x2="82.1925" y2="25.6447" gradientUnits="userSpaceOnUse">
<stop stop-color="#71B844"/>
<stop offset="1" stop-color="#00A2D6"/>
</linearGradient>
<linearGradient id="paint2_linear_4087_637" x1="14" y1="41.103" x2="72.4104" y2="41.103" gradientUnits="userSpaceOnUse">
<stop stop-color="#71B844"/>
<stop offset="1" stop-color="#00A2D6"/>
</linearGradient>
<linearGradient id="paint3_linear_4087_637" x1="33.008" y1="26.4391" x2="64.1617" y2="26.4391" gradientUnits="userSpaceOnUse">
<stop stop-color="#71B844"/>
<stop offset="1" stop-color="#00A2D6"/>
</linearGradient>
<linearGradient id="paint4_linear_4087_637" x1="41.2745" y1="24.9206" x2="52.1625" y2="24.9206" gradientUnits="userSpaceOnUse">
<stop stop-color="#71B844"/>
<stop offset="1" stop-color="#00A2D6"/>
</linearGradient>
<linearGradient id="paint5_linear_4087_637" x1="40.2489" y1="28.912" x2="60.7763" y2="28.912" gradientUnits="userSpaceOnUse">
<stop stop-color="#71B844"/>
<stop offset="1" stop-color="#00A2D6"/>
</linearGradient>
<linearGradient id="paint6_linear_4087_637" x1="39.2105" y1="38.2194" x2="57.1827" y2="38.2194" gradientUnits="userSpaceOnUse">
<stop stop-color="#71B844"/>
<stop offset="1" stop-color="#00A2D6"/>
</linearGradient>
<linearGradient id="paint7_linear_4087_637" x1="33.3327" y1="44.8136" x2="37.5364" y2="44.8136" gradientUnits="userSpaceOnUse">
<stop stop-color="#71B844"/>
<stop offset="1" stop-color="#00A2D6"/>
</linearGradient>
<linearGradient id="paint8_linear_4087_637" x1="39.7174" y1="44.8136" x2="43.9211" y2="44.8136" gradientUnits="userSpaceOnUse">
<stop stop-color="#71B844"/>
<stop offset="1" stop-color="#00A2D6"/>
</linearGradient>
<linearGradient id="paint9_linear_4087_637" x1="46.1022" y1="44.8136" x2="50.3058" y2="44.8136" gradientUnits="userSpaceOnUse">
<stop stop-color="#71B844"/>
<stop offset="1" stop-color="#00A2D6"/>
</linearGradient>
<linearGradient id="paint10_linear_4087_637" x1="52.486" y1="44.8136" x2="56.6896" y2="44.8136" gradientUnits="userSpaceOnUse">
<stop stop-color="#71B844"/>
<stop offset="1" stop-color="#00A2D6"/>
</linearGradient>
<linearGradient id="paint11_linear_4087_637" x1="58.8708" y1="44.8136" x2="63.0745" y2="44.8136" gradientUnits="userSpaceOnUse">
<stop stop-color="#71B844"/>
<stop offset="1" stop-color="#00A2D6"/>
</linearGradient>
<clipPath id="clip0_4087_637">
<rect width="218" height="72" fill="white"/>
</clipPath>
</defs>
</svg>
