<svg width="200" height="66" viewBox="0 0 200 66" fill="none" xmlns="http://www.w3.org/2000/svg">
<mask id="mask0_2943_1399" style="mask-type:luminance" maskUnits="userSpaceOnUse" x="0" y="0" width="200" height="66">
<path d="M200 0H0V66H200V0Z" fill="white"/>
</mask>
<g mask="url(#mask0_2943_1399)">
<path d="M60.8567 17.9111L200 19.341L185.677 66.0001L32.2095 65.398L46.4572 53.8085L53.8085 42.4448L60.8567 17.9111Z" fill="#0C3A46"/>
<path fill-rule="evenodd" clip-rule="evenodd" d="M23.6455 4.96665C23.6455 4.96665 46.8361 2.1069 62.827 9.78306C62.827 9.78306 65.7069 43.1218 37.4386 61.108C37.4386 61.108 57.8251 45.4547 59.1893 12.7181C59.265 12.7181 43.6531 3.68728 23.6455 4.96665Z" fill="url(#paint0_linear_2943_1399)"/>
<path fill-rule="evenodd" clip-rule="evenodd" d="M15.9903 45.5305C15.9903 45.5305 4.7739 30.7049 4.92547 9.10626C4.92547 9.10626 33.2696 -4.81621 62.8262 8.35369C62.8262 8.35369 33.8758 -10.0089 0.833008 7.8269C0.908794 7.8269 2.57609 28.5977 15.9903 45.5305Z" fill="url(#paint1_linear_2943_1399)"/>
<path fill-rule="evenodd" clip-rule="evenodd" d="M53.8083 34.7691C53.8083 34.7691 47.9728 50.6483 32.5124 60.7327C32.5124 60.7327 3.86511 48.0896 1.3473e-05 8.57983C1.3473e-05 8.57983 -0.0757727 30.8557 11.1406 47.4875C11.1406 47.4875 18.5676 58.7759 32.2849 65.4738C32.2849 65.3986 47.897 52.7555 53.8083 34.7691Z" fill="url(#paint2_linear_2943_1399)"/>
<path d="M59.6437 51.4749C59.3406 50.1203 58.2037 49.2925 56.9154 49.2925C54.566 49.2925 53.5808 51.2492 53.5808 53.2059C53.5808 55.1625 54.566 57.1192 56.9154 57.1192C58.5827 57.1192 59.6437 55.8398 59.7953 54.2595H60.629C60.4015 56.4419 59.0375 57.7965 56.9154 57.7965C54.1113 57.7965 52.6714 55.6141 52.6714 53.2059C52.6714 50.7976 54.0355 48.6152 56.9154 48.6152C58.5827 48.6152 60.25 49.6688 60.4774 51.4749H59.6437Z" fill="white"/>
<path d="M62.978 48.7656H69.1167V49.5182H63.8116V52.679H68.8135V53.4315H63.8116V56.9686H69.1925V57.7212H62.978V48.7656Z" fill="white"/>
<path d="M71.3896 48.7656H75.4821C76.9221 48.7656 78.2105 49.4429 78.2105 51.0986C78.2105 52.2275 77.6042 53.1305 76.4674 53.3563C77.6042 53.5068 77.9831 54.2593 78.0589 55.3883C78.0589 55.9903 78.0589 57.1943 78.4378 57.6459H77.5284C77.3011 57.3449 77.3011 56.6676 77.3011 56.2913C77.2253 55.0119 77.1494 53.6574 75.4821 53.7326H72.2234V57.6459H71.3896V48.7656ZM72.2234 52.98H75.4064C76.4674 52.98 77.3011 52.3027 77.3011 51.2491C77.3011 50.1203 76.6947 49.5182 75.4064 49.5182H72.2234V52.98Z" fill="white"/>
<path d="M79.8784 48.7656H86.9265V49.5182H83.8193V57.6459H82.9856V49.5182H79.8784V48.7656Z" fill="white"/>
<path d="M88.8975 48.7656H89.7311V57.6459H88.8975V48.7656Z" fill="white"/>
<path d="M92.686 48.7656H98.37V49.5182H93.5197V52.679H97.7637V53.4315H93.5197V57.6459H92.686V48.7656Z" fill="white"/>
<path d="M100.491 48.7656H101.325V57.6459H100.491V48.7656Z" fill="white"/>
<path d="M104.281 48.7656H110.42V49.5182H105.115V52.679H110.117V53.4315H105.115V56.9686H110.496V57.7212H104.281V48.7656Z" fill="white"/>
<path d="M112.694 48.7656H115.801C118.529 48.8409 119.894 50.2707 119.894 53.2057C119.894 56.1408 118.529 57.5707 115.801 57.6459H112.694V48.7656ZM113.527 56.9686H115.346C117.923 56.9686 119.06 55.915 119.06 53.2811C119.06 50.647 117.923 49.5935 115.346 49.5935H113.527V56.9686Z" fill="white"/>
<path d="M127.243 54.7117C127.243 56.5179 128.532 57.12 130.124 57.12C131.033 57.12 132.473 56.5931 132.473 55.3138C132.473 54.3354 131.487 53.8839 130.654 53.7334L128.683 53.2818C127.622 53.0561 126.637 52.5293 126.637 51.1746C126.637 50.2716 127.168 48.6912 129.745 48.6912C131.487 48.6912 133.079 49.5943 133.079 51.4757H132.245C132.17 50.1211 131.109 49.4438 129.82 49.4438C128.683 49.4438 127.547 49.8953 127.547 51.1746C127.547 52.0025 128.153 52.3788 128.911 52.5293L131.109 53.0561C132.397 53.3572 133.458 53.9591 133.458 55.389C133.458 55.9911 133.231 57.9477 130.047 57.9477C127.926 57.9477 126.41 56.9694 126.486 54.8623H127.243V54.7117Z" fill="white"/>
<path d="M138.386 48.7656H139.37L142.857 57.6459H141.947L140.886 54.8614H136.794L135.732 57.6459H134.823L138.386 48.7656ZM137.021 54.1841H140.507L138.764 49.6688L137.021 54.1841Z" fill="white"/>
<path d="M144.675 48.7656H150.359V49.5182H145.508V52.679H149.752V53.4315H145.508V57.6459H144.675V48.7656Z" fill="white"/>
<path d="M152.407 48.7656H158.545V49.5182H153.24V52.679H158.242V53.4315H153.24V56.9686H158.621V57.7212H152.407V48.7656Z" fill="white"/>
<path d="M159.909 48.7656H166.957V49.5182H163.849V57.6459H163.016V49.5182H159.909V48.7656Z" fill="white"/>
<path d="M171.352 54.0343L167.865 48.8416H168.851L171.807 53.3569L174.763 48.8416H175.748L172.186 54.0343V57.7218H171.352V54.0343Z" fill="white"/>
<path d="M80.9399 24.3081H82.8345L87.0028 40.1873H87.0786L91.55 24.3081H93.7478L98.2192 40.1873H98.2949L102.463 24.3081H104.206L99.2043 42.445H97.3855L92.7626 26.2648H92.4594L87.8365 42.445H85.9418L80.9399 24.3081Z" fill="white"/>
<path d="M106.253 24.3081H107.845V26.8668H106.253V24.3081ZM106.253 29.3503H107.845V42.445H106.253V29.3503Z" fill="#00A2D6"/>
<path d="M109.436 24.3081H111.33L115.498 40.1873H115.574L120.045 24.3081H122.243L126.714 40.1873H126.791L130.959 24.3081H132.702L127.699 42.445H125.881L121.258 26.2648H121.182L116.559 42.445H114.665L109.436 24.3081Z" fill="white"/>
<path d="M139.295 24.3081H141.266L148.391 42.445H146.495L144.297 36.8008H135.961L133.763 42.445H131.869L139.295 24.3081ZM136.568 35.3709H143.768L140.205 26.039L136.568 35.3709Z" fill="white"/>
<path d="M40.5461 31.5323C43.5018 31.2312 45.7754 28.8231 45.7754 25.8128C45.7754 22.6521 43.1986 20.0932 40.0156 20.0932C39.4851 20.0932 38.9546 20.1686 38.4241 20.319C37.363 17.5345 34.7106 15.5027 31.5275 15.5027C27.9656 15.5027 24.9341 18.0614 24.3279 21.4479C24.0247 21.3726 23.7216 21.3726 23.4184 21.3726C20.4627 21.3726 18.0376 23.6303 18.0376 26.4901C18.0376 28.5973 19.326 30.4034 21.2206 31.156" stroke="url(#paint3_linear_2943_1399)" stroke-width="1.37421" stroke-miterlimit="10"/>
<path d="M25.1621 25.5876H31.225C34.1049 25.5876 35.6206 22.2762 34.1806 20.1691C32.8166 18.2124 29.6335 18.0619 28.2693 20.0938C27.5872 21.1474 27.5872 22.502 28.7241 23.3298C29.4061 23.7813 30.3156 24.0071 31.0734 23.6309" stroke="url(#paint4_linear_2943_1399)" stroke-width="1.37421" stroke-miterlimit="10"/>
<path d="M24.1758 28.5222H39.8635C42.1371 28.5222 43.3497 25.8883 42.213 24.2327C41.1519 22.6522 38.5752 22.577 37.5142 24.1573C36.9836 24.9852 36.9836 26.1141 37.8174 26.716C38.3478 27.0923 39.1056 27.2429 39.712 26.9419C40.394 26.5656 40.5456 25.8883 40.1667 25.2862" stroke="url(#paint5_linear_2943_1399)" stroke-width="1.37421" stroke-miterlimit="10"/>
<path d="M23.2666 31.5322H36.7565C38.8786 31.5322 40.0154 34.2415 38.9544 35.8971C37.9692 37.4776 35.6198 37.5528 34.6346 35.9723C34.5587 35.8971 34.5587 35.8219 34.483 35.6714" stroke="url(#paint6_linear_2943_1399)" stroke-width="1.37421" stroke-miterlimit="10"/>
<path d="M21.2957 37.8535L18.1885 42.9709" stroke="url(#paint7_linear_2943_1399)" stroke-width="1.37421" stroke-miterlimit="10"/>
<path d="M27.2068 37.8535L24.0996 42.9709" stroke="url(#paint8_linear_2943_1399)" stroke-width="1.37421" stroke-miterlimit="10"/>
<path d="M33.0437 37.8535L30.0122 42.9709" stroke="url(#paint9_linear_2943_1399)" stroke-width="1.37421" stroke-miterlimit="10"/>
<path d="M38.9544 37.8535L35.8472 42.9709" stroke="url(#paint10_linear_2943_1399)" stroke-width="1.37421" stroke-miterlimit="10"/>
<path d="M44.8655 37.8535L41.7583 42.9709" stroke="url(#paint11_linear_2943_1399)" stroke-width="1.37421" stroke-miterlimit="10"/>
</g>
<defs>
<linearGradient id="paint0_linear_2943_1399" x1="23.6815" y1="32.791" x2="62.9258" y2="32.791" gradientUnits="userSpaceOnUse">
<stop stop-color="#71B844"/>
<stop offset="1" stop-color="#00A2D6"/>
</linearGradient>
<linearGradient id="paint1_linear_2943_1399" x1="0.871811" y1="22.7488" x2="62.8514" y2="22.7488" gradientUnits="userSpaceOnUse">
<stop stop-color="#71B844"/>
<stop offset="1" stop-color="#00A2D6"/>
</linearGradient>
<linearGradient id="paint2_linear_2943_1399" x1="1.34729e-05" y1="36.9966" x2="53.8359" y2="36.9966" gradientUnits="userSpaceOnUse">
<stop stop-color="#71B844"/>
<stop offset="1" stop-color="#00A2D6"/>
</linearGradient>
<linearGradient id="paint3_linear_2943_1399" x1="17.5184" y1="23.4809" x2="46.2323" y2="23.4809" gradientUnits="userSpaceOnUse">
<stop stop-color="#71B844"/>
<stop offset="1" stop-color="#00A2D6"/>
</linearGradient>
<linearGradient id="paint4_linear_2943_1399" x1="25.1388" y1="22.0814" x2="35.174" y2="22.0814" gradientUnits="userSpaceOnUse">
<stop stop-color="#71B844"/>
<stop offset="1" stop-color="#00A2D6"/>
</linearGradient>
<linearGradient id="paint5_linear_2943_1399" x1="24.1927" y1="25.7603" x2="43.1125" y2="25.7603" gradientUnits="userSpaceOnUse">
<stop stop-color="#71B844"/>
<stop offset="1" stop-color="#00A2D6"/>
</linearGradient>
<linearGradient id="paint6_linear_2943_1399" x1="23.2356" y1="34.3388" x2="39.8003" y2="34.3388" gradientUnits="userSpaceOnUse">
<stop stop-color="#71B844"/>
<stop offset="1" stop-color="#00A2D6"/>
</linearGradient>
<linearGradient id="paint7_linear_2943_1399" x1="17.8192" y1="40.4164" x2="21.6936" y2="40.4164" gradientUnits="userSpaceOnUse">
<stop stop-color="#71B844"/>
<stop offset="1" stop-color="#00A2D6"/>
</linearGradient>
<linearGradient id="paint8_linear_2943_1399" x1="23.7033" y1="40.4164" x2="27.5777" y2="40.4164" gradientUnits="userSpaceOnUse">
<stop stop-color="#71B844"/>
<stop offset="1" stop-color="#00A2D6"/>
</linearGradient>
<linearGradient id="paint9_linear_2943_1399" x1="29.5889" y1="40.4164" x2="33.4632" y2="40.4164" gradientUnits="userSpaceOnUse">
<stop stop-color="#71B844"/>
<stop offset="1" stop-color="#00A2D6"/>
</linearGradient>
<linearGradient id="paint10_linear_2943_1399" x1="35.4724" y1="40.4164" x2="39.3469" y2="40.4164" gradientUnits="userSpaceOnUse">
<stop stop-color="#71B844"/>
<stop offset="1" stop-color="#00A2D6"/>
</linearGradient>
<linearGradient id="paint11_linear_2943_1399" x1="41.3566" y1="40.4164" x2="45.2311" y2="40.4164" gradientUnits="userSpaceOnUse">
<stop stop-color="#71B844"/>
<stop offset="1" stop-color="#00A2D6"/>
</linearGradient>
</defs>
</svg>
