<svg width="40" height="48" viewBox="0 0 40 48" fill="none" xmlns="http://www.w3.org/2000/svg">
<path d="M40 0H0V48H40V0Z" fill="white"/>
<path d="M7.74718 27.0371H8.02416C8.79477 27.0371 9.21983 27.4336 9.21983 28.1584C9.21983 28.8831 8.79477 29.2797 8.02416 29.2797H7.74718V27.0344V27.0371ZM8.05161 26.3971H7.08081V29.9197H8.05161C9.17598 29.9197 9.90541 29.2277 9.90541 28.1584C9.90541 27.0891 9.17872 26.3971 8.05161 26.3971Z" fill="#A31E22"/>
<path d="M11.315 26.3971H10.6404V29.9197H11.315V26.3971Z" fill="#A31E22"/>
<path d="M11.9458 27.0371H12.933V29.9197H13.5994V27.0371H14.5785V26.3971H11.9458V27.0371Z" fill="#A31E22"/>
<path d="M17.1837 26.3971L16.372 27.8056L15.5492 26.3971H14.7869L16.0346 28.5221V29.9197H16.701V28.5221L17.9296 26.3971H17.1837Z" fill="#A31E22"/>
<path d="M23.5487 28.41H24.1548C24.5085 28.41 24.7005 28.5577 24.7005 28.8503C24.7005 29.143 24.5277 29.2906 24.163 29.2906H23.5487V28.41ZM24.0917 27.0289C24.3961 27.0289 24.5414 27.1492 24.5414 27.409C24.5414 27.6689 24.4208 27.7892 24.1438 27.7892H23.5377V27.0289H24.0917ZM24.9583 28.0545C25.1228 27.8904 25.2106 27.6661 25.2106 27.3899C25.2106 26.7855 24.7855 26.3971 24.1191 26.3971H22.8713V29.9197H24.1877C24.9062 29.9197 25.3641 29.504 25.3641 28.8667C25.3641 28.5139 25.2243 28.2268 24.9583 28.0545Z" fill="#A31E22"/>
<path d="M26.7681 26.3971H26.0935V29.9197H26.7681V26.3971Z" fill="#A31E22"/>
<path d="M28.3615 27.0371H28.803C29.1924 27.0371 29.3816 27.2012 29.3816 27.5294C29.3816 27.7372 29.3213 28.0025 28.803 28.0025H28.3615V27.0371ZM30.0672 27.5212C30.0672 26.8484 29.5736 26.3999 28.8304 26.3999H27.7061V29.9224H28.3725V28.637H28.7975L29.5928 29.9224H30.3634L29.4721 28.4975C29.8533 28.317 30.07 27.9697 30.07 27.5212" fill="#A31E22"/>
<path d="M31.5289 26.3971H30.8542V29.9197H32.9933V29.2906H31.5289V26.3971Z" fill="#A31E22"/>
<path d="M4.74425 28.5905L5.05688 27.822L5.36951 28.5905H4.74699H4.74425ZM3.54858 29.9115H4.20676L4.50017 29.1867H5.60809L5.90151 29.9115H6.56792L5.06237 26.2686L3.54858 29.9115Z" fill="#A31E22"/>
<path d="M18.873 28.6069L19.1856 27.8384L19.4983 28.6069H18.8758H18.873ZM17.6855 29.9197H18.3437L18.6289 29.1949H19.7369L20.0303 29.9197H20.6967L19.1911 26.2768L17.6855 29.9197Z" fill="#A31E22"/>
<path d="M34.603 28.5905L34.9156 27.822L35.2282 28.5905H34.6057H34.603ZM33.4155 29.9115H34.0737L34.3671 29.1867H35.475L35.7685 29.9115H36.4349L34.9293 26.2686L33.4155 29.9115Z" fill="#A31E22"/>
<path d="M11.2356 39.6969C11.3233 39.7024 11.4001 39.7078 11.4632 39.7133C11.529 39.7188 11.5866 39.7215 11.6359 39.7215C11.6853 39.7215 11.7347 39.7242 11.7758 39.727C11.8169 39.727 11.8608 39.727 11.9019 39.727C12.1158 39.727 12.2831 39.7078 12.4093 39.6668C12.5327 39.6258 12.6204 39.5601 12.6753 39.4699C12.7301 39.3796 12.7575 39.262 12.7575 39.1144C12.7575 38.9311 12.7027 38.7916 12.5903 38.6932C12.4778 38.5947 12.316 38.5455 12.0967 38.5455H11.2328V39.6942L11.2356 39.6969ZM11.2356 38.2447H12.0857C12.1954 38.2447 12.2886 38.22 12.3736 38.1736C12.4559 38.1243 12.5217 38.0587 12.5656 37.9739C12.6122 37.8891 12.6341 37.7879 12.6341 37.6731C12.6341 37.5473 12.6095 37.4433 12.5601 37.3613C12.5107 37.2792 12.4285 37.2191 12.3188 37.1808C12.2063 37.1425 12.061 37.1234 11.88 37.1234H11.7539C11.7182 37.1234 11.6826 37.1234 11.6497 37.1234C11.6167 37.1234 11.5811 37.1261 11.5427 37.1288C11.5043 37.1288 11.4604 37.1316 11.4111 37.137C11.3617 37.1398 11.3041 37.1452 11.2383 37.1507V38.2447H11.2356ZM10.8379 39.9977V36.8526C10.9997 36.8417 11.1451 36.8307 11.2685 36.8252C11.3946 36.8198 11.507 36.8143 11.6113 36.8088C11.7155 36.8034 11.8142 36.8006 11.9074 36.8006C12.1734 36.8006 12.3846 36.828 12.5409 36.88C12.7 36.9319 12.8151 37.0167 12.8864 37.1288C12.9577 37.2437 12.9961 37.3914 12.9961 37.5746C12.9961 37.7579 12.955 37.9137 12.8727 38.0423C12.7905 38.1708 12.6725 38.2611 12.519 38.313V38.3212C12.7164 38.3623 12.8727 38.4552 12.9852 38.5947C13.0976 38.7342 13.1552 38.912 13.1552 39.1226C13.1552 39.2839 13.1333 39.4234 13.0894 39.541C13.0455 39.6586 12.9769 39.7543 12.8782 39.8282C12.7822 39.902 12.6561 39.9567 12.4998 39.9895C12.3435 40.0251 12.1542 40.0415 11.9348 40.0415C11.8608 40.0415 11.7895 40.0415 11.7237 40.0415C11.6578 40.0415 11.5975 40.0415 11.5372 40.036C11.4769 40.036 11.4138 40.0333 11.3507 40.0278C11.2849 40.0251 11.2109 40.0196 11.1259 40.0141C11.0408 40.0087 10.9448 40.0005 10.8379 39.9923" fill="#A31E22"/>
<path d="M13.561 39.0514V36.8499H13.945V39.0569C13.945 39.1663 13.9587 39.2593 13.9888 39.3359C14.019 39.4152 14.0601 39.4781 14.115 39.5273C14.1698 39.5765 14.2329 39.6176 14.3042 39.6477C14.3755 39.6777 14.4523 39.6996 14.5318 39.7106C14.6113 39.7215 14.6936 39.7297 14.7731 39.7297C14.8527 39.7297 14.9349 39.7242 15.0172 39.7106C15.0995 39.6996 15.1735 39.6777 15.2421 39.6449C15.3107 39.6148 15.3737 39.5738 15.4286 39.5246C15.4834 39.4754 15.5246 39.4125 15.5547 39.3359C15.5849 39.2593 15.6013 39.1663 15.6013 39.0597V36.8526H15.9853V39.0542C15.9853 39.2073 15.9661 39.3414 15.9249 39.4562C15.8838 39.5711 15.8262 39.6668 15.7522 39.7434C15.6781 39.82 15.5904 39.8801 15.4889 39.9266C15.3902 39.9731 15.2777 40.0032 15.1571 40.0223C15.0364 40.0415 14.9075 40.0524 14.7704 40.0524C14.6333 40.0524 14.5154 40.0415 14.3947 40.0223C14.274 40.0032 14.1616 39.9704 14.0601 39.9266C13.9587 39.8829 13.8709 39.82 13.7969 39.7434C13.7228 39.6668 13.6625 39.5711 13.6241 39.4562C13.583 39.3414 13.5638 39.2073 13.5638 39.0542" fill="#A31E22"/>
<path d="M16.9615 36.8499H16.5693V40.0032H16.9615V36.8499Z" fill="#A31E22"/>
<path d="M17.5923 40.0032V36.8499H17.9872V39.6586H19.5092V40.0032H17.5923Z" fill="#A31E22"/>
<path d="M20.9433 39.7324C21.1682 39.7324 21.3574 39.6887 21.5055 39.6012C21.6536 39.5136 21.7688 39.3769 21.8428 39.1882C21.9196 38.9995 21.958 38.7479 21.958 38.4361C21.958 38.1243 21.9223 37.8536 21.8483 37.6621C21.7743 37.4707 21.6618 37.3339 21.5083 37.2492C21.3547 37.1644 21.1572 37.1206 20.9159 37.1206C20.8611 37.1206 20.798 37.1206 20.7267 37.1261C20.6554 37.1288 20.5813 37.1316 20.5045 37.1343C20.4305 37.1343 20.3592 37.1398 20.2934 37.1425V39.7106C20.3373 39.7106 20.3894 39.716 20.447 39.7215C20.5046 39.727 20.5622 39.7297 20.6225 39.7297C20.6828 39.7297 20.7404 39.7297 20.7953 39.7297C20.8501 39.7297 20.8994 39.7297 20.9433 39.7297M20.9433 40.0469C20.8281 40.0469 20.713 40.0469 20.5951 40.0415C20.4771 40.0387 20.362 40.0333 20.2468 40.0305C20.1316 40.0251 20.0137 40.0196 19.8958 40.0141V36.8417C20.0219 36.8335 20.1398 36.8253 20.2523 36.8198C20.3647 36.8143 20.4744 36.8088 20.5813 36.8061C20.691 36.8034 20.8007 36.8006 20.9104 36.8006C21.2477 36.8006 21.5247 36.8581 21.7386 36.9702C21.9525 37.0823 22.1116 37.2601 22.2103 37.5008C22.309 37.7414 22.3584 38.0532 22.3584 38.4334C22.3584 38.8135 22.3063 39.1116 22.1993 39.3468C22.0924 39.5848 21.9361 39.7598 21.7277 39.8747C21.5192 39.9895 21.256 40.0469 20.9406 40.0469" fill="#A31E22"/>
<path d="M23.2689 36.8499H22.8767V40.0032H23.2689V36.8499Z" fill="#A31E22"/>
<path d="M23.9023 40.0032V36.8362H24.2726L25.9399 39.3906V36.8499H26.2964V40.0059H25.9207L24.2589 37.4762V40.0032H23.9023Z" fill="#A31E22"/>
<path d="M26.8065 38.4799C26.8065 38.1024 26.8586 37.7879 26.9628 37.5445C27.067 37.2984 27.2206 37.1124 27.4262 36.9893C27.6319 36.8663 27.8815 36.8034 28.1804 36.8034C28.2681 36.8034 28.3504 36.8034 28.4327 36.8116C28.515 36.817 28.5917 36.8253 28.6685 36.8362C28.7453 36.8471 28.8194 36.8635 28.8934 36.88C28.9675 36.8991 29.0387 36.9182 29.1073 36.9374L29.0305 37.2492C28.8907 37.2109 28.7536 37.1808 28.6164 37.1644C28.4793 37.1452 28.3422 37.137 28.2078 37.137C27.9884 37.137 27.802 37.1863 27.6511 37.282C27.5003 37.3777 27.3851 37.5254 27.3138 37.725C27.2398 37.9247 27.2041 38.179 27.2041 38.4826C27.2041 38.7698 27.2398 39.0077 27.3083 39.1909C27.3769 39.3742 27.4838 39.5109 27.6264 39.5984C27.769 39.6859 27.9418 39.7297 28.1475 39.7297C28.2928 39.7297 28.4217 39.7215 28.5396 39.7106C28.6576 39.6969 28.7645 39.6723 28.8605 39.6367V38.7041H28.1009V38.3923H29.217V39.861C29.0744 39.9239 28.9099 39.9704 28.7179 40.0005C28.5259 40.0305 28.323 40.0469 28.1063 40.0469C27.8184 40.0469 27.5771 39.9895 27.3851 39.8747C27.1932 39.7598 27.0505 39.5875 26.9518 39.355C26.8531 39.1226 26.8037 38.8299 26.8037 38.4799" fill="#A31E22"/>
<path d="M10.7227 41.4581L10.6405 41.7645C10.5856 41.7453 10.5253 41.7289 10.454 41.7125C10.3854 41.6961 10.3114 41.6824 10.2373 41.6687C10.1633 41.6578 10.0865 41.6469 10.0124 41.6414C9.9384 41.6359 9.86438 41.6332 9.79582 41.6332C9.56546 41.6332 9.38447 41.6769 9.24735 41.7672C9.11023 41.8547 9.04167 41.9805 9.04167 42.1391C9.04167 42.2102 9.05811 42.2759 9.08827 42.3333C9.11844 42.3907 9.16781 42.4454 9.23637 42.4974C9.30493 42.5494 9.39542 42.5986 9.50786 42.6451C9.6203 42.6916 9.75742 42.7408 9.92196 42.7955C10.0975 42.8502 10.2456 42.9076 10.3635 42.9678C10.4841 43.028 10.5829 43.0964 10.6624 43.1647C10.7392 43.2358 10.7968 43.3151 10.8324 43.4027C10.8681 43.4902 10.8845 43.5914 10.8845 43.7008C10.8845 43.884 10.8352 44.0372 10.7392 44.1657C10.6432 44.2915 10.5033 44.39 10.3223 44.4556C10.1413 44.524 9.91923 44.5568 9.66145 44.5568C9.57369 44.5568 9.48045 44.5513 9.38447 44.5431C9.28574 44.5349 9.18699 44.5212 9.08553 44.5048C8.98406 44.4884 8.88809 44.4693 8.79485 44.4474C8.70161 44.4255 8.61934 44.4009 8.55078 44.3735L8.64127 44.0672C8.70983 44.0918 8.78935 44.1137 8.87711 44.1383C8.96486 44.1602 9.05539 44.1794 9.14863 44.1958C9.24187 44.2122 9.33508 44.2231 9.42558 44.2313C9.51607 44.2395 9.6011 44.2423 9.68063 44.2423C9.85614 44.2423 10.0015 44.2231 10.1194 44.1848C10.2373 44.1465 10.3278 44.0891 10.3909 44.0125C10.4512 43.9387 10.4842 43.8457 10.4842 43.739C10.4842 43.6652 10.4649 43.5968 10.4293 43.5367C10.3936 43.4765 10.3388 43.4218 10.262 43.3726C10.188 43.3233 10.0893 43.2741 9.97134 43.2249C9.85341 43.1757 9.7108 43.1237 9.54351 43.069C9.38446 43.0143 9.24734 42.9569 9.13216 42.8967C9.01698 42.8338 8.92373 42.7682 8.85243 42.6971C8.78113 42.6259 8.7263 42.5466 8.69339 42.4591C8.66048 42.3716 8.64401 42.2731 8.64401 42.161C8.64401 42.0352 8.6687 41.9203 8.72081 41.8192C8.77291 41.718 8.84697 41.6277 8.94295 41.5539C9.03893 41.48 9.15959 41.4199 9.30767 41.3816C9.45302 41.3405 9.62029 41.3214 9.80677 41.3214C9.91098 41.3214 10.0234 41.3269 10.1386 41.3405C10.2538 41.3542 10.3635 41.3706 10.4649 41.3925C10.5664 41.4144 10.6542 41.4363 10.7282 41.4609" fill="#A31E22"/>
<path d="M12.5874 44.245C12.6888 44.245 12.7903 44.2341 12.889 44.2094C12.9877 44.1848 13.0755 44.1438 13.1551 44.0891C13.2346 44.0317 13.3059 43.9551 13.3662 43.8539C13.4265 43.7555 13.4731 43.6296 13.5088 43.4792C13.5444 43.3288 13.5609 43.1483 13.5609 42.9405C13.5609 42.7326 13.5444 42.5494 13.5088 42.3989C13.4731 42.2485 13.4265 42.1227 13.3662 42.0243C13.3059 41.9258 13.2346 41.8492 13.1551 41.7891C13.0755 41.7289 12.985 41.6879 12.889 41.666C12.793 41.6414 12.6943 41.6304 12.5901 41.6304C12.4859 41.6304 12.3899 41.6414 12.2939 41.666C12.2007 41.6906 12.1102 41.7316 12.0307 41.7863C11.9484 41.8438 11.8771 41.9231 11.8168 42.0215C11.7537 42.1227 11.7071 42.2485 11.6742 42.3962C11.6413 42.5466 11.6248 42.7271 11.6248 42.9405C11.6248 43.1538 11.6413 43.3261 11.6769 43.471C11.7126 43.6187 11.7592 43.7418 11.8223 43.843C11.8853 43.9442 11.9539 44.0235 12.0334 44.0809C12.1129 44.1383 12.2007 44.1821 12.2939 44.204C12.3899 44.2286 12.4886 44.2395 12.5901 44.2395M12.5874 44.5622C12.4338 44.5622 12.2885 44.5458 12.1541 44.513C12.0197 44.4802 11.8936 44.4255 11.7784 44.3517C11.6632 44.2778 11.5645 44.1766 11.4822 44.0536C11.3999 43.9305 11.3341 43.7773 11.2902 43.5941C11.2464 43.4109 11.2217 43.1921 11.2217 42.9405C11.2217 42.6888 11.2436 42.4701 11.2902 42.2868C11.3369 42.1008 11.4 41.9477 11.4795 41.8219C11.5617 41.6961 11.6577 41.5976 11.7702 41.5238C11.8826 41.4499 12.0087 41.398 12.1459 41.3652C12.283 41.3351 12.4311 41.3187 12.5874 41.3187C12.7437 41.3187 12.8918 41.3351 13.0289 41.3679C13.166 41.4007 13.2921 41.4527 13.4046 41.5265C13.517 41.5976 13.6158 41.6961 13.6953 41.8219C13.7776 41.9477 13.8406 42.1008 13.8845 42.2813C13.9311 42.4619 13.9531 42.6806 13.9531 42.9323C13.9531 43.1839 13.9311 43.4081 13.8872 43.5941C13.8434 43.7801 13.7803 43.936 13.698 44.0618C13.6158 44.1876 13.517 44.286 13.4046 44.3599C13.2921 44.431 13.166 44.4829 13.0289 44.5158C12.889 44.5458 12.7437 44.5622 12.5874 44.5622Z" fill="#A31E22"/>
<path d="M14.4714 44.5158V41.3624H14.8636V44.1739H16.3856V44.5158H14.4714Z" fill="#A31E22"/>
<path d="M16.6736 43.5667V41.3652H17.0575V43.5722C17.0575 43.6816 17.0712 43.7746 17.1014 43.8512C17.1316 43.9305 17.1727 43.9934 17.2275 44.0426C17.2824 44.0918 17.3454 44.1329 17.4168 44.163C17.4881 44.193 17.5649 44.2149 17.6444 44.2258C17.7239 44.2368 17.8062 44.245 17.8857 44.245C17.9652 44.245 18.0475 44.2395 18.1298 44.2258C18.2121 44.2149 18.2861 44.193 18.3546 44.1602C18.4232 44.1301 18.4863 44.0891 18.5411 44.0399C18.596 43.9906 18.6371 43.9277 18.6673 43.8512C18.6974 43.7746 18.7139 43.6816 18.7139 43.575V41.3679H19.0978V43.5695C19.0978 43.7226 19.0786 43.8566 19.0375 43.9715C18.9964 44.0864 18.9388 44.1821 18.8647 44.2587C18.7907 44.3353 18.7029 44.3954 18.6015 44.4419C18.5027 44.4884 18.3903 44.5185 18.2696 44.5376C18.149 44.5568 18.0201 44.5677 17.883 44.5677C17.7459 44.5677 17.6279 44.5568 17.5073 44.5376C17.3866 44.5185 17.2741 44.4857 17.1727 44.4419C17.0712 44.3981 16.9835 44.3353 16.9094 44.2587C16.8354 44.1821 16.775 44.0864 16.7367 43.9715C16.6955 43.8566 16.6763 43.7226 16.6763 43.5695" fill="#A31E22"/>
<path d="M21.7414 41.7098H20.7651V44.5158H20.3785V41.7098H19.4104V41.3624H21.7414V41.7098Z" fill="#A31E22"/>
<path d="M22.4957 41.3624H22.1035V44.5158H22.4957V41.3624Z" fill="#A31E22"/>
<path d="M24.3713 44.245C24.4728 44.245 24.5743 44.2341 24.673 44.2094C24.7717 44.1848 24.8595 44.1438 24.939 44.0891C25.0185 44.0317 25.0898 43.9551 25.1502 43.8539C25.2105 43.7555 25.2571 43.6296 25.2928 43.4792C25.3284 43.3288 25.3449 43.1483 25.3449 42.9405C25.3449 42.7326 25.3284 42.5494 25.2928 42.3989C25.2571 42.2485 25.2105 42.1227 25.1502 42.0243C25.0898 41.9258 25.0185 41.8492 24.939 41.7891C24.8567 41.7316 24.769 41.6879 24.673 41.666C24.577 41.6414 24.4783 41.6304 24.374 41.6304C24.2698 41.6304 24.1739 41.6414 24.0779 41.666C23.9846 41.6906 23.8942 41.7316 23.8146 41.7863C23.7324 41.8438 23.661 41.9231 23.6007 42.0215C23.5376 42.1227 23.491 42.2485 23.4581 42.3962C23.4252 42.5466 23.4088 42.7271 23.4088 42.9405C23.4088 43.1538 23.4252 43.3261 23.4609 43.471C23.4965 43.6187 23.5431 43.7418 23.6062 43.843C23.6693 43.9442 23.7378 44.0235 23.8174 44.0809C23.8969 44.1383 23.9846 44.1821 24.0779 44.204C24.1739 44.2286 24.2726 44.2395 24.374 44.2395M24.3713 44.5622C24.2177 44.5622 24.0724 44.5458 23.938 44.513C23.8036 44.4802 23.6775 44.4255 23.5623 44.3517C23.4471 44.2778 23.3484 44.1766 23.2662 44.0536C23.1839 43.9305 23.1181 43.7773 23.0742 43.5941C23.0303 43.4109 23.0056 43.1921 23.0056 42.9405C23.0056 42.6888 23.0276 42.4701 23.0742 42.2868C23.1208 42.1008 23.1839 41.9477 23.2634 41.8219C23.3457 41.6961 23.4416 41.5976 23.5541 41.5238C23.6665 41.4499 23.7927 41.398 23.9298 41.3652C24.0669 41.3351 24.215 41.3187 24.3713 41.3187C24.5276 41.3187 24.6757 41.3351 24.8129 41.3679C24.95 41.4007 25.0761 41.4527 25.1886 41.5265C25.301 41.5976 25.3997 41.6961 25.4792 41.8219C25.5615 41.9477 25.6246 42.1008 25.6685 42.2813C25.7151 42.4619 25.737 42.6806 25.737 42.9323C25.737 43.1839 25.7151 43.4081 25.6712 43.5941C25.6273 43.7801 25.5642 43.936 25.482 44.0618C25.3997 44.1876 25.301 44.286 25.1886 44.3599C25.0761 44.431 24.95 44.4829 24.8129 44.5158C24.673 44.5458 24.5276 44.5622 24.3713 44.5622Z" fill="#A31E22"/>
<path d="M26.2527 44.5158V41.3488H26.6229L28.2902 43.9031V41.3624H28.6468V44.5212H28.2711L26.6092 41.9887V44.5158H26.2527Z" fill="#A31E22"/>
<path d="M31.2381 41.4581L31.1559 41.7645C31.101 41.7453 31.0407 41.7289 30.9694 41.7125C30.9008 41.6961 30.8268 41.6824 30.7527 41.6687C30.6787 41.6578 30.6019 41.6469 30.5279 41.6414C30.4538 41.6359 30.3798 41.6332 30.3112 41.6332C30.0808 41.6332 29.8998 41.6769 29.7627 41.7672C29.6256 41.8547 29.5571 41.9805 29.5571 42.1391C29.5571 42.2102 29.5735 42.2759 29.6037 42.3333C29.6339 42.3907 29.6832 42.4454 29.7518 42.4974C29.8203 42.5494 29.9108 42.5986 30.0233 42.6451C30.1357 42.6916 30.2728 42.7408 30.4373 42.7955C30.6128 42.8502 30.7582 42.9076 30.8789 42.9678C30.9996 43.028 31.0983 43.0964 31.1778 43.1647C31.2546 43.2358 31.3122 43.3151 31.3478 43.4027C31.3835 43.4902 31.3999 43.5914 31.3999 43.7008C31.3999 43.884 31.3506 44.0372 31.2546 44.1657C31.1586 44.2915 31.0187 44.39 30.8377 44.4556C30.6567 44.524 30.4346 44.5568 30.1768 44.5568C30.0891 44.5568 29.9958 44.5513 29.8998 44.5431C29.8011 44.5349 29.7024 44.5212 29.6009 44.5048C29.4995 44.4884 29.4035 44.4693 29.3102 44.4474C29.217 44.4255 29.1347 44.4009 29.0662 44.3735L29.1567 44.0672C29.2252 44.0918 29.3048 44.1137 29.3925 44.1383C29.4803 44.1602 29.5708 44.1794 29.664 44.1958C29.7572 44.2122 29.8505 44.2231 29.941 44.2313C30.0315 44.2395 30.1165 44.2423 30.196 44.2423C30.3716 44.2423 30.5169 44.2231 30.6348 44.1848C30.7527 44.1465 30.8432 44.0891 30.9063 44.0125C30.9666 43.9387 30.9995 43.8457 30.9995 43.739C30.9995 43.6652 30.9804 43.5968 30.9447 43.5367C30.9091 43.4765 30.8542 43.4218 30.7774 43.3726C30.7034 43.3233 30.6046 43.2741 30.4867 43.2249C30.3688 43.1757 30.2262 43.1237 30.0589 43.069C29.8999 43.0143 29.7628 42.9569 29.6476 42.8967C29.5324 42.8338 29.4391 42.7682 29.3678 42.6971C29.2965 42.6259 29.2417 42.5466 29.2088 42.4591C29.1759 42.3716 29.1594 42.2731 29.1594 42.161C29.1594 42.0352 29.1841 41.9203 29.2362 41.8192C29.2883 41.718 29.3624 41.6277 29.4583 41.5539C29.5543 41.48 29.675 41.4199 29.8231 41.3816C29.9684 41.3405 30.1357 41.3214 30.3222 41.3214C30.4264 41.3214 30.5388 41.3269 30.654 41.3405C30.7692 41.3542 30.8789 41.3706 30.9804 41.3925C31.0818 41.4144 31.1696 41.4363 31.2436 41.4609" fill="#A31E22"/>
<path d="M36.4021 16.4093L31.965 18.4468L27.0918 12.3918L32.5326 3.54989H36.4021V16.4093Z" fill="#A31E22"/>
<path d="M36.402 23.9576V16.4093L31.9648 18.4468L36.402 23.9576Z" fill="#E36926"/>
<path d="M27.0918 12.3918L19.9727 3.54989H32.5326L27.0918 12.3918Z" fill="#E36926"/>
<path d="M25.1336 15.5724L27.0834 12.4L19.9697 3.55809V14.1476H20.0163C21.8948 14.1394 23.6472 14.6672 25.1336 15.5724Z" fill="#FCCB59"/>
<path d="M20.0193 14.1394H19.9727V23.9576L25.1365 15.5724C23.6447 14.6672 21.9005 14.1394 20.0193 14.1394Z" fill="#A31E22"/>
<path d="M28.9566 19.8334L31.9649 18.4468L27.0945 12.3918L25.1365 15.5724C26.7956 16.5816 28.1284 18.0612 28.9566 19.8334Z" fill="#E36926"/>
<path d="M25.1336 15.5724L19.9697 23.9658L28.9537 19.8334C28.1255 18.0612 26.7899 16.5816 25.1336 15.5724Z" fill="#C72127"/>
<path d="M31.9649 18.4468L28.9565 19.8334C29.5407 21.086 29.8725 22.4862 29.8725 23.9658H36.402L31.9649 18.4468Z" fill="#FCCB59"/>
<path d="M19.9727 23.9576H29.8643C29.8643 22.4862 29.5407 21.0832 28.9566 19.8252L19.9727 23.9576Z" fill="#A31E22"/>
<path d="M3.54858 16.4093L7.98569 18.4468L12.8589 12.3918L7.41804 3.54989H3.54858V16.4093Z" fill="#A31E22"/>
<path d="M3.54858 23.9576V16.4093L7.98569 18.4468L3.54858 23.9576Z" fill="#E36926"/>
<path d="M12.8588 12.3918L19.9725 3.54989H7.41797L12.8588 12.3918Z" fill="#E36926"/>
<path d="M14.8087 15.5724L12.8589 12.4L19.9726 3.55809V14.1476H19.9259C18.0557 14.1394 16.3033 14.6672 14.8087 15.5724Z" fill="#C72127"/>
<path d="M19.9232 14.1394H19.9698V23.9576L14.8142 15.5724C16.2978 14.6672 18.0502 14.1394 19.9232 14.1394Z" fill="#E36926"/>
<path d="M10.9942 19.8334L7.98584 18.4468L12.8563 12.3918L14.8061 15.5642C13.1469 16.5816 11.8142 18.0612 10.9915 19.8307" fill="#E36926"/>
<path d="M14.8087 15.5724L19.9725 23.9658L10.9968 19.8334C11.8168 18.0612 13.1523 16.5816 14.8114 15.5724" fill="#C72127"/>
<path d="M7.98569 18.4468L10.9941 19.8334C10.41 21.086 10.0781 22.4862 10.0781 23.9658H3.54858L7.98569 18.4468Z" fill="#FCCB59"/>
<path d="M19.9725 23.9576H10.0808C10.0808 22.4862 10.4044 21.0832 10.9968 19.8252L19.9725 23.9576Z" fill="#A31E22"/>
<path d="M25.4135 33.1605H14.5757V33.5516H25.4135V33.1605Z" fill="#A31E22"/>
</svg>
