<svg width="85" height="80" viewBox="0 0 85 80" fill="none" xmlns="http://www.w3.org/2000/svg">
<path d="M35.7054 18.6669C35.1936 18.1563 34.4241 18.2419 33.9123 18.7526C33.4004 19.2633 33.4863 20.0309 33.9981 20.5416C39.5494 25.8228 42.5384 32.8933 42.5384 40.5625C42.5384 48.0609 39.5497 55.0455 34.1702 60.327C33.6584 60.8376 33.6584 61.6052 34.1702 62.1159C34.4278 62.3729 34.768 62.4553 35.1081 62.4553C35.4483 62.4553 35.7917 62.3696 36.046 62.1159C41.8548 56.4064 45.1011 48.7403 45.1011 40.5592C45.1011 32.2107 41.7683 24.4587 35.7054 18.6669Z" fill="#003946"/>
<path d="M29.9857 24.5447C29.4738 24.034 28.7044 24.034 28.1925 24.5447C27.6806 25.0553 27.6806 25.823 28.1925 26.3336C32.0364 29.9972 34.1697 35.1068 34.1697 40.3916C34.1697 45.5872 32.119 50.5294 28.3642 54.1924C27.8523 54.703 27.8523 55.4706 28.3642 55.9813C28.6218 56.2383 28.9619 56.3207 29.3021 56.3207C29.6422 56.3207 29.9857 56.235 30.24 55.9813C34.424 51.8071 36.7291 46.2686 36.7291 40.3057C36.815 34.5105 34.3382 28.7196 29.9857 24.5447Z" fill="#003946"/>
<path d="M40.1469 66.3719C39.635 66.8826 39.635 67.6502 40.1469 68.1609C40.4045 68.4179 40.7446 68.5859 41.0848 68.5859C41.4249 68.5859 41.7684 68.5002 41.9401 68.2465C49.4562 60.9194 53.6404 51.1211 53.6404 40.559C53.6404 29.8249 49.3705 19.9419 41.6002 12.5325C41.0884 12.0218 40.3189 12.1075 39.807 12.6181C39.2952 13.1288 39.381 13.8964 39.8929 14.4071C47.1514 21.3092 51.0775 30.593 51.0775 40.563C50.9917 50.3575 47.1478 59.5591 40.1465 66.373L40.1469 66.3719Z" fill="#003946"/>
<path d="M81.9912 0.859719C81.7336 0.60274 81.3076 0.520381 80.9675 0.520381L74.5643 1.37366C74.4751 1.20235 74.3893 1.03102 74.2175 0.859702C73.96 0.602723 73.534 0.520364 73.1938 0.520364L66.7906 1.37364C66.7048 1.11666 66.6189 0.94864 66.4505 0.777326C66.1929 0.520347 65.7669 0.437988 65.4268 0.437988L40.5737 4.01262C39.976 4.09828 39.4641 4.69459 39.4641 5.29089V9.8901C39.4641 10.5721 40.0618 11.1684 40.7454 11.1684C41.429 11.1684 42.0267 10.5721 42.0267 9.8901V6.39787L64.314 3.24495V76.0845L42.0267 73.0172V71.1426C42.0267 70.4606 41.429 69.8643 40.7454 69.8643C40.0618 69.8676 39.4641 70.4639 39.4641 71.1459V74.1275C39.4641 74.7238 39.976 75.3202 40.5737 75.4058L65.4242 78.898H65.596C65.9361 78.898 66.1937 78.8124 66.4513 78.5587C66.623 78.3874 66.7914 78.2193 66.7914 77.9624L73.1946 78.898H73.3663C73.7065 78.898 73.9641 78.8124 74.2216 78.5587C74.3934 78.3874 74.5618 78.2194 74.5618 77.9624L80.965 78.8981H81.1367C81.4769 78.8981 81.7345 78.8124 81.992 78.5587C82.2496 78.3017 82.418 77.9624 82.418 77.623V1.80205C82.418 1.45612 82.2455 1.11671 81.9912 0.859719ZM72.084 76.1704L66.8761 75.4028V4.01226L72.084 3.33028V76.1704ZM79.8544 76.1704L74.6466 75.4028V4.01226L79.8544 3.33028V76.1704Z" fill="#003946"/>
<path d="M23.4111 26.5048C23.2393 26.5048 23.0709 26.5048 22.8992 26.5904L10.9444 32.2143L3.51078 32.211C2.8272 32.211 2.22949 32.8073 2.22949 33.4893V47.6333C2.22949 48.3152 2.82722 48.9115 3.51078 48.9115H10.9411L22.8959 53.939C23.0676 54.0247 23.236 54.0247 23.4078 54.0247C24.6891 54.0247 25.541 54.0247 25.541 40.224C25.6302 26.505 24.6891 26.5048 23.4111 26.5048ZM22.6416 51.0396L11.7106 46.4404C11.5389 46.3547 11.3704 46.3547 11.1987 46.3547H4.79219V34.7679H11.1954C11.3671 34.7679 11.5356 34.7679 11.7073 34.6823L22.5521 29.5691C23.1531 33.661 23.1535 46.9507 22.6416 51.0396Z" fill="#003946"/>
</svg>
