<svg width="151" height="50" viewBox="0 0 151 50" fill="none" xmlns="http://www.w3.org/2000/svg">
<mask id="mask0_2508_6816" style="mask-type:luminance" maskUnits="userSpaceOnUse" x="0" y="0" width="151" height="50">
<path d="M151 0H0V49.8063H151V0Z" fill="white"/>
</mask>
<g mask="url(#mask0_2508_6816)">
<path d="M45.9468 13.5164L151 14.5954L140.186 49.8062L24.3181 49.3519L35.0752 40.606L40.6254 32.0305L45.9468 13.5164Z" fill="#0C3A46"/>
<path fill-rule="evenodd" clip-rule="evenodd" d="M17.8525 3.74791C17.8525 3.74791 35.3614 1.58983 47.4345 7.38258C47.4345 7.38258 49.6089 32.5413 28.2663 46.1145C28.2663 46.1145 43.6581 34.3019 44.6881 9.59746C44.7452 9.59746 32.9582 2.78245 17.8525 3.74791Z" fill="url(#paint0_linear_2508_6816)"/>
<path fill-rule="evenodd" clip-rule="evenodd" d="M12.0727 34.359C12.0727 34.359 3.60428 23.171 3.71872 6.8718C3.71872 6.8718 25.1185 -3.63467 47.4338 6.30388C47.4338 6.30388 25.5762 -7.55329 0.628906 5.90634C0.686125 5.90634 1.94493 21.5808 12.0727 34.359Z" fill="url(#paint1_linear_2508_6816)"/>
<path fill-rule="evenodd" clip-rule="evenodd" d="M40.6252 26.2379C40.6252 26.2379 36.2194 38.2209 24.5468 45.831C24.5468 45.831 2.91816 36.29 1.01721e-05 6.47437C1.01721e-05 6.47437 -0.0572084 23.2847 8.41117 35.8357C8.41117 35.8357 14.0186 44.3544 24.3751 49.4088C24.3751 49.3521 36.1622 39.8111 40.6252 26.2379Z" fill="url(#paint2_linear_2508_6816)"/>
<path d="M45.031 38.8448C44.8021 37.8226 43.9438 37.1979 42.9711 37.1979C41.1973 37.1979 40.4535 38.6744 40.4535 40.1511C40.4535 41.6276 41.1973 43.1042 42.9711 43.1042C44.2299 43.1042 45.031 42.1387 45.1454 40.9462H45.7748C45.6031 42.5931 44.5732 43.6153 42.9711 43.6153C40.854 43.6153 39.7668 41.9684 39.7668 40.1511C39.7668 38.3337 40.7967 36.6868 42.9711 36.6868C44.2299 36.6868 45.4887 37.4818 45.6604 38.8448H45.031Z" fill="white"/>
<path d="M47.5486 36.8003H52.1833V37.3682H48.178V39.7535H51.9544V40.3214H48.178V42.9906H52.2405V43.5585H47.5486V36.8003Z" fill="white"/>
<path d="M53.8992 36.8003H56.989C58.0762 36.8003 59.0489 37.3114 59.0489 38.5608C59.0489 39.4127 58.5912 40.0942 57.7328 40.2646C58.5912 40.3782 58.8772 40.9461 58.9344 41.798C58.9344 42.2523 58.9344 43.1609 59.2205 43.5017H58.5339C58.3623 43.2746 58.3623 42.7634 58.3623 42.4795C58.3051 41.514 58.2478 40.4918 56.989 40.5486H54.5286V43.5017H53.8992V36.8003ZM54.5286 39.9806H56.9318C57.7328 39.9806 58.3623 39.4695 58.3623 38.6744C58.3623 37.8226 57.9045 37.3682 56.9318 37.3682H54.5286V39.9806Z" fill="white"/>
<path d="M60.3083 36.8003H65.6296V37.3682H63.2837V43.5017H62.6543V37.3682H60.3083V36.8003Z" fill="white"/>
<path d="M67.1174 36.8003H67.7468V43.5017H67.1174V36.8003Z" fill="white"/>
<path d="M69.9778 36.8003H74.2692V37.3682H70.6072V39.7535H73.8114V40.3214H70.6072V43.5017H69.9778V36.8003Z" fill="white"/>
<path d="M75.8708 36.8003H76.5003V43.5017H75.8708V36.8003Z" fill="white"/>
<path d="M78.7322 36.8003H83.3666V37.3682H79.3616V39.7535H83.1381V40.3214H79.3616V42.9906H83.4243V43.5585H78.7322V36.8003Z" fill="white"/>
<path d="M85.084 36.8003H87.4296C89.4899 36.8571 90.52 37.9361 90.52 40.151C90.52 42.3659 89.4899 43.4449 87.4296 43.5017H85.084V36.8003ZM85.7133 42.9906H87.0865C89.0321 42.9906 89.8907 42.1955 89.8907 40.2078C89.8907 38.2201 89.0321 37.425 87.0865 37.425H85.7133V42.9906Z" fill="white"/>
<path d="M96.0688 41.2875C96.0688 42.6505 97.042 43.1049 98.2437 43.1049C98.9299 43.1049 100.017 42.7073 100.017 41.7418C100.017 41.0035 99.273 40.6628 98.6437 40.5492L97.1558 40.2084C96.355 40.0381 95.6111 39.6406 95.6111 38.6183C95.6111 37.9368 96.0119 36.7441 97.9575 36.7441C99.273 36.7441 100.475 37.4257 100.475 38.8455H99.8454C99.7885 37.8232 98.9876 37.3121 98.0144 37.3121C97.1558 37.3121 96.2981 37.6528 96.2981 38.6183C96.2981 39.243 96.7558 39.527 97.3282 39.6406L98.9876 40.0381C99.96 40.2653 100.761 40.7196 100.761 41.7986C100.761 42.253 100.589 43.7295 98.186 43.7295C96.5842 43.7295 95.4395 42.9913 95.4972 41.4011H96.0688V41.2875Z" fill="white"/>
<path d="M104.481 36.8003H105.224L107.857 43.5017H107.17L106.369 41.4004H103.279L102.478 43.5017H101.792L104.481 36.8003ZM103.451 40.8893H106.083L104.766 37.4818L103.451 40.8893Z" fill="white"/>
<path d="M109.229 36.8003H113.521V37.3682H109.859V39.7535H113.063V40.3214H109.859V43.5017H109.229V36.8003Z" fill="white"/>
<path d="M115.067 36.8003H119.701V37.3682H115.696V39.7535H119.473V40.3214H115.696V42.9906H119.759V43.5585H115.067V36.8003Z" fill="white"/>
<path d="M120.731 36.8003H126.053V37.3682H123.706V43.5017H123.077V37.3682H120.731V36.8003Z" fill="white"/>
<path d="M129.371 40.7763L126.738 36.8577H127.482L129.714 40.2651L131.946 36.8577H132.69L130 40.7763V43.5591H129.371V40.7763Z" fill="white"/>
<path d="M61.1096 18.3438H62.54L65.6871 30.3268H65.7443L69.1202 18.3438H70.7796L74.1555 30.3268H74.2126L77.3597 18.3438H78.6757L74.8992 32.0306H73.526L70.0357 19.8204H69.8068L66.3165 32.0306H64.886L61.1096 18.3438Z" fill="white"/>
<path d="M80.2209 18.3438H81.4226V20.2747H80.2209V18.3438ZM80.2209 22.1488H81.4226V32.0306H80.2209V22.1488Z" fill="#00A2D6"/>
<path d="M82.6238 18.3438H84.0539L87.2012 30.3268H87.2581L90.6339 18.3438H92.2933L95.6691 30.3268H95.7268L98.8741 18.3438H100.19L96.413 32.0306H95.0398L91.5494 19.8204H91.4925L88.0021 32.0306H86.5719L82.6238 18.3438Z" fill="white"/>
<path d="M105.168 18.3438H106.656L112.035 32.0306H110.604L108.944 27.7712H102.651L100.991 32.0306H99.561L105.168 18.3438ZM103.108 26.6922H108.544L105.855 19.6499L103.108 26.6922Z" fill="white"/>
<path d="M30.6123 23.7953C32.8439 23.5681 34.5604 21.7508 34.5604 19.4792C34.5604 17.0939 32.615 15.163 30.2118 15.163C29.8113 15.163 29.4107 15.2198 29.0102 15.3333C28.2091 13.2321 26.2065 11.6987 23.8033 11.6987C21.114 11.6987 18.8253 13.6296 18.3676 16.1852C18.1387 16.1284 17.9098 16.1284 17.6809 16.1284C15.4494 16.1284 13.6184 17.8322 13.6184 19.9903C13.6184 21.5805 14.5911 22.9434 16.0216 23.5114" stroke="url(#paint3_linear_2508_6816)" stroke-width="1.37421" stroke-miterlimit="10"/>
<path d="M18.9976 19.309H23.5751C25.7494 19.309 26.8937 16.8102 25.8065 15.22C24.7767 13.7435 22.3735 13.6299 21.3435 15.1633C20.8285 15.9584 20.8285 16.9806 21.6869 17.6053C22.2018 17.946 22.8885 18.1164 23.4606 17.8325" stroke="url(#paint4_linear_2508_6816)" stroke-width="1.37421" stroke-miterlimit="10"/>
<path d="M18.2527 21.5238H30.0969C31.8135 21.5238 32.729 19.5361 31.8708 18.2867C31.0697 17.094 29.1242 17.0373 28.3232 18.2298C27.9226 18.8545 27.9226 19.7065 28.5521 20.1607C28.9526 20.4447 29.5247 20.5583 29.9825 20.3312C30.4974 20.0472 30.6119 19.5361 30.3258 19.0818" stroke="url(#paint5_linear_2508_6816)" stroke-width="1.37421" stroke-miterlimit="10"/>
<path d="M17.5664 23.7954H27.7513C29.3535 23.7954 30.2117 25.8399 29.4107 27.0893C28.6669 28.282 26.8931 28.3388 26.1492 27.1461C26.092 27.0893 26.092 27.0326 26.0348 26.919" stroke="url(#paint6_linear_2508_6816)" stroke-width="1.37421" stroke-miterlimit="10"/>
<path d="M16.0784 28.5657L13.7324 32.4275" stroke="url(#paint7_linear_2508_6816)" stroke-width="1.37421" stroke-miterlimit="10"/>
<path d="M20.541 28.5657L18.1951 32.4275" stroke="url(#paint8_linear_2508_6816)" stroke-width="1.37421" stroke-miterlimit="10"/>
<path d="M24.948 28.5657L22.6592 32.4275" stroke="url(#paint9_linear_2508_6816)" stroke-width="1.37421" stroke-miterlimit="10"/>
<path d="M29.4104 28.5657L27.0645 32.4275" stroke="url(#paint10_linear_2508_6816)" stroke-width="1.37421" stroke-miterlimit="10"/>
<path d="M33.8733 28.5657L31.5273 32.4275" stroke="url(#paint11_linear_2508_6816)" stroke-width="1.37421" stroke-miterlimit="10"/>
</g>
<defs>
<linearGradient id="paint0_linear_2508_6816" x1="17.8797" y1="24.7453" x2="47.5092" y2="24.7453" gradientUnits="userSpaceOnUse">
<stop stop-color="#71B844"/>
<stop offset="1" stop-color="#00A2D6"/>
</linearGradient>
<linearGradient id="paint1_linear_2508_6816" x1="0.658203" y1="17.167" x2="47.4528" y2="17.167" gradientUnits="userSpaceOnUse">
<stop stop-color="#71B844"/>
<stop offset="1" stop-color="#00A2D6"/>
</linearGradient>
<linearGradient id="paint2_linear_2508_6816" x1="1.0172e-05" y1="27.9188" x2="40.6461" y2="27.9188" gradientUnits="userSpaceOnUse">
<stop stop-color="#71B844"/>
<stop offset="1" stop-color="#00A2D6"/>
</linearGradient>
<linearGradient id="paint3_linear_2508_6816" x1="13.2264" y1="17.7194" x2="34.9054" y2="17.7194" gradientUnits="userSpaceOnUse">
<stop stop-color="#71B844"/>
<stop offset="1" stop-color="#00A2D6"/>
</linearGradient>
<linearGradient id="paint4_linear_2508_6816" x1="18.9799" y1="16.6631" x2="26.5566" y2="16.6631" gradientUnits="userSpaceOnUse">
<stop stop-color="#71B844"/>
<stop offset="1" stop-color="#00A2D6"/>
</linearGradient>
<linearGradient id="paint5_linear_2508_6816" x1="18.2655" y1="19.4395" x2="32.5499" y2="19.4395" gradientUnits="userSpaceOnUse">
<stop stop-color="#71B844"/>
<stop offset="1" stop-color="#00A2D6"/>
</linearGradient>
<linearGradient id="paint6_linear_2508_6816" x1="17.543" y1="25.9134" x2="30.0494" y2="25.9134" gradientUnits="userSpaceOnUse">
<stop stop-color="#71B844"/>
<stop offset="1" stop-color="#00A2D6"/>
</linearGradient>
<linearGradient id="paint7_linear_2508_6816" x1="13.4536" y1="30.4997" x2="16.3788" y2="30.4997" gradientUnits="userSpaceOnUse">
<stop stop-color="#71B844"/>
<stop offset="1" stop-color="#00A2D6"/>
</linearGradient>
<linearGradient id="paint8_linear_2508_6816" x1="17.8958" y1="30.4997" x2="20.821" y2="30.4997" gradientUnits="userSpaceOnUse">
<stop stop-color="#71B844"/>
<stop offset="1" stop-color="#00A2D6"/>
</linearGradient>
<linearGradient id="paint9_linear_2508_6816" x1="22.3395" y1="30.4997" x2="25.2647" y2="30.4997" gradientUnits="userSpaceOnUse">
<stop stop-color="#71B844"/>
<stop offset="1" stop-color="#00A2D6"/>
</linearGradient>
<linearGradient id="paint10_linear_2508_6816" x1="26.7815" y1="30.4997" x2="29.7067" y2="30.4997" gradientUnits="userSpaceOnUse">
<stop stop-color="#71B844"/>
<stop offset="1" stop-color="#00A2D6"/>
</linearGradient>
<linearGradient id="paint11_linear_2508_6816" x1="31.2241" y1="30.4997" x2="34.1493" y2="30.4997" gradientUnits="userSpaceOnUse">
<stop stop-color="#71B844"/>
<stop offset="1" stop-color="#00A2D6"/>
</linearGradient>
</defs>
</svg>
