<svg width="139" height="50" viewBox="0 0 139 50" fill="none" xmlns="http://www.w3.org/2000/svg">
<path d="M60.2704 19.7469C60.2704 19.7 60.2704 19.7 60.2704 19.6531C60.2704 19.6531 60.2704 19.6531 60.2704 19.6061V19.5593C60.2704 19.5593 60.2704 19.5593 60.2704 19.5124V19.4655V19.4185V19.3716C60.2704 19.3716 60.2704 19.3716 60.2704 19.3248C60.2704 19.3248 60.2704 19.3248 60.2704 19.2779C60.2704 19.2779 60.2704 19.2779 60.2704 19.2309C60.2704 19.2309 60.2704 19.2309 60.2704 19.184C60.2704 19.184 60.2704 19.184 60.2704 19.1371C60.2704 19.1371 60.2704 19.1371 60.2704 19.0903C60.2704 19.0903 60.2704 19.0903 60.2232 19.0433L50.5949 8.39608L50.5476 8.34916C50.5476 8.34916 50.5005 8.34916 50.5005 8.30225C50.5005 8.30225 50.5005 8.30225 50.4533 8.30225C50.4533 8.30225 50.4533 8.30225 50.4061 8.30225C50.4061 8.30225 50.4061 8.30225 50.3588 8.30225H50.3117C50.3117 8.30225 50.3117 8.30225 50.2645 8.30225H50.2173H50.1701C50.1229 8.30225 50.0757 8.30225 50.0285 8.30225H16.471C16.4238 8.30225 16.3766 8.30225 16.3294 8.30225H16.2822H16.235C16.235 8.30225 16.235 8.30225 16.1878 8.30225H16.1406C16.1406 8.30225 16.1406 8.30225 16.0934 8.30225C16.0934 8.30225 16.0934 8.30225 16.0462 8.30225C16.0462 8.30225 16.0462 8.30225 15.999 8.30225C15.999 8.30225 15.9518 8.30225 15.9518 8.34916C15.9518 8.34916 15.9518 8.34916 15.9046 8.34916L15.8574 8.39608L6.22908 19.2309C6.22908 19.2309 6.22908 19.2309 6.18188 19.2779C6.18188 19.2779 6.18188 19.2779 6.18188 19.3248C6.18188 19.3248 6.18188 19.3248 6.18188 19.3716C6.18188 19.3716 6.18188 19.3716 6.18188 19.4185C6.18188 19.4185 6.18188 19.4185 6.18188 19.4655C6.18188 19.4655 6.18188 19.4655 6.18188 19.5124C6.18188 19.5124 6.18188 19.5124 6.18188 19.5593V19.6061C6.18188 19.6061 6.18188 19.6061 6.18188 19.6531V19.7C6.18188 19.7 6.18188 19.7 6.18188 19.7469V19.7938C6.18188 19.7938 6.18188 19.7938 6.18188 19.8407C6.18188 19.8876 6.18188 19.8876 6.18188 19.9345V19.9814C6.18188 19.9814 6.18188 19.9814 6.18188 20.0283V20.0752C6.18188 20.0752 6.18188 20.0753 6.18188 20.1221V20.169V20.2159V20.2629C6.18188 20.2629 6.18188 20.2629 6.18188 20.3098C6.18188 20.3098 6.18188 20.3098 6.18188 20.3566C6.18188 20.3566 6.18188 20.3566 6.18188 20.4035C6.18188 20.4035 6.18188 20.4035 6.18188 20.4505C6.18188 20.4505 6.18188 20.4505 6.18188 20.4974C6.18188 20.4974 6.18188 20.4974 6.18188 20.5443C6.18188 20.5443 6.18188 20.5443 6.22908 20.5911L32.5182 49.7188C32.5182 49.7657 32.5653 49.7657 32.6126 49.8126C32.6598 49.8594 32.6598 49.8594 32.7069 49.8594C32.7541 49.8594 32.7541 49.9063 32.8014 49.9063C32.8486 49.9063 32.8957 49.9533 32.8957 49.9533C32.9429 49.9533 32.9902 49.9533 33.0373 49.9533H33.0845H33.1318C33.1789 49.9533 33.2261 49.9533 33.2733 49.9533C33.3206 49.9533 33.3677 49.9533 33.3677 49.9063C33.4149 49.9063 33.4621 49.8594 33.4621 49.8594C33.5093 49.8594 33.5093 49.8126 33.5565 49.8126C33.5565 49.8126 33.5565 49.8126 33.6037 49.7657C33.7925 49.2028 33.9813 48.64 34.1701 48.0771C34.4061 47.2797 34.8308 46.5292 35.1141 45.7319L34.9725 45.9195L42.996 20.5911H57.4857C58.2409 20.4974 59.0432 20.5443 59.8456 20.5911L60.0816 20.3566C60.0816 20.3566 60.0816 20.3566 60.1288 20.3098C60.1288 20.3098 60.1288 20.3098 60.1288 20.2629C60.1288 20.2629 60.1288 20.2629 60.1288 20.2159C60.1288 20.2159 60.1288 20.2159 60.1288 20.169C60.1288 20.169 60.1288 20.169 60.1288 20.1221C60.1288 20.1221 60.1288 20.1221 60.1288 20.0752C60.1288 20.0752 60.1288 20.0752 60.1288 20.0283V19.9814C60.1288 19.9814 60.1288 19.9814 60.1288 19.9345V19.8876C60.1288 19.8876 60.1288 19.8876 60.1288 19.8407V19.7938C60.1288 19.7938 60.1288 19.7938 60.1288 19.7469C60.2704 19.7938 60.2704 19.7938 60.2704 19.7469ZM31.3854 9.89697L23.881 18.4805L17.9813 9.89697H31.3854ZM33.1318 10.3191L40.6834 18.9495H25.5801L33.1318 10.3191ZM16.3766 10.366L22.3235 18.9495H8.63618L16.3766 10.366ZM8.58893 20.5443H23.2203L31.2438 45.8726L8.58893 20.5443ZM33.1318 46.5292L24.9193 20.5443H41.3441L33.1318 46.5292ZM42.3825 18.4805L34.878 9.89697H48.2822L42.3825 18.4805ZM43.9872 18.9495L49.9341 10.366L57.6745 18.9495H43.9872Z" fill="url(#paint0_linear_2508_6748)"/>
<path d="M0.0471977 7.22329C5.71091 7.45781 6.98523 8.67733 7.17402 14.3527L7.26845 14.3058C7.50441 8.67733 8.73156 7.41089 14.4425 7.22329L14.3953 7.12945C8.73156 6.89493 7.45723 5.67543 7.26845 0L7.17402 0.0469043C6.93805 5.67543 5.71091 6.94185 0 7.12945L0.0471977 7.22329Z" fill="url(#paint1_linear_2508_6748)"/>
<path d="M42.9495 20.1691L133.333 19.5125L122.996 49.9533L32.9436 50.0003L42.9495 20.1691Z" fill="#0C3A46"/>
<path d="M45.8758 30.4407H49.6044C50.8788 30.4407 51.8699 30.9097 52.5307 31.8009C53.1442 32.5983 53.4746 33.6301 53.4746 34.8966C53.4746 35.8816 53.2858 36.7258 52.9083 37.5232C52.2475 38.9303 51.1619 39.587 49.5572 39.587H45.8286V30.4407H45.8758ZM49.3213 38.5082C49.746 38.5082 50.0764 38.4613 50.3596 38.3675C50.8316 38.2268 51.2564 37.8984 51.5395 37.4294C51.7756 37.0542 51.9643 36.5851 52.0587 36.0222C52.1059 35.694 52.1531 35.3656 52.1531 35.0842C52.1531 33.9585 51.9171 33.0673 51.4923 32.4575C51.0203 31.8478 50.3124 31.5194 49.3213 31.5194H47.1029V38.5551H49.3213V38.5082Z" fill="white"/>
<path d="M57.4869 30.4407V36.1161C57.4869 36.7727 57.6285 37.3356 57.8645 37.7577C58.2421 38.4144 58.8557 38.7427 59.7524 38.7427C60.7907 38.7427 61.5459 38.3675 61.9235 37.6639C62.1123 37.2887 62.2539 36.7258 62.2539 36.0692V30.4407H63.5282V35.5532C63.5282 36.6789 63.3866 37.5232 63.0562 38.1329C62.4899 39.2587 61.4515 39.7746 59.894 39.7746C58.3365 39.7746 57.2981 39.2118 56.7318 38.1329C56.4486 37.5232 56.2598 36.6789 56.2598 35.5532V30.4407H57.4869Z" fill="white"/>
<path d="M66.5957 30.4407H70.8436C71.5513 30.4407 72.1181 30.5344 72.5899 30.769C73.4391 31.1442 73.8644 31.8946 73.8644 32.9266C73.8644 33.4894 73.7701 33.9116 73.5335 34.2868C73.2976 34.6151 72.9673 34.8966 72.5899 35.1311C72.9673 35.2718 73.2032 35.4594 73.3919 35.694C73.5807 35.9285 73.675 36.3037 73.675 36.8666L73.7222 38.086C73.7222 38.4144 73.7701 38.6958 73.8172 38.8834C73.9116 39.1649 74.006 39.3525 74.1947 39.4463V39.6339H72.6843C72.6371 39.5401 72.5899 39.4463 72.5899 39.3055C72.5427 39.1649 72.5427 38.9303 72.5427 38.602L72.4484 37.0542C72.4012 36.4444 72.2125 36.0692 71.7872 35.8346C71.5513 35.7408 71.1738 35.647 70.6548 35.647H67.8228V39.587H66.5957V30.4407ZM70.7492 34.6151C71.3154 34.6151 71.7872 34.5213 72.1181 34.2868C72.4484 34.0522 72.6371 33.6301 72.6371 33.0204C72.6371 32.3638 72.4012 31.9416 71.9287 31.707C71.6928 31.5664 71.3154 31.5194 70.8907 31.5194H67.8228V34.662H70.7492V34.6151Z" fill="white"/>
<path d="M79.4809 30.4407H80.897L84.2474 39.587H82.8792L81.9349 36.8666H78.3008L77.31 39.587H75.9883L79.4809 30.4407ZM81.5103 35.8346L80.0943 31.8009L78.631 35.8346H81.5103Z" fill="white"/>
<path d="M86.418 30.4407H87.8813L92.5069 37.8515V30.4407H93.6864V39.587H92.271L87.551 32.1761V39.587H86.3708V30.4407H86.418Z" fill="white"/>
<path d="M97.0374 30.4407H98.3119V39.587H97.0374V30.4407Z" fill="#00A2D6"/>
<path d="M102.748 30.4407V36.1161C102.748 36.7727 102.89 37.3356 103.126 37.7577C103.504 38.4144 104.117 38.7427 105.014 38.7427C106.052 38.7427 106.808 38.3675 107.185 37.6639C107.374 37.2887 107.516 36.7258 107.516 36.0692V30.4407H108.79V35.5532C108.79 36.6789 108.649 37.5232 108.318 38.1329C107.751 39.2587 106.714 39.7746 105.156 39.7746C103.598 39.7746 102.56 39.2118 101.994 38.1329C101.71 37.5232 101.522 36.6789 101.522 35.5532V30.4407H102.748Z" fill="white"/>
<path d="M111.669 30.4407H113.462L116.106 38.1799L118.748 30.4407H120.495V39.587H119.315V34.193C119.315 34.0054 119.315 33.677 119.315 33.2549C119.315 32.8328 119.315 32.3638 119.315 31.8478L116.672 39.5401H115.444L112.802 31.8478V32.1292C112.802 32.3638 112.802 32.692 112.802 33.1611C112.802 33.6301 112.802 33.9585 112.802 34.193V39.587H111.622V30.4407H111.669Z" fill="white"/>
<path d="M45.3562 23.03H46.0642L47.8577 27.5328L49.6512 23.03H50.3591V28.1426H49.8871V23.7336L48.1408 28.1426H47.6689L45.9226 23.7336V28.1426H45.4506V23.03H45.3562Z" fill="white"/>
<path d="M53.4749 23.03H54.0413L56.0708 28.1426H55.5516L54.938 26.5478H52.5782L51.9174 28.1426H51.3982L53.4749 23.03ZM52.7198 26.1257H54.7492L53.7581 23.4991L52.7198 26.1257Z" fill="white"/>
<path d="M57.1091 23.03H58.9026C60.4601 23.0769 61.2625 23.9212 61.2625 25.6098C61.2625 27.2983 60.4601 28.1426 58.9026 28.1895H57.1091V23.03ZM57.6283 27.7205H58.6666C60.1298 27.7205 60.7905 27.1107 60.7905 25.5629C60.7905 24.015 60.1298 23.4053 58.6666 23.4053H57.6283V27.7205Z" fill="white"/>
<path d="M62.6787 23.03H66.2185V23.4522H63.1506V25.2815H66.0297V25.7036H63.1506V27.7205H66.2657V28.1426H62.6787V23.03Z" fill="white"/>
<path d="M69.6157 23.03H70.1354L71.3149 27.5328L72.5894 23.03H73.2027L74.4773 27.5328L75.6574 23.03H76.1292L74.7132 28.1426H74.1942L72.8725 23.546L71.5514 28.1426H71.0318L69.6157 23.03Z" fill="white"/>
<path d="M77.3564 23.03H77.8282V28.1426H77.3564V23.03Z" fill="white"/>
<path d="M78.9617 23.03H83.0683V23.4522H81.2748V28.1426H80.8023V23.4522H79.0088V23.03H78.9617Z" fill="white"/>
<path d="M84.1069 23.03H84.5787V25.2346H87.6468V23.03H88.1186V28.1426H87.6468V25.6567H84.5787V28.1426H84.1069V23.03Z" fill="white"/>
<path d="M45.4514 45.3094L46.9145 43.2456H47.1505V45.3563H47.6225V45.5908H47.1505V46.3413H46.9145V45.5908H45.4514V45.3094ZM46.9145 45.3094V43.6208L45.7346 45.3094H46.9145Z" fill="white"/>
<path d="M50.9264 44.7935C50.9264 45.5439 50.7377 46.3882 49.8409 46.3882C48.9442 46.3882 48.7554 45.497 48.7554 44.7935C48.7554 44.043 48.9442 43.1987 49.8409 43.1987C50.7377 43.1987 50.9264 44.0899 50.9264 44.7935ZM49.0385 44.7935C49.0385 45.3563 49.1329 46.1537 49.8409 46.1537C50.5489 46.1537 50.6432 45.3094 50.6432 44.7935C50.6432 44.2776 50.5489 43.4333 49.8409 43.4333C49.1329 43.4333 49.0385 44.2776 49.0385 44.7935Z" fill="white"/>
<path d="M53.5693 44.0433C53.5693 44.5123 53.3805 44.8876 52.8613 44.8876C52.3421 44.8876 52.1533 44.5123 52.1533 44.0433C52.1533 43.5743 52.3421 43.1991 52.8613 43.1991C53.3805 43.1991 53.5693 43.5743 53.5693 44.0433ZM52.3893 44.0433C52.3893 44.3247 52.4837 44.7 52.8613 44.7C53.2389 44.7 53.3333 44.3247 53.3333 44.0433C53.3333 43.7619 53.2389 43.3867 52.8613 43.3867C52.4837 43.3867 52.3893 43.7619 52.3893 44.0433ZM54.702 43.1052H54.8908L52.8613 46.4823H52.6253L54.702 43.1052ZM55.5515 45.5443C55.5515 46.0133 55.3628 46.3885 54.8436 46.3885C54.3244 46.3885 54.1356 46.0133 54.1356 45.5443C54.1356 45.0752 54.3244 44.7 54.8436 44.7C55.3156 44.7 55.5515 45.0752 55.5515 45.5443ZM54.3716 45.5443C54.3716 45.8256 54.466 46.2009 54.8436 46.2009C55.2212 46.2009 55.3156 45.8256 55.3156 45.5443C55.3156 45.2628 55.2212 44.8876 54.8436 44.8876C54.466 44.9345 54.3716 45.2628 54.3716 45.5443Z" fill="white"/>
<path d="M59.0439 45.3097C59.0439 45.9664 59.5159 46.154 60.0823 46.154C60.4127 46.154 60.9319 45.9664 60.9319 45.4973C60.9319 45.1221 60.5543 44.9814 60.2711 44.9345L59.5631 44.7469C59.1856 44.653 58.8552 44.4654 58.8552 43.9964C58.8552 43.6681 59.0439 43.1052 59.9408 43.1052C60.5543 43.1052 61.1207 43.4336 61.1207 44.0902H60.8375C60.8375 43.6212 60.4127 43.3397 59.9879 43.3397C59.5631 43.3397 59.1856 43.4804 59.1856 43.9495C59.1856 44.2309 59.4216 44.3717 59.6576 44.4185L60.4127 44.6062C60.8847 44.7469 61.2623 44.9345 61.2623 45.4504C61.2623 45.6849 61.1678 46.3416 60.0351 46.3416C59.28 46.3416 58.7136 46.0133 58.7608 45.2159H59.0439V45.3097Z" fill="white"/>
<path d="M62.1589 43.1521H64.7076V43.3866H63.5749V46.2946H63.2916V43.3866H62.1589V43.1521Z" fill="white"/>
<path d="M65.7466 43.1521H67.2097C67.7289 43.1521 68.2009 43.3866 68.2009 43.9963C68.2009 44.4185 68.0121 44.6999 67.5873 44.7937C68.0121 44.8406 68.1064 45.122 68.1536 45.4973C68.1536 45.7318 68.1536 46.154 68.2952 46.2946H67.9648C67.8705 46.154 67.8705 45.9194 67.8705 45.7787C67.8705 45.3566 67.8233 44.8406 67.2097 44.8406H66.077V46.2478H65.7938V43.1521H65.7466ZM66.077 44.653H67.2097C67.5873 44.653 67.9177 44.4185 67.9177 44.0433C67.9177 43.668 67.6817 43.4335 67.2097 43.4335H66.077V44.653Z" fill="white"/>
<path d="M70.8434 43.1052C71.8349 43.1052 72.3539 43.9026 72.3539 44.7469C72.3539 45.5911 71.8349 46.3885 70.8434 46.3885C69.8527 46.3885 69.333 45.5911 69.333 44.7469C69.333 43.9026 69.8527 43.1052 70.8434 43.1052ZM70.8434 46.154C71.6933 46.154 72.0236 45.4504 72.0236 44.7469C72.0236 44.0433 71.6462 43.3397 70.8434 43.3397C69.9942 43.3397 69.6639 44.0433 69.6639 44.7469C69.6639 45.4504 69.9942 46.154 70.8434 46.154Z" fill="white"/>
<path d="M73.5803 43.1521H73.9106L75.7519 45.8256V43.1521H76.035V46.3416H75.7041L73.8634 43.668V46.3416H73.5803V43.1521Z" fill="white"/>
<path d="M80.2351 46.3416H79.9992L79.952 45.7787C79.7161 46.2478 79.2915 46.4354 78.8669 46.4354C77.8754 46.4354 77.3564 45.638 77.3564 44.7937C77.3564 43.9494 77.8754 43.1521 78.8669 43.1521C79.5274 43.1521 80.0935 43.5273 80.1879 44.1839H79.9048C79.8576 43.8087 79.4802 43.3866 78.8669 43.3866C78.017 43.3866 77.6867 44.0902 77.6867 44.7937C77.6867 45.4973 78.0641 46.2009 78.8669 46.2009C79.5746 46.2009 79.9992 45.7318 79.952 45.0283H78.8669V44.7937H80.2351V46.3416Z" fill="white"/>
<path d="M81.6047 43.1521H83.8229V43.3866H81.935V44.5592H83.7285V44.7937H81.935V46.0601H83.87V46.2946H81.6519V43.1521H81.6047Z" fill="white"/>
<path d="M85.0027 43.1521H86.4659C86.9849 43.1521 87.4574 43.3866 87.4574 43.9963C87.4574 44.4185 87.2687 44.6999 86.8434 44.7937C87.2687 44.8406 87.363 45.122 87.4102 45.4973C87.4102 45.7318 87.4102 46.154 87.5517 46.2946H87.2215C87.1271 46.154 87.1271 45.9194 87.1271 45.7787C87.1271 45.3566 87.0799 44.8406 86.4659 44.8406H85.3336V46.2478H85.0499V43.1521H85.0027ZM85.3336 44.653H86.4659C86.8434 44.653 87.1743 44.4185 87.1743 44.0433C87.1743 43.668 86.9377 43.4335 86.4659 43.4335H85.3336V44.653Z" fill="white"/>
<path d="M91.7052 43.1521H92.0355L93.3093 46.3416H92.979L92.6016 45.3566H91.1383L90.7609 46.3416H90.4307L91.7052 43.1521ZM91.2327 45.0751H92.5072L91.8939 43.4335L91.2327 45.0751Z" fill="white"/>
<path d="M94.3477 43.1521H94.6314V46.0601H96.4249V46.2946H94.3477V43.1521Z" fill="white"/>
<path d="M97.5105 43.1521H97.7943V45.122C97.7943 45.8725 98.1245 46.1539 98.7379 46.1539C99.3512 46.1539 99.6821 45.8725 99.6821 45.122V43.1521H99.9652V45.169C99.9652 45.8256 99.635 46.3885 98.7379 46.3885C97.8414 46.3885 97.5105 45.8256 97.5105 45.169V43.1521Z" fill="white"/>
<path d="M101.333 43.1521H101.758L102.844 45.9194L103.929 43.1521H104.354V46.3416H104.071V43.6211L102.985 46.3416H102.702L101.616 43.6211V46.3416H101.333V43.1521Z" fill="white"/>
<path d="M105.863 43.1521H106.146V46.3416H105.863V43.1521Z" fill="white"/>
<path d="M107.61 43.1521H107.941L109.781 45.8256V43.1521H110.064V46.3416H109.734L107.893 43.668V46.3416H107.61V43.1521Z" fill="white"/>
<path d="M111.575 43.1521H111.858V46.3416H111.575V43.1521Z" fill="white"/>
<path d="M113.274 43.1521H113.557V45.122C113.557 45.8725 113.888 46.1539 114.502 46.1539C115.115 46.1539 115.445 45.8725 115.445 45.122V43.1521H115.728V45.169C115.728 45.8256 115.398 46.3885 114.502 46.3885C113.605 46.3885 113.274 45.8256 113.274 45.169V43.1521Z" fill="white"/>
<path d="M117.097 43.1521H117.522L118.608 45.9194L119.693 43.1521H120.118V46.3416H119.834V43.6211L118.749 46.3416H118.466L117.38 43.6211V46.3416H117.097V43.1521Z" fill="white"/>
<defs>
<linearGradient id="paint0_linear_2508_6748" x1="6.00145" y1="29.1481" x2="60.2802" y2="29.1481" gradientUnits="userSpaceOnUse">
<stop stop-color="#6FB744"/>
<stop offset="1" stop-color="#00A2D6"/>
</linearGradient>
<linearGradient id="paint1_linear_2508_6748" x1="0" y1="7.19575" x2="14.4819" y2="7.19575" gradientUnits="userSpaceOnUse">
<stop stop-color="#6FB744"/>
<stop offset="1" stop-color="#00A2D6"/>
</linearGradient>
</defs>
</svg>
